<?xml version="1.0" standalone="no"?>
<!DOCTYPE svg PUBLIC "-//W3C//DTD SVG 1.1//EN" "http://www.w3.org/Graphics/SVG/1.1/DTD/svg11.dtd" >
<svg xmlns="http://www.w3.org/2000/svg" xmlns:xlink="http://www.w3.org/1999/xlink" version="1.1">
<metadata>
Created by FontForge 20170731 at Tue Jan 26 22:50:09 2021
 By Aleksey,,,
Copyright (c) 2016 by Ion Lucin. All rights reserved.
</metadata>
<defs>
<font id="BigJohnPRO-Regular" horiz-adv-x="997" >
  <font-face 
    font-family="Big John PRO"
    font-weight="400"
    font-stretch="normal"
    units-per-em="2048"
    panose-1="0 0 5 0 0 0 0 0 0 0"
    ascent="1536"
    descent="-512"
    x-height="799"
    cap-height="1536"
    bbox="-195 -707 2339 2064"
    underline-thickness="102"
    underline-position="-307"
    unicode-range="U+000D-2212"
  />
<missing-glyph horiz-adv-x="0" 
 />
    <glyph glyph-name=".notdef" horiz-adv-x="0" 
 />
    <glyph glyph-name=".null" horiz-adv-x="0" 
 />
    <glyph glyph-name="nonmarkingreturn" horiz-adv-x="682" 
 />
    <glyph glyph-name="CR" unicode="&#xd;" horiz-adv-x="0" 
 />
    <glyph glyph-name="space" unicode=" " horiz-adv-x="614" 
 />
    <glyph glyph-name="exclam" unicode="!" horiz-adv-x="364" 
d="M121 244v1292h121v-1292h-121zM182 0q-34 0 -57 24t-23 58q0 33 23.5 56.5t56.5 23.5t56.5 -23.5t23.5 -56.5q0 -34 -23 -58t-57 -24z" />
    <glyph glyph-name="quotedbl" unicode="&#x22;" horiz-adv-x="548" 
d="M63 1032l-22 402h170l-27 -402h-121zM360 1032l-22 402h170l-29 -402h-119z" />
    <glyph glyph-name="dollar" unicode="$" horiz-adv-x="1316" 
d="M584 -137v139q-191 17 -320 131.5t-129 261.5h121q0 -74 54 -137.5t140 -100t179 -36.5q101 0 191 34t150 103.5t60 159.5q0 50 -26 100t-74 93t-128.5 69.5t-178.5 26.5q-118 0 -230.5 52t-186 146.5t-73.5 204.5q0 163 129.5 282.5t321.5 139.5v125h121v-123
q183 -17 313.5 -132t130.5 -265h-121q0 114 -114.5 194t-276.5 80q-45 0 -95.5 -10.5t-102 -34t-92.5 -57t-67 -84.5t-26 -111q0 -48 25 -97t71.5 -92t123.5 -70.5t171 -27.5q112 0 209 -36t160.5 -94.5t100 -131.5t36.5 -147q0 -109 -62 -200.5t-163 -146t-221 -67.5v-141
h-121z" />
    <glyph glyph-name="percent" unicode="%" horiz-adv-x="1034" 
d="M102 0l709 1536h121l-709 -1536h-121zM182 1374q-34 0 -57 24t-23 58q0 33 23.5 56.5t56.5 23.5t56.5 -23.5t23.5 -56.5q0 -34 -23 -58t-57 -24zM850 0q-34 0 -57 24t-23 58q0 33 23.5 56.5t56.5 23.5t56.5 -23.5t23.5 -56.5q0 -34 -23 -58t-57 -24z" />
    <glyph glyph-name="ampersand" unicode="&#x26;" horiz-adv-x="1150" 
d="M590 0q-123 0 -230 60.5t-172 167.5t-65 235q0 96 38.5 187.5t106.5 156.5l307 285q60 55 76 80q25 38 25 83q0 65 -43.5 110.5t-110.5 45.5q-71 0 -115.5 -48t-44.5 -108q0 -33 15 -73l-88 -88q-51 74 -51 163q0 115 82 197t198 82q118 0 199.5 -84t81.5 -197
q0 -120 -101 -215l-274 -256q-97 -90 -137.5 -155.5t-40.5 -157.5q0 -153 100 -251.5t242 -98.5q100 0 182 53l-145 145l84 84l319 -321l-86 -82l-84 84q-117 -84 -268 -84z" />
    <glyph glyph-name="parenleft" unicode="(" horiz-adv-x="854" 
d="M809 0q-209 0 -385.5 103t-279.5 279.5t-103 385.5t103 385.5t279.5 279.5t385.5 103h4v-125h-2q-175 0 -323 -86t-234 -234t-86 -323t86 -323.5t234 -235t323 -86.5v-123h-2z" />
    <glyph glyph-name="parenright" unicode=")" horiz-adv-x="854" 
d="M43 0v123q175 0 323 86.5t234 235t86 323.5t-86 323t-234 234t-323 86h-2v125h4q209 0 385.5 -103t279.5 -279.5t103 -385.5t-103 -385.5t-279.5 -279.5t-385.5 -103h-2z" />
    <glyph glyph-name="plus" unicode="+" horiz-adv-x="1003" 
d="M442 340v338h-340v121h338v340h123v-340h338v-121h-338v-338h-121z" />
    <glyph glyph-name="comma" unicode="," horiz-adv-x="292" 
d="M145 -86v86q-34 0 -56.5 23t-22.5 57q0 35 22.5 58.5t56.5 23.5q35 0 58.5 -23.5t23.5 -58.5q0 -102 -82 -166z" />
    <glyph glyph-name="hyphen" unicode="-" horiz-adv-x="1003" 
d="M102 678v121h799v-121h-799z" />
    <glyph glyph-name="period" unicode="." horiz-adv-x="290" 
d="M145 0q-33 0 -56 24t-23 58q0 33 23 56.5t56 23.5t56.5 -23.5t23.5 -56.5q0 -34 -23 -58t-57 -24z" />
    <glyph glyph-name="slash" unicode="/" horiz-adv-x="911" 
d="M41 0l709 1536h120l-708 -1536h-121z" />
    <glyph glyph-name="zero" unicode="0" horiz-adv-x="1097" 
d="M549 1536q87 0 173 -34.5t155 -94t112 -149t43 -191.5v-602q-1 -81 -29 -155t-76 -129.5t-109.5 -97t-130.5 -62.5t-138 -21q-124 0 -234.5 61.5t-179 169.5t-69.5 234v606q1 126 69.5 234t179 169.5t234.5 61.5zM549 121q91 0 174 45.5t135.5 127t52.5 175.5v598
q0 94 -52.5 175.5t-135.5 127t-174 45.5q-141 0 -252 -103t-111 -245v-598q0 -142 111 -245t252 -103z" />
    <glyph glyph-name="one" unicode="1" horiz-adv-x="468" 
d="M166 0v1536h121v-1536h-121z" />
    <glyph glyph-name="two" unicode="2" horiz-adv-x="1017" 
d="M84 0l672 956q65 93 65 177q0 123 -87 211t-210 88q-122 0 -204 -86t-84 -209h-115q2 166 118 282.5t283 116.5q177 0 292.5 -116.5t115.5 -284.5q0 -124 -90 -254l-531 -760h625v-121h-850z" />
    <glyph glyph-name="three" unicode="3" horiz-adv-x="1077" 
d="M508 0q-98 0 -186.5 36.5t-155.5 102.5l86 86q104 -104 256 -104q151 0 256.5 104.5t105.5 255.5q-7 158 -112.5 261.5t-251.5 103.5q-147 0 -254 -107l-88 90l411 586h-491v121h727l-408 -575q58 10 105 10q199 0 340.5 -140.5t144.5 -338.5q0 -139 -65.5 -252
t-176.5 -176.5t-243 -63.5z" />
    <glyph glyph-name="four" unicode="4" horiz-adv-x="1280" 
d="M827 0v317h-778l850 1219h49v-1098h283v-121h-283v-317h-121zM279 438h548v783z" />
    <glyph glyph-name="five" unicode="5" horiz-adv-x="1103" 
d="M559 971q200 -3 339.5 -144t139.5 -340q0 -201 -142.5 -344t-344.5 -143q-199 0 -340.5 140.5t-144.5 338.5h124q5 -148 110 -251t251 -103q152 0 259.5 106.5t107.5 257.5t-107.5 256t-259.5 105h-363v686h732v-121h-611v-444h250z" />
    <glyph glyph-name="six" unicode="6" horiz-adv-x="1103" 
d="M551 975q202 0 344.5 -143.5t142.5 -344.5t-142.5 -344t-344.5 -143q-132 0 -243.5 65.5t-176.5 177.5t-65 244q0 169 104 301l528 748h148l-404 -573q53 12 109 12zM551 125q152 0 259.5 106.5t107.5 257.5t-107.5 256t-259.5 105q-150 0 -255.5 -105.5t-105.5 -255.5
q0 -151 106 -257.5t255 -106.5z" />
    <glyph glyph-name="seven" unicode="7" horiz-adv-x="1193" 
d="M178 0l819 1415h-948v121h1096v-121l-826 -1415h-141z" />
    <glyph glyph-name="eight" unicode="8" horiz-adv-x="1103" 
d="M766 926q123 -61 197.5 -178.5t74.5 -260.5q0 -132 -65 -244t-176.5 -177.5t-243.5 -65.5q-202 0 -344.5 143t-142.5 344q0 143 75.5 261.5t198.5 177.5q-60 48 -94.5 118t-34.5 150q0 141 101 241.5t243 100.5q141 0 241.5 -100.5t100.5 -241.5q0 -81 -35 -151.5
t-96 -116.5zM557 1419q-94 0 -159.5 -65.5t-65.5 -157.5q0 -91 66 -156t159 -65q89 0 154 65t65 156q0 92 -64.5 157.5t-154.5 65.5zM555 125q150 0 255 105t105 255q0 151 -105.5 258t-254.5 107q-152 0 -259.5 -107t-107.5 -258q0 -150 107 -255t260 -105z" />
    <glyph glyph-name="nine" unicode="9" horiz-adv-x="1103" 
d="M1038 1049q0 -169 -104 -301l-528 -748h-148l404 573q-53 -12 -109 -12q-202 0 -344.5 143.5t-142.5 344.5t142.5 344t344.5 143q132 0 243.5 -65.5t176.5 -177.5t65 -244zM186 1047q0 -151 107.5 -256t259.5 -105q149 0 254.5 105t105.5 256t-105.5 257.5t-254.5 106.5
q-152 0 -259.5 -106.5t-107.5 -257.5z" />
    <glyph glyph-name="colon" unicode=":" horiz-adv-x="290" 
d="M145 637q-33 0 -56 24t-23 58q0 33 23 56.5t56 23.5t56.5 -23.5t23.5 -56.5q0 -34 -23 -58t-57 -24zM145 0q-33 0 -56 24t-23 58q0 33 23 56.5t56 23.5t56.5 -23.5t23.5 -56.5q0 -34 -23 -58t-57 -24z" />
    <glyph glyph-name="semicolon" unicode=";" horiz-adv-x="292" 
d="M145 637q-33 0 -56 24t-23 58q0 33 23 56.5t56 23.5t56.5 -23.5t23.5 -56.5q0 -34 -23 -58t-57 -24zM145 -86v86q-34 0 -56.5 23t-22.5 57q0 35 22.5 58.5t56.5 23.5q35 0 58.5 -23.5t23.5 -58.5q0 -102 -82 -166z" />
    <glyph glyph-name="equal" unicode="=" horiz-adv-x="1003" 
d="M102 913v121h799v-121h-799zM102 555v121h799v-121h-799z" />
    <glyph glyph-name="question" unicode="?" horiz-adv-x="1009" 
d="M444 242v608h64q117 0 197.5 82t80.5 201t-80 199.5t-198 80.5t-202.5 -80.5t-84.5 -199.5h-119q0 110 56.5 203.5t150.5 146.5t201 53q162 0 279.5 -117.5t117.5 -283.5q0 -153 -99 -266.5t-243 -135.5v-491h-121zM506 0q-34 0 -57 24t-23 58q0 33 23.5 56.5t56.5 23.5
t56.5 -23.5t23.5 -56.5q0 -34 -23 -58t-57 -24z" />
    <glyph glyph-name="at" unicode="@" horiz-adv-x="1890" 
d="M946 1206q162 0 310.5 -64t255.5 -171.5t171 -256t64 -311.5q0 -166 -61 -310.5t-175 -252.5l-86 88q13 13 17 19l-17 -19l-188 187q-56 -55 -131.5 -86t-157.5 -31q-172 0 -291.5 120t-119.5 292t119.5 290.5t291.5 118.5q84 0 160.5 -31.5t130.5 -87.5v99h119v-643
l137 -146q127 176 127 393q0 183 -91 338.5t-246 245.5t-337 90q-137 0 -262 -53.5t-215 -143.5t-143.5 -215t-53.5 -262q0 -183 90 -338.5t244.5 -246t337.5 -90.5v-127q-217 0 -402 107.5t-293 292.5t-108 402t108 402t293 293t402 108zM948 117q120 0 205.5 86.5
t85.5 206.5t-85.5 205t-205.5 85t-206.5 -85t-86.5 -205t86.5 -206.5t206.5 -86.5z" />
    <glyph glyph-name="A" unicode="A" horiz-adv-x="1650" 
d="M1434 0l-193 412h-835l-193 -412h-131l717 1536h47l723 -1536h-135zM463 532h721l-361 773z" />
    <glyph glyph-name="B" unicode="B" horiz-adv-x="1587" 
d="M246 0v1536h712q176 -5 294 -118t118 -279q0 -95 -41 -179t-115 -137q106 -56 173 -161.5t67 -233.5q0 -181 -126.5 -304.5t-305.5 -123.5h-776zM367 864l600 2q133 0 206.5 80.5t73.5 190.5q0 113 -76.5 195.5t-214.5 82.5h-589v-551zM367 121h628q84 0 150.5 26
t106.5 70t60.5 98.5t20.5 114.5q0 127 -85.5 220t-241.5 93h-639v-622z" />
    <glyph glyph-name="C" unicode="C" horiz-adv-x="1591" 
d="M911 0q-209 0 -385.5 103t-279.5 279.5t-103 385.5t103 385.5t279.5 279.5t385.5 103q156 0 296.5 -59.5t246.5 -165.5l-84 -90q-90 90 -208 140t-249 50q-175 0 -323 -86t-234 -234t-86 -323t86 -324t234 -236t323 -87q271 0 457 186l88 -84q-106 -106 -247.5 -164.5
t-299.5 -58.5z" />
    <glyph glyph-name="D" unicode="D" horiz-adv-x="1728" 
d="M246 0v1536h581q123 -1 239 -40.5t209 -110.5t163 -165t108.5 -211t38.5 -241t-38.5 -241t-108.5 -211t-163 -165t-209 -110.5t-239 -40.5h-581zM367 121h460q129 1 247 52.5t203.5 138.5t136 206.5t50.5 249.5t-50.5 249.5t-136 206.5t-203.5 138.5t-247 52.5h-460
v-1294z" />
    <glyph glyph-name="E" unicode="E" horiz-adv-x="1331" 
d="M246 0v1536h952v-121h-831v-569h768v-121h-768v-604h831v-121h-952z" />
    <glyph glyph-name="F" unicode="F" horiz-adv-x="1331" 
d="M246 0v1536h952v-121h-831v-569h768v-121h-768v-725h-121z" />
    <glyph glyph-name="G" unicode="G" horiz-adv-x="1818" 
d="M1683 819q3 -24 3 -51q0 -162 -62 -305.5t-167 -244.5t-247.5 -159.5t-298.5 -58.5q-209 0 -385.5 103t-279.5 279.5t-103 385.5t103 385.5t279.5 279.5t385.5 103q157 0 299.5 -58.5t247.5 -164.5l-86 -86q-88 88 -208 137t-251 49q-175 0 -323 -86.5t-234 -235
t-86 -323.5t86 -324.5t234 -237t323 -87.5q164 0 305.5 73.5t233.5 206.5t109 299h-646v121h768z" />
    <glyph glyph-name="H" unicode="H" horiz-adv-x="1779" 
d="M1413 1536h121v-1536h-121v725h-1046v-725h-121v1536h121v-690h1046v690z" />
    <glyph glyph-name="I" unicode="I" horiz-adv-x="550" 
d="M215 0v1536h121v-1536h-121z" />
    <glyph glyph-name="J" unicode="J" horiz-adv-x="1193" 
d="M465 0q-117 0 -231.5 43t-200.5 119l84 86q138 -129 350 -129q73 0 140 15t128.5 48.5t106.5 83t71.5 123.5t26.5 166v981h121v-993q0 -112 -34.5 -204t-92 -154t-135 -104.5t-161.5 -61.5t-173 -19z" />
    <glyph glyph-name="K" unicode="K" horiz-adv-x="1415" 
d="M246 0v1536h121v-801l802 801h170l-761 -762l772 -774h-170l-688 688l-125 -125v-563h-121z" />
    <glyph glyph-name="L" unicode="L" horiz-adv-x="1253" 
d="M215 0v1536h121v-1415h833v-121h-954z" />
    <glyph glyph-name="M" unicode="M" horiz-adv-x="2039" 
d="M215 0v1536h53l752 -756l752 756h53v-1536h-121v1290l-684 -682l-684 682v-1290h-121z" />
    <glyph glyph-name="N" unicode="N" horiz-adv-x="1683" 
d="M199 0v1536h98l1067 -1346v1346h121v-1536h-121l-1045 1317v-1317h-120z" />
    <glyph glyph-name="O" unicode="O" horiz-adv-x="1820" 
d="M1677 768q0 -156 -61 -298.5t-163.5 -245t-244.5 -163.5t-297 -61q-209 0 -385.5 103t-279.5 279.5t-103 385.5t103 385.5t279.5 279.5t385.5 103q155 0 297 -61t244.5 -163.5t163.5 -245t61 -298.5zM1556 768q0 175 -87 323t-235 234t-321 86q-175 0 -323 -86t-234 -234
t-86 -323t86 -323.5t234 -235t323 -86.5q130 0 248.5 51t205 137.5t138 206t51.5 250.5z" />
    <glyph glyph-name="P" unicode="P" horiz-adv-x="1310" 
d="M246 0v1536h502q196 0 328 -132t132 -321q0 -122 -57 -225.5t-163 -166t-238 -62.5h-383v-629h-121zM367 752h381q140 0 238.5 95.5t98.5 235.5q0 144 -93 240t-244 96h-381v-667z" />
    <glyph glyph-name="Q" unicode="Q" horiz-adv-x="1929" 
d="M1786 0h-170l-195 195q-103 -92 -234.5 -143.5t-275.5 -51.5q-209 0 -385.5 103t-279.5 279.5t-103 385.5t103 385.5t279.5 279.5t385.5 103q155 0 297 -61t244.5 -163.5t163.5 -245t61 -298.5q0 -269 -172 -485zM913 123q241 0 422 160l-399 399l86 86l397 -399
q137 177 137 399q0 175 -87 323t-235 234t-321 86q-175 0 -323 -86t-234 -234t-86 -323t86 -323.5t234 -235t323 -86.5z" />
    <glyph glyph-name="R" unicode="R" horiz-adv-x="1318" 
d="M246 0v1536h526q122 0 224.5 -60.5t161.5 -165t59 -227.5q0 -121 -57 -223t-159 -164t-229 -67l365 -629h-162l-365 629h-243v-629h-121zM367 752h389q141 0 239.5 95.5t98.5 235.5t-99 238t-239 98h-389v-667z" />
    <glyph glyph-name="S" unicode="S" horiz-adv-x="1316" 
d="M639 0q-209 0 -356.5 118t-147.5 277h121q0 -74 54 -137.5t140 -100t179 -36.5q101 0 191 34t150 103.5t60 159.5q0 50 -26 100t-74 93t-128.5 69.5t-178.5 26.5q-118 0 -230.5 52t-186 146.5t-73.5 204.5q0 181 142.5 303.5t363.5 122.5q97 0 189 -29t163.5 -80
t114.5 -127t43 -163h-121q0 121 -113 197.5t-278 76.5t-274 -82.5t-109 -214.5q0 -48 25 -97t71.5 -92t123.5 -70.5t171 -27.5q112 0 209 -36t160.5 -94.5t100 -131.5t36.5 -147q0 -119 -73 -216t-190 -149.5t-249 -52.5z" />
    <glyph glyph-name="T" unicode="T" horiz-adv-x="1372" 
d="M625 0v1415h-541v121h1204v-121h-543v-1415h-120z" />
    <glyph glyph-name="U" unicode="U" horiz-adv-x="1476" 
d="M748 0q-119 0 -230.5 44.5t-196.5 123.5t-136.5 195.5t-51.5 250.5v922h121v-922q0 -108 40.5 -201t108.5 -156t158 -98.5t189 -35.5q119 0 226.5 60t177 174.5t69.5 256.5v922h120v-922q0 -134 -52.5 -251t-137 -195t-190.5 -123t-215 -45z" />
    <glyph glyph-name="V" unicode="V" horiz-adv-x="1619" 
d="M788 0l-722 1536h135l608 -1294l610 1294h135l-723 -1536h-43z" />
    <glyph glyph-name="W" unicode="W" horiz-adv-x="2404" 
d="M788 0l-722 1536h135l608 -1294l326 694h133l325 -694l611 1294h135l-723 -1536h-43l-373 788l-369 -788h-43z" />
    <glyph glyph-name="X" unicode="X" horiz-adv-x="1505" 
d="M1389 0h-150l-485 694l-488 -694h-149l561 801l-516 735h151l441 -627l438 627h151l-516 -735z" />
    <glyph glyph-name="Y" unicode="Y" horiz-adv-x="1296" 
d="M586 0v635l-520 901h141l442 -766l441 766h141l-524 -901v-635h-121z" />
    <glyph glyph-name="Z" unicode="Z" horiz-adv-x="1325" 
d="M150 0l821 1415h-821v121h1026l-824 -1415h727v-121h-929z" />
    <glyph glyph-name="bracketleft" unicode="[" horiz-adv-x="360" 
d="M41 0v1536h278v-121h-157v-1294h157v-121h-278z" />
    <glyph glyph-name="backslash" unicode="\" horiz-adv-x="911" 
d="M750 0l-709 1536h121l708 -1536h-120z" />
    <glyph glyph-name="bracketright" unicode="]" horiz-adv-x="360" 
d="M41 0v121h158v1294h-158v121h278v-1536h-278z" />
    <glyph glyph-name="underscore" unicode="_" horiz-adv-x="1011" 
d="M102 0v121h807v-121h-807z" />
    <glyph glyph-name="grave" unicode="`" horiz-adv-x="364" 
d="M199 1698l-166 362h129l170 -362h-133z" />
    <glyph glyph-name="a" unicode="a" horiz-adv-x="1040" 
d="M786 799h121v-799h-121v125q-119 -125 -292 -125q-170 0 -290 120.5t-120 289.5t120 289t290 120q173 0 292 -125v105zM498 117q119 0 203.5 85.5t84.5 205.5q0 121 -84.5 206.5t-203.5 85.5q-123 0 -209 -85t-86 -207q0 -120 86 -205.5t209 -85.5z" />
    <glyph glyph-name="b" unicode="b" horiz-adv-x="1056" 
d="M563 819q170 0 290 -120t120 -289t-120 -289.5t-290 -120.5q-174 0 -293 125v-125h-120v1536h120v-842q119 125 293 125zM559 117q123 0 209 85.5t86 205.5q0 122 -86 207t-209 85q-119 0 -204 -85.5t-85 -206.5q0 -120 85 -205.5t204 -85.5z" />
    <glyph glyph-name="c" unicode="c" horiz-adv-x="841" 
d="M475 0q-158 0 -274.5 121t-116.5 289q0 169 120 289t290 120q153 0 282 -123l-86 -80q-87 84 -192 84q-123 0 -209 -85t-86 -207q0 -120 84.5 -204.5t206.5 -84.5q51 0 104.5 23t93.5 61l82 -80q-123 -123 -299 -123z" />
    <glyph glyph-name="d" unicode="d" horiz-adv-x="1056" 
d="M786 1536h121v-1536h-121v125q-119 -125 -292 -125q-170 0 -290 120.5t-120 289.5t120 289t290 120q173 0 292 -125v842zM498 117q119 0 203.5 85.5t84.5 205.5q0 121 -84.5 206.5t-203.5 85.5q-123 0 -209 -85t-86 -207q0 -120 86 -205.5t209 -85.5z" />
    <glyph glyph-name="e" unicode="e" horiz-adv-x="966" 
d="M494 0q-170 0 -290 120.5t-120 289.5t120 289t290 120q169 0 288 -120t119 -289q0 -22 -4 -54h-690q19 -102 100 -169.5t189 -67.5q119 0 202 86l84 -84q-121 -121 -288 -121zM211 475h567q-23 98 -101.5 161.5t-178.5 63.5q-103 0 -183.5 -63.5t-103.5 -161.5z" />
    <glyph glyph-name="f" unicode="f" horiz-adv-x="573" 
d="M489 799v-121h-151v-678h-121v678h-151v121h151v309q0 113 26.5 181.5t94.5 144.5l80 -80q-47 -55 -63.5 -95t-16.5 -108v-352h151z" />
    <glyph glyph-name="g" unicode="g" horiz-adv-x="1056" 
d="M492 -702v118h4q122 0 206 84t84 205v420q-119 -125 -292 -125q-170 0 -290 120.5t-120 289.5t120 289t290 120q173 0 292 -125v105h121v-1092q0 -167 -117.5 -288t-275.5 -121h-22zM498 117q119 0 203.5 85.5t84.5 205.5q0 121 -84.5 206.5t-203.5 85.5q-123 0 -209 -85
t-86 -207q0 -120 86 -205.5t209 -85.5z" />
    <glyph glyph-name="h" unicode="h" 
d="M150 0v1536h120v-809q98 92 240 92q141 0 247.5 -101t106.5 -255v-463h-121v440q0 116 -65.5 188t-173.5 72q-99 0 -166.5 -71t-67.5 -166v-463h-120z" />
    <glyph glyph-name="i" unicode="i" horiz-adv-x="419" 
d="M213 1014q-34 0 -57 24t-23 58q0 33 23.5 56.5t56.5 23.5t56.5 -23.5t23.5 -56.5q0 -34 -23 -58t-57 -24zM150 0v799h120v-799h-120z" />
    <glyph glyph-name="j" unicode="j" horiz-adv-x="415" 
d="M209 1014q-34 0 -57 24t-23 58q0 33 23.5 56.5t56.5 23.5t56.5 -23.5t23.5 -56.5q0 -34 -23 -58t-57 -24zM145 -512l-79 80q46 55 62.5 95t16.5 108v1151h121v-1108q0 -113 -26.5 -181.5t-94.5 -144.5z" />
    <glyph glyph-name="k" unicode="k" horiz-adv-x="962" 
d="M150 0v1536h120v-1057l318 320h170l-338 -336l459 -461h-170l-375 373l-64 -62v-313h-120z" />
    <glyph glyph-name="l" unicode="l" horiz-adv-x="419" 
d="M150 0v1536h120v-1536h-120z" />
    <glyph glyph-name="m" unicode="m" horiz-adv-x="1585" 
d="M1104 819q138 0 243 -101t105 -255v-463h-121v440q0 116 -64 188t-169 72q-99 0 -166.5 -71t-67.5 -166v-463h-121v440q0 116 -65.5 188t-173.5 72q-99 0 -166.5 -71t-67.5 -166v-463h-120v799h120v-72q98 92 240 92q87 0 164.5 -40.5t126.5 -112.5q121 153 303 153z" />
    <glyph glyph-name="n" unicode="n" 
d="M150 0v799h120v-72q98 92 240 92q141 0 247.5 -101t106.5 -255v-463h-121v440q0 116 -65.5 188t-173.5 72q-99 0 -166.5 -71t-67.5 -166v-463h-120z" />
    <glyph glyph-name="o" unicode="o" horiz-adv-x="985" 
d="M494 0q-170 0 -290 120.5t-120 289.5t120 289t290 120q169 0 288 -120t119 -289t-119.5 -289.5t-287.5 -120.5zM498 117q119 0 203.5 85.5t84.5 205.5q0 121 -84.5 206.5t-203.5 85.5q-123 0 -209 -85t-86 -207q0 -120 86 -205.5t209 -85.5z" />
    <glyph glyph-name="p" unicode="p" horiz-adv-x="1056" 
d="M150 -707v1506h120v-105q119 125 293 125q170 0 290 -120t120 -289t-120 -289.5t-290 -120.5q-174 0 -293 125v-832h-120zM559 117q123 0 209 85.5t86 205.5q0 122 -86 207t-209 85q-119 0 -204 -85.5t-85 -206.5q0 -120 85 -205.5t204 -85.5z" />
    <glyph glyph-name="q" unicode="q" horiz-adv-x="1024" 
d="M786 -707v832q-119 -125 -292 -125q-170 0 -290 120.5t-120 289.5t120 289t290 120q173 0 292 -125v105h121v-1506h-121zM498 117q119 0 203.5 85.5t84.5 205.5q0 121 -84.5 206.5t-203.5 85.5q-123 0 -209 -85t-86 -207q0 -120 86 -205.5t209 -85.5z" />
    <glyph glyph-name="r" unicode="r" horiz-adv-x="612" 
d="M150 0v799h120v-101q61 64 140 92.5t153 28.5v-119q-131 0 -212 -88t-81 -200v-412h-120z" />
    <glyph glyph-name="s" unicode="s" horiz-adv-x="712" 
d="M358 0q-119 0 -196.5 70.5t-77.5 162.5h119q0 -49 43.5 -85.5t107.5 -36.5q65 0 110.5 35.5t45.5 91.5q0 51 -47.5 84.5t-104.5 33.5q-113 0 -193.5 68t-80.5 158q0 104 81.5 170.5t201.5 66.5q41 0 85 -14t84.5 -41t66.5 -73t26 -103h-119q0 55 -46 90t-106 35
q-63 0 -109 -35.5t-46 -89.5q0 -52 45.5 -88.5t118.5 -36.5q101 0 181.5 -65t80.5 -160q0 -102 -82.5 -170t-188.5 -68z" />
    <glyph glyph-name="t" unicode="t" horiz-adv-x="614" 
d="M498 678h-164v-346q0 -93 17.5 -144.5t66.5 -105.5l-84 -82q-70 79 -95.5 143.5t-25.5 161.5v373h-164v121h164v327h121v-327h164v-121z" />
    <glyph glyph-name="u" unicode="u" 
d="M487 0q-141 0 -247.5 101t-106.5 255v443h121v-437q0 -105 66.5 -174t173.5 -69q99 0 166 71t67 166v443h121v-799h-121v92q-98 -92 -240 -92z" />
    <glyph glyph-name="v" unicode="v" horiz-adv-x="843" 
d="M399 0l-374 799h133l264 -563l260 563h137l-373 -799h-47z" />
    <glyph glyph-name="w" unicode="w" horiz-adv-x="1429" 
d="M399 0l-374 799h133l264 -563l256 563h70l262 -563l258 563h137l-373 -799h-43l-274 584l-273 -584h-43z" />
    <glyph glyph-name="x" unicode="x" horiz-adv-x="770" 
d="M737 799l-278 -402l276 -397h-147l-203 293l-205 -293h-147l278 397l-278 402h145l207 -297l207 297h145z" />
    <glyph glyph-name="y" unicode="y" 
d="M432 -702v118h4q122 0 206.5 84t84.5 205v387q-98 -92 -240 -92q-141 0 -247.5 101t-106.5 255v443h121v-437q0 -105 66.5 -174t173.5 -69q99 0 166 71t67 166v443h121v-1092q0 -167 -117.5 -288t-275.5 -121h-23z" />
    <glyph glyph-name="z" unicode="z" horiz-adv-x="870" 
d="M84 0l475 678h-475v121h702l-475 -678h475v-121h-702z" />
    <glyph glyph-name="exclamdown" unicode="&#xa1;" horiz-adv-x="364" 
d="M182 1536q34 0 57 -24t23 -58q0 -33 -23.5 -56.5t-56.5 -23.5t-56.5 23.5t-23.5 56.5q0 34 23 58t57 24zM244 1292v-1292h-121v1292h121z" />
    <glyph glyph-name="dieresis" unicode="&#xa8;" horiz-adv-x="548" 
d="M113 1704q-34 0 -57 23t-23 57t23 57t57 23t57 -23t23 -57t-23 -57t-57 -23zM436 1704q-34 0 -57 23t-23 57t23 57t57 23t57 -23t23 -57t-23 -57t-57 -23z" />
    <glyph glyph-name="macron" unicode="&#xaf;" horiz-adv-x="708" 
d="M33 1651v125h643v-125h-643z" />
    <glyph glyph-name="acute" unicode="&#xb4;" horiz-adv-x="364" 
d="M33 1698l170 362h129l-166 -362h-133z" />
    <glyph glyph-name="cedilla" unicode="&#xb8;" horiz-adv-x="366" 
d="M33 -356l182 366l119 -8l-168 -358h-133z" />
    <glyph glyph-name="questiondown" unicode="&#xbf;" horiz-adv-x="903" 
d="M451 1374q-33 0 -56.5 23.5t-23.5 56.5q0 34 23 58t57 24q33 0 56 -24t23 -58q0 -33 -23 -56.5t-56 -23.5zM446 0q-162 0 -279.5 117.5t-117.5 283.5q0 153 99 266.5t243 135.5v491h121v-608h-63q-117 0 -198 -82t-81 -201t80.5 -199.5t198.5 -80.5t202 80.5t84 199.5
h119q0 -110 -56.5 -203.5t-150.5 -146.5t-201 -53z" />
    <glyph glyph-name="Agrave" unicode="&#xc0;" horiz-adv-x="1650" 
d="M905 1698h-133l-166 362h129zM1434 0l-193 412h-835l-193 -412h-131l717 1536h47l723 -1536h-135zM463 532h721l-361 773z" />
    <glyph glyph-name="Aacute" unicode="&#xc1;" horiz-adv-x="1650" 
d="M1057 2060l-166 -362h-133l170 362h129zM1434 0l-193 412h-835l-193 -412h-131l717 1536h47l723 -1536h-135zM463 532h721l-361 773z" />
    <glyph glyph-name="Acircumflex" unicode="&#xc2;" horiz-adv-x="1650" 
d="M831 1829l-63 -129h-133l172 362h49l170 -362h-133zM1434 0l-193 412h-835l-193 -412h-131l717 1536h47l723 -1536h-135zM463 532h721l-361 773z" />
    <glyph glyph-name="Atilde" unicode="&#xc3;" horiz-adv-x="1650" 
d="M698 1786q-39 0 -60.5 -26.5t-21.5 -53.5h-120q0 74 54 137.5t152 63.5q39 0 141.5 -39t127.5 -39q36 0 56 27t20 53h122q0 -84 -59.5 -143.5t-146.5 -59.5q-39 0 -141 40t-124 40zM1434 0l-193 412h-835l-193 -412h-131l717 1536h47l723 -1536h-135zM463 532h721
l-361 773z" />
    <glyph glyph-name="Adieresis" unicode="&#xc4;" horiz-adv-x="1650" 
d="M668 1704q-34 0 -57 23t-23 57t23 57t57 23t57 -23t23 -57t-23 -57t-57 -23zM991 1704q-34 0 -57 23t-23 57t23 57t57 23t57 -23t23 -57t-23 -57t-57 -23zM1434 0l-193 412h-835l-193 -412h-131l717 1536h47l723 -1536h-135zM463 532h721l-361 773z" />
    <glyph glyph-name="Aring" unicode="&#xc5;" horiz-adv-x="1650" 
d="M831 1567q-91 0 -154 63t-63 154t63 153t154 62q89 0 153.5 -62.5t64.5 -152.5t-64.5 -153.5t-153.5 -63.5zM831 1874q-38 0 -65 -27.5t-27 -64.5t27 -63.5t65 -26.5t64.5 26.5t26.5 63.5t-26.5 64.5t-64.5 27.5zM1434 0l-193 412h-835l-193 -412h-131l717 1536h47
l723 -1536h-135zM463 532h721l-361 773z" />
    <glyph glyph-name="AE" unicode="&#xc6;" horiz-adv-x="2058" 
d="M82 0l874 1536h969v-121h-831v-569h768v-121h-768v-604h831v-121h-952v412h-518l-242 -412h-131zM526 532h447v758z" />
    <glyph glyph-name="Ccedilla" unicode="&#xc7;" horiz-adv-x="1591" 
d="M1458 223q-95 -95 -218 -152t-263 -69h10l-168 -358h-133l178 358q-148 9 -281.5 73t-230 166t-153 239.5t-56.5 287.5q0 209 103 385.5t279.5 279.5t385.5 103q156 0 296.5 -59.5t246.5 -165.5l-84 -90q-90 90 -208 140t-249 50q-175 0 -323 -86t-234 -234t-86 -323
t86 -324t234 -236t323 -87q271 0 457 186z" />
    <glyph glyph-name="Egrave" unicode="&#xc8;" horiz-adv-x="1331" 
d="M723 1698l-166 362h129l170 -362h-133zM246 0v1536h952v-121h-831v-569h768v-121h-768v-604h831v-121h-952z" />
    <glyph glyph-name="Eacute" unicode="&#xc9;" horiz-adv-x="1331" 
d="M709 1698l170 362h129l-166 -362h-133zM246 0v1536h952v-121h-831v-569h768v-121h-768v-604h831v-121h-952z" />
    <glyph glyph-name="Ecircumflex" unicode="&#xca;" horiz-adv-x="1331" 
d="M586 1700l172 362h49l170 -362h-133l-62 129l-63 -129h-133zM246 0v1536h952v-121h-831v-569h768v-121h-768v-604h831v-121h-952z" />
    <glyph glyph-name="Edieresis" unicode="&#xcb;" horiz-adv-x="1331" 
d="M618 1704q-34 0 -56.5 23t-22.5 57t22.5 57t56.5 23t57 -23t23 -57t-23 -57t-57 -23zM942 1704q-34 0 -57 23t-23 57t23 57t57 23t57 -23t23 -57t-23 -57t-57 -23zM246 0v1536h952v-121h-831v-569h768v-121h-768v-604h831v-121h-952z" />
    <glyph glyph-name="Igrave" unicode="&#xcc;" horiz-adv-x="550" 
d="M213 1698l-166 362h129l170 -362h-133zM215 0v1536h121v-1536h-121z" />
    <glyph glyph-name="Iacute" unicode="&#xcd;" horiz-adv-x="550" 
d="M199 1698l170 362h129l-166 -362h-133zM215 0v1536h121v-1536h-121z" />
    <glyph glyph-name="Icircumflex" unicode="&#xce;" horiz-adv-x="550" 
d="M76 1700l172 362h49l170 -362h-133l-62 129l-63 -129h-133zM215 0v1536h121v-1536h-121z" />
    <glyph glyph-name="Idieresis" unicode="&#xcf;" horiz-adv-x="550" 
d="M109 1704q-34 0 -57 23t-23 57t23 57t57 23t56.5 -23t22.5 -57t-22.5 -57t-56.5 -23zM432 1704q-34 0 -57 23t-23 57t23 57t57 23t57 -23t23 -57t-23 -57t-57 -23zM215 0v1536h121v-1536h-121z" />
    <glyph glyph-name="Eth" unicode="&#xd0;" horiz-adv-x="1992" 
d="M1092 1536q154 -1 294 -62.5t241.5 -164t161.5 -244.5t60 -297t-60 -297t-161.5 -244.5t-241.5 -164t-294 -62.5h-582v707h-260v120h260v709h582zM1092 121q129 1 247 52.5t203.5 138.5t136 206.5t50.5 249.5t-50.5 249.5t-136 206.5t-203.5 138.5t-247 52.5h-461v-588
h262v-120h-262v-586h461z" />
    <glyph glyph-name="Ntilde" unicode="&#xd1;" horiz-adv-x="1683" 
d="M522 1706q0 73 54.5 137t152.5 64q39 0 141 -39t127 -39q36 0 56 27t20 53h123q0 -84 -60 -143.5t-147 -59.5q-39 0 -140.5 40t-123.5 40q-39 0 -60.5 -26.5t-21.5 -53.5h-121zM199 0v1536h98l1067 -1346v1346h121v-1536h-121l-1045 1317v-1317h-120z" />
    <glyph glyph-name="Ograve" unicode="&#xd2;" horiz-adv-x="1820" 
d="M854 1698l-166 362h129l170 -362h-133zM1677 768q0 -156 -61 -298.5t-163.5 -245t-244.5 -163.5t-297 -61q-209 0 -385.5 103t-279.5 279.5t-103 385.5t103 385.5t279.5 279.5t385.5 103q155 0 297 -61t244.5 -163.5t163.5 -245t61 -298.5zM1556 768q0 175 -87 323
t-235 234t-321 86q-175 0 -323 -86t-234 -234t-86 -323t86 -323.5t234 -235t323 -86.5q130 0 248.5 51t205 137.5t138 206t51.5 250.5z" />
    <glyph glyph-name="Oacute" unicode="&#xd3;" horiz-adv-x="1820" 
d="M840 1698l170 362h129l-166 -362h-133zM1677 768q0 -156 -61 -298.5t-163.5 -245t-244.5 -163.5t-297 -61q-209 0 -385.5 103t-279.5 279.5t-103 385.5t103 385.5t279.5 279.5t385.5 103q155 0 297 -61t244.5 -163.5t163.5 -245t61 -298.5zM1556 768q0 175 -87 323
t-235 234t-321 86q-175 0 -323 -86t-234 -234t-86 -323t86 -323.5t234 -235t323 -86.5q130 0 248.5 51t205 137.5t138 206t51.5 250.5z" />
    <glyph glyph-name="Ocircumflex" unicode="&#xd4;" horiz-adv-x="1820" 
d="M717 1700l172 362h49l170 -362h-133l-62 129l-63 -129h-133zM1677 768q0 -156 -61 -298.5t-163.5 -245t-244.5 -163.5t-297 -61q-209 0 -385.5 103t-279.5 279.5t-103 385.5t103 385.5t279.5 279.5t385.5 103q155 0 297 -61t244.5 -163.5t163.5 -245t61 -298.5zM1556 768
q0 175 -87 323t-235 234t-321 86q-175 0 -323 -86t-234 -234t-86 -323t86 -323.5t234 -235t323 -86.5q130 0 248.5 51t205 137.5t138 206t51.5 250.5z" />
    <glyph glyph-name="Otilde" unicode="&#xd5;" horiz-adv-x="1820" 
d="M578 1706q0 74 54 137.5t152 63.5q39 0 141.5 -39t127.5 -39q36 0 55.5 27t19.5 53h123q0 -84 -60 -143.5t-147 -59.5q-39 0 -140.5 40t-123.5 40q-39 0 -60.5 -26.5t-21.5 -53.5h-120zM1677 768q0 -156 -61 -298.5t-163.5 -245t-244.5 -163.5t-297 -61
q-209 0 -385.5 103t-279.5 279.5t-103 385.5t103 385.5t279.5 279.5t385.5 103q155 0 297 -61t244.5 -163.5t163.5 -245t61 -298.5zM1556 768q0 175 -87 323t-235 234t-321 86q-175 0 -323 -86t-234 -234t-86 -323t86 -323.5t234 -235t323 -86.5q130 0 248.5 51t205 137.5
t138 206t51.5 250.5z" />
    <glyph glyph-name="Odieresis" unicode="&#xd6;" horiz-adv-x="1820" 
d="M750 1704q-34 0 -57 23t-23 57t23 57t57 23t56.5 -23t22.5 -57t-22.5 -57t-56.5 -23zM1073 1704q-34 0 -57 23t-23 57t23 57t57 23t57 -23t23 -57t-23 -57t-57 -23zM1677 768q0 -156 -61 -298.5t-163.5 -245t-244.5 -163.5t-297 -61q-209 0 -385.5 103t-279.5 279.5
t-103 385.5t103 385.5t279.5 279.5t385.5 103q155 0 297 -61t244.5 -163.5t163.5 -245t61 -298.5zM1556 768q0 175 -87 323t-235 234t-321 86q-175 0 -323 -86t-234 -234t-86 -323t86 -323.5t234 -235t323 -86.5q130 0 248.5 51t205 137.5t138 206t51.5 250.5z" />
    <glyph glyph-name="Oslash" unicode="&#xd8;" horiz-adv-x="1845" 
d="M1702 1487l-213 -213q190 -216 190 -506q0 -156 -61 -298.5t-163.5 -245t-244.5 -163.5t-297 -61q-286 0 -503 188l-189 -188l-78 72l191 192q-90 104 -139.5 233t-49.5 271q0 209 103 385.5t279.5 279.5t385.5 103q285 0 500 -186l211 213zM272 768q0 -232 150 -416
l903 910q-176 149 -410 149q-175 0 -323 -86t-234 -234t-86 -323zM1559 768q0 118 -41 225.5t-115 192.5l-905 -910q180 -153 417 -153q173 0 321.5 86.5t235.5 235t87 323.5z" />
    <glyph glyph-name="Ugrave" unicode="&#xd9;" horiz-adv-x="1476" 
d="M690 1698l-166 362h129l170 -362h-133zM748 0q-119 0 -230.5 44.5t-196.5 123.5t-136.5 195.5t-51.5 250.5v922h121v-922q0 -108 40.5 -201t108.5 -156t158 -98.5t189 -35.5q119 0 226.5 60t177 174.5t69.5 256.5v922h120v-922q0 -134 -52.5 -251t-137 -195t-190.5 -123
t-215 -45z" />
    <glyph glyph-name="Uacute" unicode="&#xda;" horiz-adv-x="1476" 
d="M676 1698l170 362h129l-166 -362h-133zM748 0q-119 0 -230.5 44.5t-196.5 123.5t-136.5 195.5t-51.5 250.5v922h121v-922q0 -108 40.5 -201t108.5 -156t158 -98.5t189 -35.5q119 0 226.5 60t177 174.5t69.5 256.5v922h120v-922q0 -134 -52.5 -251t-137 -195t-190.5 -123
t-215 -45z" />
    <glyph glyph-name="Ucircumflex" unicode="&#xdb;" horiz-adv-x="1476" 
d="M553 1700l172 362h49l170 -362h-133l-61 129l-64 -129h-133zM748 0q-119 0 -230.5 44.5t-196.5 123.5t-136.5 195.5t-51.5 250.5v922h121v-922q0 -108 40.5 -201t108.5 -156t158 -98.5t189 -35.5q119 0 226.5 60t177 174.5t69.5 256.5v922h120v-922q0 -134 -52.5 -251
t-137 -195t-190.5 -123t-215 -45z" />
    <glyph glyph-name="Udieresis" unicode="&#xdc;" horiz-adv-x="1476" 
d="M586 1704q-34 0 -57 23t-23 57t23 57t57 23t57 -23t23 -57t-23 -57t-57 -23zM909 1704q-34 0 -57 23t-23 57t23 57t57 23t57 -23t23 -57t-23 -57t-57 -23zM748 0q-119 0 -230.5 44.5t-196.5 123.5t-136.5 195.5t-51.5 250.5v922h121v-922q0 -108 40.5 -201t108.5 -156
t158 -98.5t189 -35.5q119 0 226.5 60t177 174.5t69.5 256.5v922h120v-922q0 -134 -52.5 -251t-137 -195t-190.5 -123t-215 -45z" />
    <glyph glyph-name="Yacute" unicode="&#xdd;" horiz-adv-x="1296" 
d="M567 1698l170 362h129l-166 -362h-133zM586 0v635l-520 901h141l442 -766l441 766h141l-524 -901v-635h-121z" />
    <glyph glyph-name="agrave" unicode="&#xe0;" horiz-adv-x="1040" 
d="M571 1012h-133l-166 362h129zM786 799h121v-799h-121v125q-119 -125 -292 -125q-170 0 -290 120.5t-120 289.5t120 289t290 120q173 0 292 -125v105zM498 117q119 0 203.5 85.5t84.5 205.5q0 121 -84.5 206.5t-203.5 85.5q-123 0 -209 -85t-86 -207q0 -120 86 -205.5
t209 -85.5z" />
    <glyph glyph-name="aacute" unicode="&#xe1;" horiz-adv-x="1040" 
d="M723 1374l-166 -362h-133l170 362h129zM786 799h121v-799h-121v125q-119 -125 -292 -125q-170 0 -290 120.5t-120 289.5t120 289t290 120q173 0 292 -125v105zM498 117q119 0 203.5 85.5t84.5 205.5q0 121 -84.5 206.5t-203.5 85.5q-123 0 -209 -85t-86 -207
q0 -120 86 -205.5t209 -85.5z" />
    <glyph glyph-name="acircumflex" unicode="&#xe2;" horiz-adv-x="1040" 
d="M498 1143l-64 -129h-133l172 362h49l170 -362h-133zM786 799h121v-799h-121v125q-119 -125 -292 -125q-170 0 -290 120.5t-120 289.5t120 289t290 120q173 0 292 -125v105zM498 117q119 0 203.5 85.5t84.5 205.5q0 121 -84.5 206.5t-203.5 85.5q-123 0 -209 -85t-86 -207
q0 -120 86 -205.5t209 -85.5z" />
    <glyph glyph-name="atilde" unicode="&#xe3;" horiz-adv-x="1040" 
d="M365 1100q-39 0 -60.5 -26.5t-21.5 -53.5h-121q0 73 54.5 137t152.5 64q39 0 141 -39t127 -39q36 0 56 27t20 53h123q0 -84 -60 -143.5t-147 -59.5q-39 0 -140.5 40t-123.5 40zM786 799h121v-799h-121v125q-119 -125 -292 -125q-170 0 -290 120.5t-120 289.5t120 289
t290 120q173 0 292 -125v105zM498 117q119 0 203.5 85.5t84.5 205.5q0 121 -84.5 206.5t-203.5 85.5q-123 0 -209 -85t-86 -207q0 -120 86 -205.5t209 -85.5z" />
    <glyph glyph-name="adieresis" unicode="&#xe4;" horiz-adv-x="1040" 
d="M334 1018q-34 0 -57 23t-23 57t23 57t57 23t57 -23t23 -57t-23 -57t-57 -23zM657 1018q-34 0 -56.5 23t-22.5 57t22.5 57t56.5 23t57 -23t23 -57t-23 -57t-57 -23zM786 799h121v-799h-121v125q-119 -125 -292 -125q-170 0 -290 120.5t-120 289.5t120 289t290 120
q173 0 292 -125v105zM498 117q119 0 203.5 85.5t84.5 205.5q0 121 -84.5 206.5t-203.5 85.5q-123 0 -209 -85t-86 -207q0 -120 86 -205.5t209 -85.5z" />
    <glyph glyph-name="aring" unicode="&#xe5;" horiz-adv-x="1040" 
d="M498 881q-91 0 -154 63t-63 154t63 153t154 62q89 0 153 -62.5t64 -152.5t-64.5 -153.5t-152.5 -63.5zM498 1188q-38 0 -65 -27.5t-27 -64.5t27 -63.5t65 -26.5t64 26.5t26 63.5t-26 64.5t-64 27.5zM786 799h121v-799h-121v125q-119 -125 -292 -125q-170 0 -290 120.5
t-120 289.5t120 289t290 120q173 0 292 -125v105zM498 117q119 0 203.5 85.5t84.5 205.5q0 121 -84.5 206.5t-203.5 85.5q-123 0 -209 -85t-86 -207q0 -120 86 -205.5t209 -85.5z" />
    <glyph glyph-name="ae" unicode="&#xe6;" horiz-adv-x="1677" 
d="M494 0q-170 0 -290 120.5t-120 289.5t120 289t290 120q173 0 292 -125v105h121v-107q57 60 134 93.5t163 33.5q169 0 288.5 -120t119.5 -289q0 -22 -4 -54h-690q19 -102 99.5 -169.5t188.5 -67.5q120 0 203 86l84 -84q-121 -121 -289 -121q-86 0 -163 33.5t-134 93.5
v-127h-121v125q-119 -125 -292 -125zM498 117q119 0 203.5 85.5t84.5 205.5q0 121 -84.5 206.5t-203.5 85.5q-123 0 -209 -85t-86 -207q0 -120 86 -205.5t209 -85.5zM922 475h567q-23 98 -102 161.5t-179 63.5q-103 0 -182.5 -63.5t-103.5 -161.5z" />
    <glyph glyph-name="ccedilla" unicode="&#xe7;" horiz-adv-x="841" 
d="M692 203l82 -80q-102 -102 -242 -119l19 -2l-168 -358h-133l178 358q-143 21 -243.5 137t-100.5 271q0 169 120 289t290 120q153 0 282 -123l-86 -80q-87 84 -192 84q-123 0 -209 -85t-86 -207q0 -120 84.5 -204.5t206.5 -84.5q51 0 104.5 23t93.5 61z" />
    <glyph glyph-name="egrave" unicode="&#xe8;" horiz-adv-x="966" 
d="M434 1014l-166 362h129l170 -362h-133zM494 0q-170 0 -290 120.5t-120 289.5t120 289t290 120q169 0 288 -120t119 -289q0 -22 -4 -54h-690q19 -102 100 -169.5t189 -67.5q119 0 202 86l84 -84q-121 -121 -288 -121zM211 475h567q-23 98 -101.5 161.5t-178.5 63.5
q-103 0 -183.5 -63.5t-103.5 -161.5z" />
    <glyph glyph-name="eacute" unicode="&#xe9;" horiz-adv-x="966" 
d="M420 1014l170 362h129l-166 -362h-133zM494 0q-170 0 -290 120.5t-120 289.5t120 289t290 120q169 0 288 -120t119 -289q0 -22 -4 -54h-690q19 -102 100 -169.5t189 -67.5q119 0 202 86l84 -84q-121 -121 -288 -121zM211 475h567q-23 98 -101.5 161.5t-178.5 63.5
q-103 0 -183.5 -63.5t-103.5 -161.5z" />
    <glyph glyph-name="ecircumflex" unicode="&#xea;" horiz-adv-x="966" 
d="M297 1016l172 362h49l170 -362h-133l-61 129l-64 -129h-133zM494 0q-170 0 -290 120.5t-120 289.5t120 289t290 120q169 0 288 -120t119 -289q0 -22 -4 -54h-690q19 -102 100 -169.5t189 -67.5q119 0 202 86l84 -84q-121 -121 -288 -121zM211 475h567
q-23 98 -101.5 161.5t-178.5 63.5q-103 0 -183.5 -63.5t-103.5 -161.5z" />
    <glyph glyph-name="edieresis" unicode="&#xeb;" horiz-adv-x="966" 
d="M330 1020q-34 0 -57 23t-23 57t23 57t57 23t57 -23t23 -57t-23 -57t-57 -23zM653 1020q-34 0 -57 23t-23 57t23 57t57 23t57 -23t23 -57t-23 -57t-57 -23zM494 0q-170 0 -290 120.5t-120 289.5t120 289t290 120q169 0 288 -120t119 -289q0 -22 -4 -54h-690
q19 -102 100 -169.5t189 -67.5q119 0 202 86l84 -84q-121 -121 -288 -121zM211 475h567q-23 98 -101.5 161.5t-178.5 63.5q-103 0 -183.5 -63.5t-103.5 -161.5z" />
    <glyph glyph-name="igrave" unicode="&#xec;" horiz-adv-x="419" 
d="M154 1014l-166 362h129l170 -362h-133zM150 0v799h120v-799h-120z" />
    <glyph glyph-name="iacute" unicode="&#xed;" horiz-adv-x="419" 
d="M139 1014l170 362h129l-166 -362h-133zM150 0v799h120v-799h-120z" />
    <glyph glyph-name="icircumflex" unicode="&#xee;" horiz-adv-x="419" 
d="M16 1016l172 362h50l170 -362h-134l-61 129l-63 -129h-134zM150 0v799h120v-799h-120z" />
    <glyph glyph-name="idieresis" unicode="&#xef;" horiz-adv-x="419" 
d="M49 1020q-34 0 -57 23t-23 57t23 57t57 23t57 -23t23 -57t-23 -57t-57 -23zM373 1020q-34 0 -57 23t-23 57t23 57t57 23t57 -23t23 -57t-23 -57t-57 -23zM150 0v799h120v-799h-120z" />
    <glyph glyph-name="ntilde" unicode="&#xf1;" 
d="M174 1022q0 73 54.5 137t152.5 64q39 0 141 -39t127 -39q36 0 56 27t20 53h123q0 -84 -60 -143.5t-147 -59.5q-39 0 -140.5 40t-123.5 40q-39 0 -60.5 -26.5t-21.5 -53.5h-121zM150 0v799h120v-72q98 92 240 92q141 0 247.5 -101t106.5 -255v-463h-121v440
q0 116 -65.5 188t-173.5 72q-99 0 -166.5 -71t-67.5 -166v-463h-120z" />
    <glyph glyph-name="ograve" unicode="&#xf2;" horiz-adv-x="985" 
d="M434 1014l-166 362h129l170 -362h-133zM494 0q-170 0 -290 120.5t-120 289.5t120 289t290 120q169 0 288 -120t119 -289t-119.5 -289.5t-287.5 -120.5zM498 117q119 0 203.5 85.5t84.5 205.5q0 121 -84.5 206.5t-203.5 85.5q-123 0 -209 -85t-86 -207q0 -120 86 -205.5
t209 -85.5z" />
    <glyph glyph-name="oacute" unicode="&#xf3;" horiz-adv-x="985" 
d="M420 1014l170 362h129l-166 -362h-133zM494 0q-170 0 -290 120.5t-120 289.5t120 289t290 120q169 0 288 -120t119 -289t-119.5 -289.5t-287.5 -120.5zM498 117q119 0 203.5 85.5t84.5 205.5q0 121 -84.5 206.5t-203.5 85.5q-123 0 -209 -85t-86 -207q0 -120 86 -205.5
t209 -85.5z" />
    <glyph glyph-name="ocircumflex" unicode="&#xf4;" horiz-adv-x="985" 
d="M297 1016l172 362h49l170 -362h-133l-61 129l-64 -129h-133zM494 0q-170 0 -290 120.5t-120 289.5t120 289t290 120q169 0 288 -120t119 -289t-119.5 -289.5t-287.5 -120.5zM498 117q119 0 203.5 85.5t84.5 205.5q0 121 -84.5 206.5t-203.5 85.5q-123 0 -209 -85
t-86 -207q0 -120 86 -205.5t209 -85.5z" />
    <glyph glyph-name="otilde" unicode="&#xf5;" horiz-adv-x="985" 
d="M158 1022q0 73 54.5 137t152.5 64q39 0 141 -39t127 -39q36 0 56 27t20 53h122q0 -84 -59.5 -143.5t-146.5 -59.5q-39 0 -141 40t-124 40q-39 0 -60 -26.5t-21 -53.5h-121zM494 0q-170 0 -290 120.5t-120 289.5t120 289t290 120q169 0 288 -120t119 -289t-119.5 -289.5
t-287.5 -120.5zM498 117q119 0 203.5 85.5t84.5 205.5q0 121 -84.5 206.5t-203.5 85.5q-123 0 -209 -85t-86 -207q0 -120 86 -205.5t209 -85.5z" />
    <glyph glyph-name="odieresis" unicode="&#xf6;" horiz-adv-x="985" 
d="M330 1020q-34 0 -57 23t-23 57t23 57t57 23t57 -23t23 -57t-23 -57t-57 -23zM653 1020q-34 0 -57 23t-23 57t23 57t57 23t57 -23t23 -57t-23 -57t-57 -23zM494 0q-170 0 -290 120.5t-120 289.5t120 289t290 120q169 0 288 -120t119 -289t-119.5 -289.5t-287.5 -120.5z
M498 117q119 0 203.5 85.5t84.5 205.5q0 121 -84.5 206.5t-203.5 85.5q-123 0 -209 -85t-86 -207q0 -120 86 -205.5t209 -85.5z" />
    <glyph glyph-name="oslash" unicode="&#xf8;" horiz-adv-x="1114" 
d="M1030 807l-151 -152q82 -113 82 -245q0 -169 -119.5 -289.5t-288.5 -120.5q-133 0 -246 82l-145 -148l-78 72l147 150q-88 112 -88 254q0 169 120 289t290 120q140 0 250 -86l149 150zM262 408q0 -93 53 -168l406 409q-73 51 -164 51q-123 0 -209 -85t-86 -207zM846 408
q0 89 -49 163l-404 -405q74 -49 164 -49q119 0 204 85.5t85 205.5z" />
    <glyph glyph-name="ugrave" unicode="&#xf9;" 
d="M434 1014l-166 362h129l170 -362h-133zM487 0q-141 0 -247.5 101t-106.5 255v443h121v-437q0 -105 66.5 -174t173.5 -69q99 0 166 71t67 166v443h121v-799h-121v92q-98 -92 -240 -92z" />
    <glyph glyph-name="uacute" unicode="&#xfa;" 
d="M420 1014l170 362h129l-166 -362h-133zM487 0q-141 0 -247.5 101t-106.5 255v443h121v-437q0 -105 66.5 -174t173.5 -69q99 0 166 71t67 166v443h121v-799h-121v92q-98 -92 -240 -92z" />
    <glyph glyph-name="ucircumflex" unicode="&#xfb;" 
d="M297 1016l172 362h49l170 -362h-133l-61 129l-64 -129h-133zM487 0q-141 0 -247.5 101t-106.5 255v443h121v-437q0 -105 66.5 -174t173.5 -69q99 0 166 71t67 166v443h121v-799h-121v92q-98 -92 -240 -92z" />
    <glyph glyph-name="udieresis" unicode="&#xfc;" 
d="M330 1020q-34 0 -57 23t-23 57t23 57t57 23t57 -23t23 -57t-23 -57t-57 -23zM653 1020q-34 0 -57 23t-23 57t23 57t57 23t57 -23t23 -57t-23 -57t-57 -23zM487 0q-141 0 -247.5 101t-106.5 255v443h121v-437q0 -105 66.5 -174t173.5 -69q99 0 166 71t67 166v443h121v-799
h-121v92q-98 -92 -240 -92z" />
    <glyph glyph-name="yacute" unicode="&#xfd;" 
d="M414 1014l170 362h129l-166 -362h-133zM432 -702v118h4q122 0 206.5 84t84.5 205v387q-98 -92 -240 -92q-141 0 -247.5 101t-106.5 255v443h121v-437q0 -105 66.5 -174t173.5 -69q99 0 166 71t67 166v443h121v-1092q0 -167 -117.5 -288t-275.5 -121h-23z" />
    <glyph glyph-name="thorn" unicode="&#xfe;" horiz-adv-x="1155" 
d="M123 -707v1831h121v-430q119 125 293 125q170 0 289.5 -120t119.5 -289t-119.5 -289.5t-289.5 -120.5q-174 0 -293 125v-832h-121zM532 117q123 0 209 85.5t86 205.5q0 122 -86 207t-209 85q-119 0 -203.5 -85.5t-84.5 -206.5q0 -120 84.5 -205.5t203.5 -85.5z" />
    <glyph glyph-name="ydieresis" unicode="&#xff;" 
d="M324 1020q-34 0 -57 23t-23 57t23 57t57 23t56.5 -23t22.5 -57t-22.5 -57t-56.5 -23zM647 1020q-34 0 -57 23t-23 57t23 57t57 23t57 -23t23 -57t-23 -57t-57 -23zM432 -702v118h4q122 0 206.5 84t84.5 205v387q-98 -92 -240 -92q-141 0 -247.5 101t-106.5 255v443h121
v-437q0 -105 66.5 -174t173.5 -69q99 0 166 71t67 166v443h121v-1092q0 -167 -117.5 -288t-275.5 -121h-23z" />
    <glyph glyph-name="Amacron" unicode="&#x100;" horiz-adv-x="1650" 
d="M1155 1776v-125h-643v125h643zM1434 0l-193 412h-835l-193 -412h-131l717 1536h47l723 -1536h-135zM463 532h721l-361 773z" />
    <glyph glyph-name="amacron" unicode="&#x101;" horiz-adv-x="1040" 
d="M821 1090v-125h-643v125h643zM786 799h121v-799h-121v125q-119 -125 -292 -125q-170 0 -290 120.5t-120 289.5t120 289t290 120q173 0 292 -125v105zM498 117q119 0 203.5 85.5t84.5 205.5q0 121 -84.5 206.5t-203.5 85.5q-123 0 -209 -85t-86 -207q0 -120 86 -205.5
t209 -85.5z" />
    <glyph glyph-name="Abreve" unicode="&#x102;" horiz-adv-x="1650" 
d="M831 1653q-57 0 -113 21t-104 60t-78 103t-30 141h121q0 -95 62 -148.5t140 -53.5q76 0 138.5 54t62.5 148h123q0 -63 -20.5 -117t-53.5 -91.5t-75.5 -64.5t-86.5 -39.5t-86 -12.5zM1434 0l-193 412h-835l-193 -412h-131l717 1536h47l723 -1536h-135zM463 532h721
l-361 773z" />
    <glyph glyph-name="abreve" unicode="&#x103;" horiz-adv-x="1040" 
d="M498 967q-57 0 -113.5 21t-104.5 60t-78 103t-30 141h121q0 -95 62.5 -148.5t140.5 -53.5q76 0 138 54t62 148h123q0 -78 -30.5 -142t-79 -102.5t-103.5 -59.5t-108 -21zM786 799h121v-799h-121v125q-119 -125 -292 -125q-170 0 -290 120.5t-120 289.5t120 289t290 120
q173 0 292 -125v105zM498 117q119 0 203.5 85.5t84.5 205.5q0 121 -84.5 206.5t-203.5 85.5q-123 0 -209 -85t-86 -207q0 -120 86 -205.5t209 -85.5z" />
    <glyph glyph-name="Aogonek" unicode="&#x104;" horiz-adv-x="1650" 
d="M846 1536l723 -1536h-8l-19 -8q-79 -35 -37 -129l31 -64l-111 -51l-45 100q-21 42 -12 98.5t45 98.5l-172 367h-835l-193 -412h-131l717 1536h47zM463 532h721l-361 773z" />
    <glyph glyph-name="aogonek" unicode="&#x105;" horiz-adv-x="1040" 
d="M786 799h121v-799h-2l-18 -8q-79 -35 -37 -129l31 -64l-111 -51l-45 100q-25 50 -8 117t69 107v53q-119 -125 -292 -125q-170 0 -290 120.5t-120 289.5t120 289t290 120q173 0 292 -125v105zM498 117q119 0 203.5 85.5t84.5 205.5q0 121 -84.5 206.5t-203.5 85.5
q-123 0 -209 -85t-86 -207q0 -120 86 -205.5t209 -85.5z" />
    <glyph glyph-name="Cacute" unicode="&#x106;" horiz-adv-x="1591" 
d="M846 1698l170 362h129l-166 -362h-133zM911 0q-209 0 -385.5 103t-279.5 279.5t-103 385.5t103 385.5t279.5 279.5t385.5 103q156 0 296.5 -59.5t246.5 -165.5l-84 -90q-90 90 -208 140t-249 50q-175 0 -323 -86t-234 -234t-86 -323t86 -324t234 -236t323 -87
q271 0 457 186l88 -84q-106 -106 -247.5 -164.5t-299.5 -58.5z" />
    <glyph glyph-name="cacute" unicode="&#x107;" horiz-adv-x="841" 
d="M420 1014l170 362h129l-166 -362h-133zM475 0q-158 0 -274.5 121t-116.5 289q0 169 120 289t290 120q153 0 282 -123l-86 -80q-87 84 -192 84q-123 0 -209 -85t-86 -207q0 -120 84.5 -204.5t206.5 -84.5q51 0 104.5 23t93.5 61l82 -80q-123 -123 -299 -123z" />
    <glyph glyph-name="Cdotaccent" unicode="&#x10a;" horiz-adv-x="1591" 
d="M920 1698q-34 0 -57 24t-23 58q0 33 23.5 56.5t56.5 23.5t56 -23.5t23 -56.5q0 -34 -23 -58t-56 -24zM911 0q-209 0 -385.5 103t-279.5 279.5t-103 385.5t103 385.5t279.5 279.5t385.5 103q156 0 296.5 -59.5t246.5 -165.5l-84 -90q-90 90 -208 140t-249 50
q-175 0 -323 -86t-234 -234t-86 -323t86 -324t234 -236t323 -87q271 0 457 186l88 -84q-106 -106 -247.5 -164.5t-299.5 -58.5z" />
    <glyph glyph-name="cdotaccent" unicode="&#x10b;" horiz-adv-x="841" 
d="M494 1014q-34 0 -57 24t-23 58q0 33 23.5 56.5t56.5 23.5t56 -23.5t23 -56.5q0 -34 -23 -58t-56 -24zM475 0q-158 0 -274.5 121t-116.5 289q0 169 120 289t290 120q153 0 282 -123l-86 -80q-87 84 -192 84q-123 0 -209 -85t-86 -207q0 -120 84.5 -204.5t206.5 -84.5
q51 0 104.5 23t93.5 61l82 -80q-123 -123 -299 -123z" />
    <glyph glyph-name="Ccaron" unicode="&#x10c;" horiz-adv-x="1591" 
d="M897 1679l-172 363h133l64 -129l61 129h133l-170 -363h-49zM911 0q-209 0 -385.5 103t-279.5 279.5t-103 385.5t103 385.5t279.5 279.5t385.5 103q156 0 296.5 -59.5t246.5 -165.5l-84 -90q-90 90 -208 140t-249 50q-175 0 -323 -86t-234 -234t-86 -323t86 -324t234 -236
t323 -87q271 0 457 186l88 -84q-106 -106 -247.5 -164.5t-299.5 -58.5z" />
    <glyph glyph-name="ccaron" unicode="&#x10d;" horiz-adv-x="841" 
d="M471 995l-172 363h133l64 -129l61 129h133l-170 -363h-49zM475 0q-158 0 -274.5 121t-116.5 289q0 169 120 289t290 120q153 0 282 -123l-86 -80q-87 84 -192 84q-123 0 -209 -85t-86 -207q0 -120 84.5 -204.5t206.5 -84.5q51 0 104.5 23t93.5 61l82 -80
q-123 -123 -299 -123z" />
    <glyph glyph-name="Dcaron" unicode="&#x10e;" horiz-adv-x="1728" 
d="M745 1679l-172 363h134l63 -129l61 129h134l-170 -363h-50zM246 0v1536h581q123 -1 239 -40.5t209 -110.5t163 -165t108.5 -211t38.5 -241t-38.5 -241t-108.5 -211t-163 -165t-209 -110.5t-239 -40.5h-581zM367 121h460q129 1 247 52.5t203.5 138.5t136 206.5t50.5 249.5
t-50.5 249.5t-136 206.5t-203.5 138.5t-247 52.5h-460v-1294z" />
    <glyph glyph-name="dcaron" unicode="&#x10f;" horiz-adv-x="1280" 
d="M786 694v842h121v-1536h-121v125q-119 -125 -292 -125q-170 0 -290 120.5t-120 289.5t120 289t290 120q173 0 292 -125zM1008 1536h129l-45 -342h-84v342zM498 117q119 0 203.5 85.5t84.5 205.5q0 121 -84.5 206.5t-203.5 85.5q-123 0 -209 -85t-86 -207
q0 -120 86 -205.5t209 -85.5z" />
    <glyph glyph-name="dcroat" unicode="&#x111;" horiz-adv-x="1169" 
d="M1114 1276v-121h-168v-1155h-121v125q-119 -125 -293 -125q-170 0 -289.5 120.5t-119.5 289.5t119.5 289t289.5 120q174 0 293 -125v461h-336v121h336v260h121v-260h168zM537 117q119 0 203.5 85.5t84.5 205.5q0 121 -84.5 206.5t-203.5 85.5q-123 0 -209 -85t-86 -207
q0 -120 86 -205.5t209 -85.5z" />
    <glyph glyph-name="Emacron" unicode="&#x112;" horiz-adv-x="1331" 
d="M463 1651v125h643v-125h-643zM246 0v1536h952v-121h-831v-569h768v-121h-768v-604h831v-121h-952z" />
    <glyph glyph-name="emacron" unicode="&#x113;" horiz-adv-x="966" 
d="M174 967v125h643v-125h-643zM494 0q-170 0 -290 120.5t-120 289.5t120 289t290 120q169 0 288 -120t119 -289q0 -22 -4 -54h-690q19 -102 100 -169.5t189 -67.5q119 0 202 86l84 -84q-121 -121 -288 -121zM211 475h567q-23 98 -101.5 161.5t-178.5 63.5
q-103 0 -183.5 -63.5t-103.5 -161.5z" />
    <glyph glyph-name="Ebreve" unicode="&#x114;" horiz-adv-x="1331" 
d="M782 1653q-57 0 -113 21t-104 60t-78 103t-30 141h121q0 -95 62 -148.5t140 -53.5q76 0 138.5 54t62.5 148h123q0 -63 -20.5 -117t-53.5 -91.5t-75.5 -64.5t-86.5 -39.5t-86 -12.5zM246 0v1536h952v-121h-831v-569h768v-121h-768v-604h831v-121h-952z" />
    <glyph glyph-name="ebreve" unicode="&#x115;" horiz-adv-x="966" 
d="M494 969q-57 0 -113.5 21t-104.5 60t-78 103t-30 141h121q0 -95 62.5 -148.5t140.5 -53.5q76 0 138 54t62 148h123q0 -78 -30.5 -142t-79 -102.5t-103.5 -59.5t-108 -21zM494 0q-170 0 -290 120.5t-120 289.5t120 289t290 120q169 0 288 -120t119 -289q0 -22 -4 -54h-690
q19 -102 100 -169.5t189 -67.5q119 0 202 86l84 -84q-121 -121 -288 -121zM211 475h567q-23 98 -101.5 161.5t-178.5 63.5q-103 0 -183.5 -63.5t-103.5 -161.5z" />
    <glyph glyph-name="Edotaccent" unicode="&#x116;" horiz-adv-x="1331" 
d="M782 1698q-34 0 -57 24t-23 58q0 33 23.5 56.5t56.5 23.5t56.5 -23.5t23.5 -56.5q0 -34 -23 -58t-57 -24zM246 0v1536h952v-121h-831v-569h768v-121h-768v-604h831v-121h-952z" />
    <glyph glyph-name="edotaccent" unicode="&#x117;" horiz-adv-x="966" 
d="M494 1014q-34 0 -57 24t-23 58q0 33 23.5 56.5t56.5 23.5t56 -23.5t23 -56.5q0 -34 -23 -58t-56 -24zM494 0q-170 0 -290 120.5t-120 289.5t120 289t290 120q169 0 288 -120t119 -289q0 -22 -4 -54h-690q19 -102 100 -169.5t189 -67.5q119 0 202 86l84 -84
q-121 -121 -288 -121zM211 475h567q-23 98 -101.5 161.5t-178.5 63.5q-103 0 -183.5 -63.5t-103.5 -161.5z" />
    <glyph glyph-name="Eogonek" unicode="&#x118;" horiz-adv-x="1331" 
d="M1198 1415h-831v-569h768v-121h-768v-604h766l4 2l2 -2h59v-121h-35q-25 -15 -33 -40.5t-4 -45t13 -37.5l30 -63l-110 -52l-45 101q-27 62 -2 137h-766v1536h952v-121z" />
    <glyph glyph-name="eogonek" unicode="&#x119;" horiz-adv-x="966" 
d="M901 410q0 -22 -4 -54h-690q19 -102 100 -169.5t189 -67.5q119 0 202 86l84 -84q-95 -95 -217 -115l-10 -4q-79 -35 -37 -129l31 -63l-111 -52l-45 101q-33 73 4 151q-136 34 -224.5 145.5t-88.5 254.5q0 169 120 289t290 120q169 0 288 -120t119 -289zM211 475h567
q-23 98 -101.5 161.5t-178.5 63.5q-103 0 -183.5 -63.5t-103.5 -161.5z" />
    <glyph glyph-name="Ecaron" unicode="&#x11a;" horiz-adv-x="1331" 
d="M760 1679l-172 363h133l63 -129l62 129h133l-170 -363h-49zM246 0v1536h952v-121h-831v-569h768v-121h-768v-604h831v-121h-952z" />
    <glyph glyph-name="ecaron" unicode="&#x11b;" horiz-adv-x="966" 
d="M471 995l-172 363h133l64 -129l61 129h133l-170 -363h-49zM494 0q-170 0 -290 120.5t-120 289.5t120 289t290 120q169 0 288 -120t119 -289q0 -22 -4 -54h-690q19 -102 100 -169.5t189 -67.5q119 0 202 86l84 -84q-121 -121 -288 -121zM211 475h567q-23 98 -101.5 161.5
t-178.5 63.5q-103 0 -183.5 -63.5t-103.5 -161.5z" />
    <glyph glyph-name="Gbreve" unicode="&#x11e;" horiz-adv-x="1818" 
d="M899 1653q-57 0 -113.5 21t-104.5 60t-78 103t-30 141h121q0 -95 62.5 -148.5t140.5 -53.5q76 0 138.5 54t62.5 148h123q0 -63 -20.5 -117t-53.5 -91.5t-75.5 -64.5t-86.5 -39.5t-86 -12.5zM1683 819q3 -24 3 -51q0 -162 -62 -305.5t-167 -244.5t-247.5 -159.5
t-298.5 -58.5q-209 0 -385.5 103t-279.5 279.5t-103 385.5t103 385.5t279.5 279.5t385.5 103q157 0 299.5 -58.5t247.5 -164.5l-86 -86q-88 88 -208 137t-251 49q-175 0 -323 -86.5t-234 -235t-86 -323.5t86 -324.5t234 -237t323 -87.5q164 0 305.5 73.5t233.5 206.5
t109 299h-646v121h768z" />
    <glyph glyph-name="gbreve" unicode="&#x11f;" horiz-adv-x="1056" 
d="M498 967q-57 0 -113.5 21t-104.5 60t-78 103t-30 141h121q0 -95 62.5 -148.5t140.5 -53.5q76 0 138 54t62 148h123q0 -78 -30.5 -142t-79 -102.5t-103.5 -59.5t-108 -21zM492 -702v118h4q122 0 206 84t84 205v420q-119 -125 -292 -125q-170 0 -290 120.5t-120 289.5
t120 289t290 120q173 0 292 -125v105h121v-1092q0 -167 -117.5 -288t-275.5 -121h-22zM498 117q119 0 203.5 85.5t84.5 205.5q0 121 -84.5 206.5t-203.5 85.5q-123 0 -209 -85t-86 -207q0 -120 86 -205.5t209 -85.5z" />
    <glyph glyph-name="Gdotaccent" unicode="&#x120;" horiz-adv-x="1818" 
d="M899 1698q-34 0 -57 24t-23 58q0 33 23.5 56.5t56.5 23.5t56.5 -23.5t23.5 -56.5q0 -34 -23 -58t-57 -24zM1683 819q3 -24 3 -51q0 -162 -62 -305.5t-167 -244.5t-247.5 -159.5t-298.5 -58.5q-209 0 -385.5 103t-279.5 279.5t-103 385.5t103 385.5t279.5 279.5t385.5 103
q157 0 299.5 -58.5t247.5 -164.5l-86 -86q-88 88 -208 137t-251 49q-175 0 -323 -86.5t-234 -235t-86 -323.5t86 -324.5t234 -237t323 -87.5q164 0 305.5 73.5t233.5 206.5t109 299h-646v121h768z" />
    <glyph glyph-name="gdotaccent" unicode="&#x121;" horiz-adv-x="1056" 
d="M498 1012q-34 0 -57 24t-23 58q0 33 23.5 56.5t56.5 23.5t56.5 -23.5t23.5 -56.5q0 -34 -23 -58t-57 -24zM492 -702v118h4q122 0 206 84t84 205v420q-119 -125 -292 -125q-170 0 -290 120.5t-120 289.5t120 289t290 120q173 0 292 -125v105h121v-1092q0 -167 -117.5 -288
t-275.5 -121h-22zM498 117q119 0 203.5 85.5t84.5 205.5q0 121 -84.5 206.5t-203.5 85.5q-123 0 -209 -85t-86 -207q0 -120 86 -205.5t209 -85.5z" />
    <glyph glyph-name="Gcommaaccent" unicode="&#x122;" horiz-adv-x="1818" 
d="M1683 819q3 -24 3 -51q0 -162 -62 -305.5t-167 -244.5t-247.5 -159.5t-298.5 -58.5q-209 0 -385.5 103t-279.5 279.5t-103 385.5t103 385.5t279.5 279.5t385.5 103q157 0 299.5 -58.5t247.5 -164.5l-86 -86q-88 88 -208 137t-251 49q-175 0 -323 -86.5t-234 -235
t-86 -323.5t86 -324.5t234 -237t323 -87.5q164 0 305.5 73.5t233.5 206.5t109 299h-646v121h768zM909 -125q32 0 56 -24t24 -58q0 -45 -21.5 -89.5t-60.5 -74.5v84q-34 1 -57 24.5t-23 55.5q0 34 24 58t58 24z" />
    <glyph glyph-name="gcommaaccent" unicode="&#x123;" horiz-adv-x="1056" 
d="M504 1186v-84q34 -2 57 -25t23 -55q0 -34 -24 -58t-58 -24q-32 0 -56 24t-24 58q0 45 21.5 89.5t60.5 74.5zM492 -702v118h4q122 0 206 84t84 205v420q-119 -125 -292 -125q-170 0 -290 120.5t-120 289.5t120 289t290 120q173 0 292 -125v105h121v-1092
q0 -167 -117.5 -288t-275.5 -121h-22zM498 117q119 0 203.5 85.5t84.5 205.5q0 121 -84.5 206.5t-203.5 85.5q-123 0 -209 -85t-86 -207q0 -120 86 -205.5t209 -85.5z" />
    <glyph glyph-name="Hbar" unicode="&#x126;" horiz-adv-x="1738" 
d="M225 0v1114h-164v121h164v301h121v-301h1047v301h120v-301h164v-121h-164v-1114h-120v725h-1047v-725h-121zM346 846h1047v268h-1047v-268z" />
    <glyph glyph-name="hbar" unicode="&#x127;" horiz-adv-x="1165" 
d="M678 819q141 0 247.5 -101t106.5 -255v-463h-121v440q0 116 -65.5 188t-173.5 72q-99 0 -166.5 -71t-67.5 -166v-463h-121v1155h-167v121h167v260h121v-260h336v-121h-336v-428q98 92 240 92z" />
    <glyph glyph-name="Imacron" unicode="&#x12a;" horiz-adv-x="550" 
d="M-47 1651v125h643v-125h-643zM215 0v1536h121v-1536h-121z" />
    <glyph glyph-name="imacron" unicode="&#x12b;" horiz-adv-x="419" 
d="M-106 967v125h643v-125h-643zM150 0v799h120v-799h-120z" />
    <glyph glyph-name="Ibreve" unicode="&#x12c;" horiz-adv-x="550" 
d="M272 1653q-57 0 -113 21t-104 60t-78 103t-30 141h121q0 -95 62 -148.5t140 -53.5q76 0 138.5 54t62.5 148h123q0 -63 -20.5 -117t-53.5 -91.5t-75.5 -64.5t-86.5 -39.5t-86 -12.5zM215 0v1536h121v-1536h-121z" />
    <glyph glyph-name="ibreve" unicode="&#x12d;" horiz-adv-x="419" 
d="M213 969q-57 0 -113.5 21t-104.5 60t-78 103t-30 141h121q0 -95 62.5 -148.5t140.5 -53.5q76 0 138.5 54t62.5 148h123q0 -63 -20.5 -117t-53.5 -91.5t-75.5 -64.5t-86.5 -39.5t-86 -12.5zM150 0v799h120v-799h-120z" />
    <glyph glyph-name="Iogonek" unicode="&#x12e;" horiz-adv-x="550" 
d="M215 1536h121v-1536h-4l-15 -6q-25 -11 -37.5 -28.5t-12.5 -37t3.5 -34t10.5 -29.5l30 -64l-110 -51l-45 100q-25 50 -9 116t68 106v1464z" />
    <glyph glyph-name="iogonek" unicode="&#x12f;" horiz-adv-x="419" 
d="M213 1014q-34 0 -57 24t-23 58q0 33 23.5 56.5t56.5 23.5t56.5 -23.5t23.5 -56.5q0 -34 -23 -58t-57 -24zM150 70v729h120v-799l-18 -8q-79 -35 -37 -129l31 -64l-111 -51l-45 100q-25 50 -8.5 116t68.5 106z" />
    <glyph glyph-name="Idotaccent" unicode="&#x130;" horiz-adv-x="550" 
d="M272 1698q-33 0 -56 24t-23 58q0 33 23 56.5t56 23.5t56.5 -23.5t23.5 -56.5q0 -34 -23 -58t-57 -24zM215 0v1536h121v-1536h-121z" />
    <glyph glyph-name="dotlessi" unicode="&#x131;" horiz-adv-x="419" 
d="M150 0v799h120v-799h-120z" />
    <glyph glyph-name="Kcommaaccent" unicode="&#x136;" horiz-adv-x="1415" 
d="M246 0v1536h121v-801l802 801h170l-761 -762l772 -774h-170l-688 688l-125 -125v-563h-121zM700 -371v84q-34 1 -56.5 24.5t-22.5 55.5q0 34 23.5 58t57.5 24q32 0 56 -24t24 -58q0 -45 -21.5 -89.5t-60.5 -74.5z" />
    <glyph glyph-name="kcommaaccent" unicode="&#x137;" horiz-adv-x="962" 
d="M150 0v1536h120v-1057l318 320h170l-338 -336l459 -461h-170l-375 373l-64 -62v-313h-120zM436 -371v84q-34 1 -57 24.5t-23 55.5q0 34 24 58t58 24q32 0 56 -24t24 -58q0 -45 -21.5 -89.5t-60.5 -74.5z" />
    <glyph glyph-name="Lacute" unicode="&#x139;" horiz-adv-x="1253" 
d="M193 1698l169 362h130l-166 -362h-133zM215 0v1536h121v-1415h833v-121h-954z" />
    <glyph glyph-name="lacute" unicode="&#x13a;" horiz-adv-x="419" 
d="M137 1698l170 362h129l-166 -362h-133zM150 0v1536h120v-1536h-120z" />
    <glyph glyph-name="Lcommaaccent" unicode="&#x13b;" horiz-adv-x="1253" 
d="M215 0v1536h121v-1415h833v-121h-954zM696 -371v84q-34 1 -57 24.5t-23 55.5q0 34 24 58t58 24q32 0 56 -24t24 -58q0 -45 -21.5 -89.5t-60.5 -74.5z" />
    <glyph glyph-name="lcommaaccent" unicode="&#x13c;" horiz-adv-x="419" 
d="M150 0v1536h120v-1536h-120zM203 -371v84q-34 1 -57 24.5t-23 55.5q0 34 24 58t58 24q32 0 56 -24t24 -58q0 -45 -21.5 -89.5t-60.5 -74.5z" />
    <glyph glyph-name="Lcaron" unicode="&#x13d;" horiz-adv-x="1253" 
d="M215 0v1536h121v-1415h833v-121h-954zM664 1194v342h129l-45 -342h-84z" />
    <glyph glyph-name="lcaron" unicode="&#x13e;" horiz-adv-x="462" 
d="M150 0v1536h120v-1536h-120zM371 1194v342h129l-45 -342h-84z" />
    <glyph glyph-name="Ldot" unicode="&#x13f;" horiz-adv-x="1253" 
d="M215 0v1536h121v-1415h833v-121h-954zM829 723q-33 0 -56 24t-23 58q0 33 23 56.5t56 23.5t56.5 -23.5t23.5 -56.5q0 -34 -23 -58t-57 -24z" />
    <glyph glyph-name="ldot" unicode="&#x140;" horiz-adv-x="481" 
d="M150 0v1536h120v-1536h-120zM442 662q-34 0 -57 23.5t-23 57.5q0 33 23.5 56.5t56.5 23.5t56.5 -23.5t23.5 -56.5q0 -34 -23 -57.5t-57 -23.5z" />
    <glyph glyph-name="Lslash" unicode="&#x141;" horiz-adv-x="1232" 
d="M195 0v823l-246 -205v125l246 205v588h120v-485l260 217v-125l-260 -217v-805h834v-121h-954z" />
    <glyph glyph-name="lslash" unicode="&#x142;" horiz-adv-x="462" 
d="M543 1268v-125l-260 -217v-926h-121v823l-246 -205v125l246 205v588h121v-485z" />
    <glyph glyph-name="Nacute" unicode="&#x143;" horiz-adv-x="1683" 
d="M784 1698l170 362h129l-165 -362h-134zM199 0v1536h98l1067 -1346v1346h121v-1536h-121l-1045 1317v-1317h-120z" />
    <glyph glyph-name="nacute" unicode="&#x144;" 
d="M436 1014l170 362h129l-166 -362h-133zM150 0v799h120v-72q98 92 240 92q141 0 247.5 -101t106.5 -255v-463h-121v440q0 116 -65.5 188t-173.5 72q-99 0 -166.5 -71t-67.5 -166v-463h-120z" />
    <glyph glyph-name="Ncommaaccent" unicode="&#x145;" horiz-adv-x="1683" 
d="M199 0v1536h98l1067 -1346v1346h121v-1536h-121l-1045 1317v-1317h-120zM805 -371v84q-34 1 -57 24.5t-23 55.5q0 34 24 58t58 24q32 0 56 -24t24 -58q0 -45 -21.5 -89.5t-60.5 -74.5z" />
    <glyph glyph-name="ncommaaccent" unicode="&#x146;" 
d="M150 0v799h120v-72q98 92 240 92q141 0 247.5 -101t106.5 -255v-463h-121v440q0 116 -65.5 188t-173.5 72q-99 0 -166.5 -71t-67.5 -166v-463h-120zM504 -371v84q-34 1 -57 24.5t-23 55.5q0 34 24 58t58 24q32 0 56 -24t24 -58q0 -45 -21.5 -89.5t-60.5 -74.5z" />
    <glyph glyph-name="Ncaron" unicode="&#x147;" horiz-adv-x="1683" 
d="M836 1679l-172 363h133l63 -129l62 129h133l-170 -363h-49zM199 0v1536h98l1067 -1346v1346h121v-1536h-121l-1045 1317v-1317h-120z" />
    <glyph glyph-name="ncaron" unicode="&#x148;" 
d="M487 995l-172 363h134l63 -129l61 129h134l-170 -363h-50zM150 0v799h120v-72q98 92 240 92q141 0 247.5 -101t106.5 -255v-463h-121v440q0 116 -65.5 188t-173.5 72q-99 0 -166.5 -71t-67.5 -166v-463h-120z" />
    <glyph glyph-name="Omacron" unicode="&#x14c;" horiz-adv-x="1820" 
d="M594 1651v125h643v-125h-643zM1677 768q0 -156 -61 -298.5t-163.5 -245t-244.5 -163.5t-297 -61q-209 0 -385.5 103t-279.5 279.5t-103 385.5t103 385.5t279.5 279.5t385.5 103q155 0 297 -61t244.5 -163.5t163.5 -245t61 -298.5zM1556 768q0 175 -87 323t-235 234
t-321 86q-175 0 -323 -86t-234 -234t-86 -323t86 -323.5t234 -235t323 -86.5q130 0 248.5 51t205 137.5t138 206t51.5 250.5z" />
    <glyph glyph-name="omacron" unicode="&#x14d;" horiz-adv-x="985" 
d="M174 967v125h643v-125h-643zM494 0q-170 0 -290 120.5t-120 289.5t120 289t290 120q169 0 288 -120t119 -289t-119.5 -289.5t-287.5 -120.5zM498 117q119 0 203.5 85.5t84.5 205.5q0 121 -84.5 206.5t-203.5 85.5q-123 0 -209 -85t-86 -207q0 -120 86 -205.5t209 -85.5z
" />
    <glyph glyph-name="Obreve" unicode="&#x14e;" horiz-adv-x="1820" 
d="M913 1653q-57 0 -113 21t-104 60t-78 103t-30 141h121q0 -95 62 -148.5t140 -53.5q76 0 138.5 54t62.5 148h123q0 -63 -20.5 -117t-53.5 -91.5t-75.5 -64.5t-86.5 -39.5t-86 -12.5zM1677 768q0 -156 -61 -298.5t-163.5 -245t-244.5 -163.5t-297 -61q-209 0 -385.5 103
t-279.5 279.5t-103 385.5t103 385.5t279.5 279.5t385.5 103q155 0 297 -61t244.5 -163.5t163.5 -245t61 -298.5zM1556 768q0 175 -87 323t-235 234t-321 86q-175 0 -323 -86t-234 -234t-86 -323t86 -323.5t234 -235t323 -86.5q130 0 248.5 51t205 137.5t138 206t51.5 250.5z
" />
    <glyph glyph-name="obreve" unicode="&#x14f;" horiz-adv-x="985" 
d="M494 969q-57 0 -113.5 21t-104.5 60t-78 103t-30 141h121q0 -95 62.5 -148.5t140.5 -53.5q76 0 138 54t62 148h123q0 -78 -30.5 -142t-79 -102.5t-103.5 -59.5t-108 -21zM494 0q-170 0 -290 120.5t-120 289.5t120 289t290 120q169 0 288 -120t119 -289t-119.5 -289.5
t-287.5 -120.5zM498 117q119 0 203.5 85.5t84.5 205.5q0 121 -84.5 206.5t-203.5 85.5q-123 0 -209 -85t-86 -207q0 -120 86 -205.5t209 -85.5z" />
    <glyph glyph-name="Ohungarumlaut" unicode="&#x150;" horiz-adv-x="1820" 
d="M707 1702l167 362h130l-164 -362h-133zM1004 1702l167 362h129l-163 -362h-133zM1677 768q0 -156 -61 -298.5t-163.5 -245t-244.5 -163.5t-297 -61q-209 0 -385.5 103t-279.5 279.5t-103 385.5t103 385.5t279.5 279.5t385.5 103q155 0 297 -61t244.5 -163.5t163.5 -245
t61 -298.5zM1556 768q0 175 -87 323t-235 234t-321 86q-175 0 -323 -86t-234 -234t-86 -323t86 -323.5t234 -235t323 -86.5q130 0 248.5 51t205 137.5t138 206t51.5 250.5z" />
    <glyph glyph-name="ohungarumlaut" unicode="&#x151;" horiz-adv-x="985" 
d="M287 1018l168 362h129l-164 -362h-133zM584 1018l168 362h129l-164 -362h-133zM494 0q-170 0 -290 120.5t-120 289.5t120 289t290 120q169 0 288 -120t119 -289t-119.5 -289.5t-287.5 -120.5zM498 117q119 0 203.5 85.5t84.5 205.5q0 121 -84.5 206.5t-203.5 85.5
q-123 0 -209 -85t-86 -207q0 -120 86 -205.5t209 -85.5z" />
    <glyph glyph-name="OE" unicode="&#x152;" horiz-adv-x="2148" 
d="M911 0q-209 0 -385.5 103t-279.5 279.5t-103 385.5t103 385.5t279.5 279.5t385.5 103h1104v-121h-831v-569h768v-121h-768v-604h831v-121h-1104zM913 123l150 2v1284l-150 2q-175 0 -323 -86t-234 -234t-86 -323t86 -323.5t234 -235t323 -86.5z" />
    <glyph glyph-name="oe" unicode="&#x153;" horiz-adv-x="1669" 
d="M1604 410q0 -14 -5 -54h-690q19 -102 100 -169.5t189 -67.5q120 0 203 86l84 -84q-121 -121 -289 -121q-111 0 -204 54.5t-148 146.5q-55 -93 -147.5 -147t-202.5 -54q-170 0 -290 120.5t-120 289.5t120 289t290 120q110 0 202.5 -54t147.5 -147q55 92 148 146.5
t204 54.5q169 0 288.5 -120t119.5 -289zM498 117q119 0 203.5 85.5t84.5 205.5q0 121 -84.5 206.5t-203.5 85.5q-123 0 -209 -85t-86 -207q0 -120 86 -205.5t209 -85.5zM913 475h568q-23 98 -102 161.5t-179 63.5q-103 0 -183.5 -63.5t-103.5 -161.5z" />
    <glyph glyph-name="Racute" unicode="&#x154;" horiz-adv-x="1318" 
d="M616 1698l170 362h129l-165 -362h-134zM246 0v1536h526q122 0 224.5 -60.5t161.5 -165t59 -227.5q0 -121 -57 -223t-159 -164t-229 -67l365 -629h-162l-365 629h-243v-629h-121zM367 752h389q141 0 239.5 95.5t98.5 235.5t-99 238t-239 98h-389v-667z" />
    <glyph glyph-name="racute" unicode="&#x155;" horiz-adv-x="612" 
d="M326 1014l170 362h129l-166 -362h-133zM150 0v799h120v-101q61 64 140 92.5t153 28.5v-119q-131 0 -212 -88t-81 -200v-412h-120z" />
    <glyph glyph-name="Rcommaaccent" unicode="&#x156;" horiz-adv-x="1318" 
d="M246 0v1536h526q122 0 224.5 -60.5t161.5 -165t59 -227.5q0 -121 -57 -223t-159 -164t-229 -67l365 -629h-162l-365 629h-243v-629h-121zM367 752h389q141 0 239.5 95.5t98.5 235.5t-99 238t-239 98h-389v-667zM668 -371v84q-34 1 -57 24.5t-23 55.5q0 34 24 58t58 24
q32 0 56 -24t24 -58q0 -45 -21.5 -89.5t-60.5 -74.5z" />
    <glyph glyph-name="rcommaaccent" unicode="&#x157;" horiz-adv-x="612" 
d="M150 0v799h120v-101q61 64 140 92.5t153 28.5v-119q-131 0 -212 -88t-81 -200v-412h-120zM205 -371v84q-34 1 -57 24.5t-23 55.5q0 34 24 58t58 24q32 0 56 -24t24 -58q0 -45 -21.5 -89.5t-60.5 -74.5z" />
    <glyph glyph-name="Rcaron" unicode="&#x158;" horiz-adv-x="1318" 
d="M668 1679l-172 363h133l63 -129l62 129h133l-170 -363h-49zM246 0v1536h526q122 0 224.5 -60.5t161.5 -165t59 -227.5q0 -121 -57 -223t-159 -164t-229 -67l365 -629h-162l-365 629h-243v-629h-121zM367 752h389q141 0 239.5 95.5t98.5 235.5t-99 238t-239 98h-389v-667z
" />
    <glyph glyph-name="rcaron" unicode="&#x159;" horiz-adv-x="612" 
d="M377 995l-172 363h133l63 -129l62 129h133l-170 -363h-49zM150 0v799h120v-101q61 64 140 92.5t153 28.5v-119q-131 0 -212 -88t-81 -200v-412h-120z" />
    <glyph glyph-name="Sacute" unicode="&#x15a;" horiz-adv-x="1316" 
d="M578 1698l170 362h129l-166 -362h-133zM639 0q-209 0 -356.5 118t-147.5 277h121q0 -74 54 -137.5t140 -100t179 -36.5q101 0 191 34t150 103.5t60 159.5q0 50 -26 100t-74 93t-128.5 69.5t-178.5 26.5q-118 0 -230.5 52t-186 146.5t-73.5 204.5q0 181 142.5 303.5
t363.5 122.5q97 0 189 -29t163.5 -80t114.5 -127t43 -163h-121q0 121 -113 197.5t-278 76.5t-274 -82.5t-109 -214.5q0 -48 25 -97t71.5 -92t123.5 -70.5t171 -27.5q112 0 209 -36t160.5 -94.5t100 -131.5t36.5 -147q0 -119 -73 -216t-190 -149.5t-249 -52.5z" />
    <glyph glyph-name="sacute" unicode="&#x15b;" horiz-adv-x="712" 
d="M285 1014l170 362h129l-166 -362h-133zM358 0q-119 0 -196.5 70.5t-77.5 162.5h119q0 -49 43.5 -85.5t107.5 -36.5q65 0 110.5 35.5t45.5 91.5q0 51 -47.5 84.5t-104.5 33.5q-113 0 -193.5 68t-80.5 158q0 104 81.5 170.5t201.5 66.5q41 0 85 -14t84.5 -41t66.5 -73
t26 -103h-119q0 55 -46 90t-106 35q-63 0 -109 -35.5t-46 -89.5q0 -52 45.5 -88.5t118.5 -36.5q101 0 181.5 -65t80.5 -160q0 -102 -82.5 -170t-188.5 -68z" />
    <glyph glyph-name="Scedilla" unicode="&#x15e;" horiz-adv-x="1316" 
d="M1151 418q0 -84 -38.5 -159.5t-103 -129t-149 -87t-176.5 -40.5l-168 -358h-133l180 360q-184 23 -306 135.5t-122 255.5h121q0 -74 54 -137.5t140 -100t179 -36.5q101 0 191 34t150 103.5t60 159.5q0 50 -26 100t-74 93t-128.5 69.5t-178.5 26.5q-118 0 -230.5 52
t-186 146.5t-73.5 204.5q0 181 142.5 303.5t363.5 122.5q97 0 189 -29t163.5 -80t114.5 -127t43 -163h-121q0 121 -113 197.5t-278 76.5t-274 -82.5t-109 -214.5q0 -48 25 -97t71.5 -92t123.5 -70.5t171 -27.5q112 0 209 -36t160.5 -94.5t100 -131.5t36.5 -147z" />
    <glyph glyph-name="scedilla" unicode="&#x15f;" horiz-adv-x="712" 
d="M367 463q101 0 181.5 -65t80.5 -160q0 -86 -59 -148t-146 -82l-168 -358h-133l176 356q-96 17 -155.5 82.5t-59.5 144.5h119q0 -49 43.5 -85.5t107.5 -36.5q65 0 110.5 35.5t45.5 91.5q0 51 -47.5 84.5t-104.5 33.5q-113 0 -193.5 68t-80.5 158q0 104 81.5 170.5
t201.5 66.5q41 0 85 -14t84.5 -41t66.5 -73t26 -103h-119q0 55 -46 90t-106 35q-63 0 -109 -35.5t-46 -89.5q0 -52 45.5 -88.5t118.5 -36.5z" />
    <glyph glyph-name="Scaron" unicode="&#x160;" horiz-adv-x="1316" 
d="M629 1679l-172 363h133l63 -129l62 129h133l-170 -363h-49zM639 0q-209 0 -356.5 118t-147.5 277h121q0 -74 54 -137.5t140 -100t179 -36.5q101 0 191 34t150 103.5t60 159.5q0 50 -26 100t-74 93t-128.5 69.5t-178.5 26.5q-118 0 -230.5 52t-186 146.5t-73.5 204.5
q0 181 142.5 303.5t363.5 122.5q97 0 189 -29t163.5 -80t114.5 -127t43 -163h-121q0 121 -113 197.5t-278 76.5t-274 -82.5t-109 -214.5q0 -48 25 -97t71.5 -92t123.5 -70.5t171 -27.5q112 0 209 -36t160.5 -94.5t100 -131.5t36.5 -147q0 -119 -73 -216t-190 -149.5
t-249 -52.5z" />
    <glyph glyph-name="scaron" unicode="&#x161;" horiz-adv-x="712" 
d="M336 995l-172 363h133l63 -129l62 129h133l-170 -363h-49zM358 0q-119 0 -196.5 70.5t-77.5 162.5h119q0 -49 43.5 -85.5t107.5 -36.5q65 0 110.5 35.5t45.5 91.5q0 51 -47.5 84.5t-104.5 33.5q-113 0 -193.5 68t-80.5 158q0 104 81.5 170.5t201.5 66.5q41 0 85 -14
t84.5 -41t66.5 -73t26 -103h-119q0 55 -46 90t-106 35q-63 0 -109 -35.5t-46 -89.5q0 -52 45.5 -88.5t118.5 -36.5q101 0 181.5 -65t80.5 -160q0 -102 -82.5 -170t-188.5 -68z" />
    <glyph glyph-name="uni0162" unicode="&#x162;" horiz-adv-x="1372" 
d="M84 1536h1204v-121h-543v-1415l-167 -356h-134l181 362v1409h-541v121z" />
    <glyph glyph-name="uni0163" unicode="&#x163;" horiz-adv-x="614" 
d="M498 678h-164v-346q0 -93 17.5 -144.5t66.5 -105.5l-78 -76l66 -4l-168 -358h-134l183 366l41 -2q-67 76 -91 138.5t-24 158.5v373h-164v121h164v327h121v-327h164v-121z" />
    <glyph glyph-name="Tcaron" unicode="&#x164;" horiz-adv-x="1372" 
d="M668 1679l-172 363h133l63 -129l62 129h133l-170 -363h-49zM625 0v1415h-541v121h1204v-121h-543v-1415h-120z" />
    <glyph glyph-name="tcaron" unicode="&#x165;" horiz-adv-x="669" 
d="M424 1241h129l-45 -342h-84v342zM334 1126v-327h164v-121h-164v-346q0 -93 17.5 -144.5t66.5 -105.5l-84 -82q-70 79 -95.5 143.5t-25.5 161.5v373h-164v121h164v327h121z" />
    <glyph glyph-name="Umacron" unicode="&#x16a;" horiz-adv-x="1476" 
d="M430 1651v125h643v-125h-643zM748 0q-119 0 -230.5 44.5t-196.5 123.5t-136.5 195.5t-51.5 250.5v922h121v-922q0 -108 40.5 -201t108.5 -156t158 -98.5t189 -35.5q119 0 226.5 60t177 174.5t69.5 256.5v922h120v-922q0 -134 -52.5 -251t-137 -195t-190.5 -123t-215 -45z
" />
    <glyph glyph-name="umacron" unicode="&#x16b;" 
d="M174 967v125h643v-125h-643zM487 0q-141 0 -247.5 101t-106.5 255v443h121v-437q0 -105 66.5 -174t173.5 -69q99 0 166 71t67 166v443h121v-799h-121v92q-98 -92 -240 -92z" />
    <glyph glyph-name="Ubreve" unicode="&#x16c;" horiz-adv-x="1476" 
d="M750 1653q-57 0 -113.5 21t-104.5 60t-78 103t-30 141h121q0 -95 62.5 -148.5t140.5 -53.5q76 0 138 54t62 148h123q0 -78 -30.5 -142t-79 -102.5t-103.5 -59.5t-108 -21zM748 0q-119 0 -230.5 44.5t-196.5 123.5t-136.5 195.5t-51.5 250.5v922h121v-922
q0 -108 40.5 -201t108.5 -156t158 -98.5t189 -35.5q119 0 226.5 60t177 174.5t69.5 256.5v922h120v-922q0 -134 -52.5 -251t-137 -195t-190.5 -123t-215 -45z" />
    <glyph glyph-name="ubreve" unicode="&#x16d;" 
d="M494 969q-57 0 -113.5 21t-104.5 60t-78 103t-30 141h121q0 -95 62.5 -148.5t140.5 -53.5q76 0 138 54t62 148h123q0 -78 -30.5 -142t-79 -102.5t-103.5 -59.5t-108 -21zM487 0q-141 0 -247.5 101t-106.5 255v443h121v-437q0 -105 66.5 -174t173.5 -69q99 0 166 71
t67 166v443h121v-799h-121v92q-98 -92 -240 -92z" />
    <glyph glyph-name="Uring" unicode="&#x16e;" horiz-adv-x="1476" 
d="M750 1567q-91 0 -154.5 63t-63.5 154q0 90 63.5 152.5t154.5 62.5q89 0 153 -62.5t64 -152.5t-64.5 -153.5t-152.5 -63.5zM750 1692q38 0 64 26.5t26 63.5t-26 64.5t-64 27.5t-65.5 -27.5t-27.5 -64.5t27.5 -63.5t65.5 -26.5zM748 0q-119 0 -230.5 44.5t-196.5 123.5
t-136.5 195.5t-51.5 250.5v922h121v-922q0 -108 40.5 -201t108.5 -156t158 -98.5t189 -35.5q119 0 226.5 60t177 174.5t69.5 256.5v922h120v-922q0 -134 -52.5 -251t-137 -195t-190.5 -123t-215 -45z" />
    <glyph glyph-name="uring" unicode="&#x16f;" 
d="M494 883q-91 0 -154.5 63t-63.5 154q0 90 63.5 152.5t154.5 62.5q89 0 153 -62.5t64 -152.5t-64.5 -153.5t-152.5 -63.5zM494 1008q38 0 64 26.5t26 63.5t-26 64.5t-64 27.5t-65.5 -27.5t-27.5 -64.5t27.5 -63.5t65.5 -26.5zM487 0q-141 0 -247.5 101t-106.5 255v443h121
v-437q0 -105 66.5 -174t173.5 -69q99 0 166 71t67 166v443h121v-799h-121v92q-98 -92 -240 -92z" />
    <glyph glyph-name="Uhungarumlaut" unicode="&#x170;" horiz-adv-x="1476" 
d="M543 1702l168 362h129l-164 -362h-133zM840 1702l168 362h129l-164 -362h-133zM748 0q-119 0 -230.5 44.5t-196.5 123.5t-136.5 195.5t-51.5 250.5v922h121v-922q0 -108 40.5 -201t108.5 -156t158 -98.5t189 -35.5q119 0 226.5 60t177 174.5t69.5 256.5v922h120v-922
q0 -134 -52.5 -251t-137 -195t-190.5 -123t-215 -45z" />
    <glyph glyph-name="uhungarumlaut" unicode="&#x171;" 
d="M287 1018l168 362h129l-164 -362h-133zM584 1018l168 362h129l-164 -362h-133zM487 0q-141 0 -247.5 101t-106.5 255v443h121v-437q0 -105 66.5 -174t173.5 -69q99 0 166 71t67 166v443h121v-799h-121v92q-98 -92 -240 -92z" />
    <glyph glyph-name="Uogonek" unicode="&#x172;" horiz-adv-x="1476" 
d="M1223 1536h120v-922q0 -127 -48 -239.5t-126.5 -190t-177.5 -125.5t-203 -57l-12 -6q-79 -35 -37 -129l31 -64l-111 -51l-45 101q-36 74 9 159q-101 21 -189.5 73t-155.5 128.5t-106 180t-39 220.5v922h121v-922q0 -108 40.5 -201t108.5 -156t158 -98.5t189 -35.5
q119 0 226.5 60t177 174.5t69.5 256.5v922z" />
    <glyph glyph-name="uogonek" unicode="&#x173;" 
d="M848 2v-2h-2l-15 -6q-25 -11 -37.5 -28.5t-12.5 -37t3.5 -34t10.5 -29.5l30 -64l-110 -51l-45 100q-25 50 -9.5 115t66.5 107v20q-98 -92 -240 -92q-141 0 -247.5 101t-106.5 255v443h121v-437q0 -105 66.5 -174t173.5 -69q99 0 166 71t67 166v443h121v-793l2 -4h-2z" />
    <glyph glyph-name="Wcircumflex" unicode="&#x174;" horiz-adv-x="2404" 
d="M1004 1700l172 362h49l170 -362h-133l-62 129l-63 -129h-133zM788 0l-722 1536h135l608 -1294l326 694h133l325 -694l611 1294h135l-723 -1536h-43l-373 788l-369 -788h-43z" />
    <glyph glyph-name="wcircumflex" unicode="&#x175;" horiz-adv-x="1429" 
d="M522 1016l172 362h49l170 -362h-133l-61 129l-64 -129h-133zM399 0l-374 799h133l264 -563l256 563h70l262 -563l258 563h137l-373 -799h-43l-274 584l-273 -584h-43z" />
    <glyph glyph-name="Ycircumflex" unicode="&#x176;" horiz-adv-x="1296" 
d="M444 1700l172 362h50l170 -362h-134l-61 129l-63 -129h-134zM586 0v635l-520 901h141l442 -766l441 766h141l-524 -901v-635h-121z" />
    <glyph glyph-name="ycircumflex" unicode="&#x177;" 
d="M291 1016l172 362h49l170 -362h-133l-62 129l-63 -129h-133zM432 -702v118h4q122 0 206.5 84t84.5 205v387q-98 -92 -240 -92q-141 0 -247.5 101t-106.5 255v443h121v-437q0 -105 66.5 -174t173.5 -69q99 0 166 71t67 166v443h121v-1092q0 -167 -117.5 -288t-275.5 -121
h-23z" />
    <glyph glyph-name="Ydieresis" unicode="&#x178;" horiz-adv-x="1296" 
d="M477 1704q-34 0 -57 23t-23 57t23 57t57 23t57 -23t23 -57t-23 -57t-57 -23zM801 1704q-34 0 -57 23t-23 57t23 57t57 23t57 -23t23 -57t-23 -57t-57 -23zM586 0v635l-520 901h141l442 -766l441 766h141l-524 -901v-635h-121z" />
    <glyph glyph-name="Zacute" unicode="&#x179;" horiz-adv-x="1325" 
d="M528 1698l170 362h129l-165 -362h-134zM150 0l821 1415h-821v121h1026l-824 -1415h727v-121h-929z" />
    <glyph glyph-name="zacute" unicode="&#x17a;" horiz-adv-x="870" 
d="M342 1014l170 362h129l-166 -362h-133zM84 0l475 678h-475v121h702l-475 -678h475v-121h-702z" />
    <glyph glyph-name="Zdotaccent" unicode="&#x17b;" horiz-adv-x="1325" 
d="M602 1698q-34 0 -57 24t-23 58q0 33 23.5 56.5t56.5 23.5t56.5 -23.5t23.5 -56.5q0 -34 -23 -58t-57 -24zM150 0l821 1415h-821v121h1026l-824 -1415h727v-121h-929z" />
    <glyph glyph-name="zdotaccent" unicode="&#x17c;" horiz-adv-x="870" 
d="M416 1014q-34 0 -57 24t-23 58q0 33 23.5 56.5t56.5 23.5t56.5 -23.5t23.5 -56.5q0 -34 -23 -58t-57 -24zM84 0l475 678h-475v121h702l-475 -678h475v-121h-702z" />
    <glyph glyph-name="Zcaron" unicode="&#x17d;" horiz-adv-x="1325" 
d="M580 1679l-172 363h133l63 -129l62 129h133l-170 -363h-49zM150 0l821 1415h-821v121h1026l-824 -1415h727v-121h-929z" />
    <glyph glyph-name="zcaron" unicode="&#x17e;" horiz-adv-x="870" 
d="M393 995l-172 363h133l64 -129l61 129h133l-170 -363h-49zM84 0l475 678h-475v121h702l-475 -678h475v-121h-702z" />
    <glyph glyph-name="uni01CD" unicode="&#x1cd;" horiz-adv-x="1650" 
d="M858 1679h-49l-172 363h133l64 -129l61 129h133zM1434 0l-193 412h-835l-193 -412h-131l717 1536h47l723 -1536h-135zM463 532h721l-361 773z" />
    <glyph glyph-name="uni01CE" unicode="&#x1ce;" horiz-adv-x="1040" 
d="M524 993h-49l-172 363h133l64 -129l61 129h133zM786 799h121v-799h-121v125q-119 -125 -292 -125q-170 0 -290 120.5t-120 289.5t120 289t290 120q173 0 292 -125v105zM498 117q119 0 203.5 85.5t84.5 205.5q0 121 -84.5 206.5t-203.5 85.5q-123 0 -209 -85t-86 -207
q0 -120 86 -205.5t209 -85.5z" />
    <glyph glyph-name="uni01CF" unicode="&#x1cf;" horiz-adv-x="550" 
d="M250 1679l-172 363h133l63 -129l62 129h133l-170 -363h-49zM215 0v1536h121v-1536h-121z" />
    <glyph glyph-name="uni01D0" unicode="&#x1d0;" horiz-adv-x="419" 
d="M190 995l-172 363h134l63 -129l61 129h134l-170 -363h-50zM150 0v799h120v-799h-120z" />
    <glyph glyph-name="uni01D1" unicode="&#x1d1;" horiz-adv-x="1820" 
d="M891 1679l-172 363h133l63 -129l62 129h133l-170 -363h-49zM1677 768q0 -156 -61 -298.5t-163.5 -245t-244.5 -163.5t-297 -61q-209 0 -385.5 103t-279.5 279.5t-103 385.5t103 385.5t279.5 279.5t385.5 103q155 0 297 -61t244.5 -163.5t163.5 -245t61 -298.5zM1556 768
q0 175 -87 323t-235 234t-321 86q-175 0 -323 -86t-234 -234t-86 -323t86 -323.5t234 -235t323 -86.5q130 0 248.5 51t205 137.5t138 206t51.5 250.5z" />
    <glyph glyph-name="uni01D2" unicode="&#x1d2;" horiz-adv-x="985" 
d="M471 995l-172 363h133l64 -129l61 129h133l-170 -363h-49zM494 0q-170 0 -290 120.5t-120 289.5t120 289t290 120q169 0 288 -120t119 -289t-119.5 -289.5t-287.5 -120.5zM498 117q119 0 203.5 85.5t84.5 205.5q0 121 -84.5 206.5t-203.5 85.5q-123 0 -209 -85t-86 -207
q0 -120 86 -205.5t209 -85.5z" />
    <glyph glyph-name="uni01D3" unicode="&#x1d3;" horiz-adv-x="1476" 
d="M727 1679l-172 363h133l64 -129l61 129h133l-170 -363h-49zM748 0q-119 0 -230.5 44.5t-196.5 123.5t-136.5 195.5t-51.5 250.5v922h121v-922q0 -108 40.5 -201t108.5 -156t158 -98.5t189 -35.5q119 0 226.5 60t177 174.5t69.5 256.5v922h120v-922q0 -134 -52.5 -251
t-137 -195t-190.5 -123t-215 -45z" />
    <glyph glyph-name="uni01D4" unicode="&#x1d4;" 
d="M471 995l-172 363h133l64 -129l61 129h133l-170 -363h-49zM487 0q-141 0 -247.5 101t-106.5 255v443h121v-437q0 -105 66.5 -174t173.5 -69q99 0 166 71t67 166v443h121v-799h-121v92q-98 -92 -240 -92z" />
    <glyph glyph-name="Aringacute" unicode="&#x1fa;" horiz-adv-x="1650" 
d="M1434 0l-193 412h-835l-193 -412h-131l715 1530q-65 11 -108.5 61t-43.5 117q0 75 52.5 126.5t127.5 51.5h13l82 176h88l-93 -200q41 -24 65 -64.5t24 -89.5q0 -68 -45 -118.5t-109 -59.5l719 -1530h-135zM750 1706q0 -31 21.5 -52.5t53.5 -21.5t53 21.5t21 52.5
t-21 53.5t-53 22.5t-53.5 -22.5t-21.5 -53.5zM463 532h721l-361 773z" />
    <glyph glyph-name="aringacute" unicode="&#x1fb;" horiz-adv-x="1040" 
d="M786 799h121v-799h-121v125q-119 -125 -292 -125q-170 0 -290 120.5t-120 289.5q0 123 67.5 224.5t176.5 149.5q-47 60 -47 136q0 86 56.5 146.5t141.5 68.5l111 239h110l-116 -258q58 -24 94.5 -77t36.5 -119q0 -81 -51 -138q72 -35 122 -88v105zM498 1010
q-38 0 -65 -27.5t-27 -64.5t27 -64t65 -27t64 27t26 64t-26 64.5t-64 27.5zM498 117q119 0 203.5 85.5t84.5 205.5q0 121 -84.5 206.5t-203.5 85.5q-123 0 -209 -85t-86 -207q0 -120 86 -205.5t209 -85.5z" />
    <glyph glyph-name="AEacute" unicode="&#x1fc;" horiz-adv-x="2058" 
d="M1368 1698l170 362h129l-166 -362h-133zM82 0l874 1536h969v-121h-831v-569h768v-121h-768v-604h831v-121h-952v412h-518l-242 -412h-131zM526 532h447v758z" />
    <glyph glyph-name="aeacute" unicode="&#x1fd;" horiz-adv-x="1677" 
d="M774 1014l170 362h129l-166 -362h-133zM494 0q-170 0 -290 120.5t-120 289.5t120 289t290 120q173 0 292 -125v105h121v-107q57 60 134 93.5t163 33.5q169 0 288.5 -120t119.5 -289q0 -22 -4 -54h-690q19 -102 99.5 -169.5t188.5 -67.5q120 0 203 86l84 -84
q-121 -121 -289 -121q-86 0 -163 33.5t-134 93.5v-127h-121v125q-119 -125 -292 -125zM498 117q119 0 203.5 85.5t84.5 205.5q0 121 -84.5 206.5t-203.5 85.5q-123 0 -209 -85t-86 -207q0 -120 86 -205.5t209 -85.5zM922 475h567q-23 98 -102 161.5t-179 63.5
q-103 0 -182.5 -63.5t-103.5 -161.5z" />
    <glyph glyph-name="Oslashacute" unicode="&#x1fe;" horiz-adv-x="1845" 
d="M1139 2060l-166 -362h-133l170 362h129zM1702 1487l-213 -213q190 -216 190 -506q0 -156 -61 -298.5t-163.5 -245t-244.5 -163.5t-297 -61q-286 0 -503 188l-189 -188l-78 72l191 192q-90 104 -139.5 233t-49.5 271q0 209 103 385.5t279.5 279.5t385.5 103
q285 0 500 -186l211 213zM272 768q0 -232 150 -416l903 910q-176 149 -410 149q-175 0 -323 -86t-234 -234t-86 -323zM1559 768q0 118 -41 225.5t-115 192.5l-905 -910q180 -153 417 -153q173 0 321.5 86.5t235.5 235t87 323.5z" />
    <glyph glyph-name="oslashacute" unicode="&#x1ff;" horiz-adv-x="1114" 
d="M778 1376l-166 -362h-133l170 362h129zM1030 807l-151 -152q82 -113 82 -245q0 -169 -119.5 -289.5t-288.5 -120.5q-133 0 -246 82l-145 -148l-78 72l147 150q-88 112 -88 254q0 169 120 289t290 120q140 0 250 -86l149 150zM262 408q0 -93 53 -168l406 409
q-73 51 -164 51q-123 0 -209 -85t-86 -207zM846 408q0 89 -49 163l-404 -405q74 -49 164 -49q119 0 204 85.5t85 205.5z" />
    <glyph glyph-name="Scommaaccent" unicode="&#x218;" horiz-adv-x="1316" 
d="M639 0q-209 0 -356.5 118t-147.5 277h121q0 -74 54 -137.5t140 -100t179 -36.5q101 0 191 34t150 103.5t60 159.5q0 50 -26 100t-74 93t-128.5 69.5t-178.5 26.5q-118 0 -230.5 52t-186 146.5t-73.5 204.5q0 181 142.5 303.5t363.5 122.5q97 0 189 -29t163.5 -80
t114.5 -127t43 -163h-121q0 121 -113 197.5t-278 76.5t-274 -82.5t-109 -214.5q0 -48 25 -97t71.5 -92t123.5 -70.5t171 -27.5q112 0 209 -36t160.5 -94.5t100 -131.5t36.5 -147q0 -119 -73 -216t-190 -149.5t-249 -52.5zM625 -371v84q-34 1 -57 24.5t-23 55.5q0 34 24 58
t58 24q32 0 56 -24t24 -58q0 -45 -21.5 -89.5t-60.5 -74.5z" />
    <glyph glyph-name="scommaaccent" unicode="&#x219;" horiz-adv-x="712" 
d="M358 0q-119 0 -196.5 70.5t-77.5 162.5h119q0 -49 43.5 -85.5t107.5 -36.5q65 0 110.5 35.5t45.5 91.5q0 51 -47.5 84.5t-104.5 33.5q-113 0 -193.5 68t-80.5 158q0 104 81.5 170.5t201.5 66.5q41 0 85 -14t84.5 -41t66.5 -73t26 -103h-119q0 55 -46 90t-106 35
q-63 0 -109 -35.5t-46 -89.5q0 -52 45.5 -88.5t118.5 -36.5q101 0 181.5 -65t80.5 -160q0 -102 -82.5 -170t-188.5 -68zM365 -365v84q-34 1 -57 24.5t-23 55.5q0 34 24 58t58 24q32 0 55.5 -24t23.5 -58q0 -46 -21 -90t-60 -74z" />
    <glyph glyph-name="uni021A" unicode="&#x21a;" horiz-adv-x="1372" 
d="M625 0v1415h-541v121h1204v-121h-543v-1415h-120zM686 -371v84q-34 1 -57 24.5t-23 55.5q0 34 24 58t58 24q32 0 56 -24t24 -58q0 -45 -21.5 -89.5t-60.5 -74.5z" />
    <glyph glyph-name="uni021B" unicode="&#x21b;" horiz-adv-x="614" 
d="M334 799h164v-121h-164v-346q0 -93 17.5 -144.5t66.5 -105.5l-84 -82q-70 79 -95.5 143.5t-25.5 161.5v373h-164v121h164v327h121v-327zM348 -125q32 0 56 -24t24 -58q0 -45 -21.5 -89.5t-60.5 -74.5v84q-34 1 -57 24.5t-23 55.5q0 34 24 58t58 24z" />
    <glyph glyph-name="uni0259" unicode="&#x259;" horiz-adv-x="966" 
d="M473 799q170 0 290 -120.5t120 -289.5t-120 -289t-290 -120q-169 0 -288 120t-119 289q0 21 4 53h690q-19 102 -100 170t-189 68q-120 0 -203 -86l-84 84q121 121 289 121zM756 324h-568q23 -98 102 -162t179 -64q103 0 183 64t104 162z" />
    <glyph glyph-name="circumflex" unicode="&#x2c6;" horiz-adv-x="456" 
d="M33 1700l172 362h49l170 -362h-133l-62 129l-63 -129h-133z" />
    <glyph glyph-name="caron" unicode="&#x2c7;" horiz-adv-x="456" 
d="M205 1679l-172 363h133l63 -129l62 129h133l-170 -363h-49z" />
    <glyph glyph-name="breve" unicode="&#x2d8;" horiz-adv-x="712" 
d="M358 1653q-57 0 -113 21t-104 60t-78 103t-30 141h121q0 -95 62 -148.5t140 -53.5q76 0 138.5 54t62.5 148h123q0 -63 -20.5 -117t-53.5 -91.5t-75.5 -64.5t-86.5 -39.5t-86 -12.5z" />
    <glyph glyph-name="dotaccent" unicode="&#x2d9;" horiz-adv-x="225" 
d="M113 1698q-34 0 -57 24t-23 58q0 33 23.5 56.5t56.5 23.5t56.5 -23.5t23.5 -56.5q0 -34 -23 -58t-57 -24z" />
    <glyph glyph-name="ring" unicode="&#x2da;" horiz-adv-x="499" 
d="M250 1567q-91 0 -154 63t-63 154t63 153t154 62q89 0 153 -62.5t64 -152.5t-64.5 -153.5t-152.5 -63.5zM250 1692q38 0 64 26.5t26 63.5t-26 64.5t-64 27.5t-65 -27.5t-27 -64.5t27 -63.5t65 -26.5z" />
    <glyph glyph-name="ogonek" unicode="&#x2db;" horiz-adv-x="260" 
d="M92 -238l-45 101q-16 41 -14 84.5t29 86.5t71 68l37 21l57 -109l-18 -8q-79 -35 -37 -129l31 -63z" />
    <glyph glyph-name="tilde" unicode="&#x2dc;" horiz-adv-x="739" 
d="M33 1706q0 73 54.5 137t152.5 64q39 0 141 -39t127 -39q36 0 56 27t20 53h123q0 -84 -60 -143.5t-147 -59.5q-39 0 -140.5 40t-123.5 40q-39 0 -60.5 -26.5t-21.5 -53.5h-121z" />
    <glyph glyph-name="hungarumlaut" unicode="&#x2dd;" horiz-adv-x="659" 
d="M33 1702l168 362h129l-164 -362h-133zM330 1702l168 362h129l-164 -362h-133z" />
    <glyph glyph-name="uni0326" unicode="&#x326;" horiz-adv-x="0" 
d="M-115 -371v84q-34 1 -57 24.5t-23 55.5q0 34 24 58t58 24q32 0 56 -24t24 -58q0 -45 -21.5 -89.5t-60.5 -74.5z" />
    <glyph glyph-name="Wgrave" unicode="&#x1e80;" horiz-adv-x="2404" 
d="M1141 1698l-166 362h129l170 -362h-133zM788 0l-722 1536h135l608 -1294l326 694h133l325 -694l611 1294h135l-723 -1536h-43l-373 788l-369 -788h-43z" />
    <glyph glyph-name="wgrave" unicode="&#x1e81;" horiz-adv-x="1429" 
d="M659 1014l-165 362h129l170 -362h-134zM399 0l-374 799h133l264 -563l256 563h70l262 -563l258 563h137l-373 -799h-43l-274 584l-273 -584h-43z" />
    <glyph glyph-name="Wacute" unicode="&#x1e82;" horiz-adv-x="2404" 
d="M1126 1698l170 362h129l-165 -362h-134zM788 0l-722 1536h135l608 -1294l326 694h133l325 -694l611 1294h135l-723 -1536h-43l-373 788l-369 -788h-43z" />
    <glyph glyph-name="wacute" unicode="&#x1e83;" horiz-adv-x="1429" 
d="M645 1014l170 362h129l-166 -362h-133zM399 0l-374 799h133l264 -563l256 563h70l262 -563l258 563h137l-373 -799h-43l-274 584l-273 -584h-43z" />
    <glyph glyph-name="Wdieresis" unicode="&#x1e84;" horiz-adv-x="2404" 
d="M1036 1704q-34 0 -57 23t-23 57t23 57t57 23t57 -23t23 -57t-23 -57t-57 -23zM1360 1704q-34 0 -57 23t-23 57t23 57t57 23t57 -23t23 -57t-23 -57t-57 -23zM788 0l-722 1536h135l608 -1294l326 694h133l325 -694l611 1294h135l-723 -1536h-43l-373 788l-369 -788h-43z
" />
    <glyph glyph-name="wdieresis" unicode="&#x1e85;" horiz-adv-x="1429" 
d="M555 1020q-34 0 -57 23t-23 57t23 57t57 23t57 -23t23 -57t-23 -57t-57 -23zM879 1020q-34 0 -57 23t-23 57t23 57t57 23t56.5 -23t22.5 -57t-22.5 -57t-56.5 -23zM399 0l-374 799h133l264 -563l256 563h70l262 -563l258 563h137l-373 -799h-43l-274 584l-273 -584h-43z
" />
    <glyph glyph-name="Ygrave" unicode="&#x1ef2;" horiz-adv-x="1296" 
d="M582 1698l-166 362h129l170 -362h-133zM586 0v635l-520 901h141l442 -766l441 766h141l-524 -901v-635h-121z" />
    <glyph glyph-name="ygrave" unicode="&#x1ef3;" 
d="M428 1014l-166 362h129l170 -362h-133zM432 -702v118h4q122 0 206.5 84t84.5 205v387q-98 -92 -240 -92q-141 0 -247.5 101t-106.5 255v443h121v-437q0 -105 66.5 -174t173.5 -69q99 0 166 71t67 166v443h121v-1092q0 -167 -117.5 -288t-275.5 -121h-23z" />
    <glyph glyph-name="quoteleft" unicode="&#x2018;" horiz-adv-x="243" 
d="M123 1288q-35 0 -58.5 23.5t-23.5 58.5q0 102 82 166v-86q34 0 57 -23t23 -57q0 -35 -23 -58.5t-57 -23.5z" />
    <glyph glyph-name="quoteright" unicode="&#x2019;" horiz-adv-x="243" 
d="M121 1288v86q-34 0 -57 23t-23 57q0 35 23 58.5t57 23.5q35 0 58.5 -23.5t23.5 -58.5q0 -102 -82 -166z" />
    <glyph glyph-name="quotedblleft" unicode="&#x201c;" horiz-adv-x="444" 
d="M121 1288v86q-34 0 -57 23t-23 57q0 35 23 58.5t57 23.5q35 0 58.5 -23.5t23.5 -58.5q0 -102 -82 -166zM322 1288v86q-34 0 -57 23t-23 57q0 35 23 58.5t57 23.5q35 0 58 -23.5t23 -58.5q0 -103 -81 -166z" />
    <glyph glyph-name="quotedblright" unicode="&#x201d;" horiz-adv-x="444" 
d="M123 1288q-35 0 -58.5 23.5t-23.5 58.5q0 102 82 166v-86q34 0 57 -23t23 -57q0 -35 -23 -58.5t-57 -23.5zM324 1288q-35 0 -58.5 23.5t-23.5 58.5q0 102 82 166v-86q34 0 56.5 -23t22.5 -57q0 -35 -22.5 -58.5t-56.5 -23.5z" />
    <glyph glyph-name="fraction" unicode="&#x2044;" horiz-adv-x="894" 
d="M33 0l708 1536h121l-708 -1536h-121z" />
    <glyph glyph-name="minus" unicode="&#x2212;" horiz-adv-x="1003" 
d="M102 678v121h799v-121h-799z" />
    <glyph glyph-name="i.loclTRK" horiz-adv-x="419" 
d="M213 1014q-34 0 -57 24t-23 58q0 33 23.5 56.5t56.5 23.5t56.5 -23.5t23.5 -56.5q0 -34 -23 -58t-57 -24zM150 0v799h120v-799h-120z" />
    <glyph glyph-name="NULL" horiz-adv-x="0" 
 />
    </font>
</defs>
</svg>
