<?xml version="1.0" standalone="no"?>
<!DOCTYPE svg PUBLIC "-//W3C//DTD SVG 1.1//EN" "http://www.w3.org/Graphics/SVG/1.1/DTD/svg11.dtd" >
<svg xmlns="http://www.w3.org/2000/svg" xmlns:xlink="http://www.w3.org/1999/xlink" version="1.1">
<metadata>
Created by FontForge 20170731 at Tue Jan 26 22:50:10 2021
 By Aleksey,,,
Copyright (c) 2016 by Ion Lucin. All rights reserved.
</metadata>
<defs>
<font id="BigJohnPRO-Light" horiz-adv-x="1062" >
  <font-face 
    font-family="Big John PRO Light"
    font-weight="400"
    font-stretch="normal"
    units-per-em="2048"
    panose-1="0 0 5 0 0 0 0 0 0 0"
    ascent="1536"
    descent="-512"
    x-height="799"
    cap-height="1536"
    bbox="-125 -719 2361 1991"
    underline-thickness="102"
    underline-position="-307"
    unicode-range="U+000D-2212"
  />
<missing-glyph horiz-adv-x="1024" 
 />
    <glyph glyph-name=".notdef" horiz-adv-x="1024" 
 />
    <glyph glyph-name=".null" horiz-adv-x="0" 
 />
    <glyph glyph-name="nonmarkingreturn" horiz-adv-x="682" 
 />
    <glyph glyph-name="CR" unicode="&#xd;" horiz-adv-x="1024" 
 />
    <glyph glyph-name="space" unicode=" " horiz-adv-x="716" 
 />
    <glyph glyph-name="exclam" unicode="!" horiz-adv-x="284" 
d="M123 162v1374h43v-1374h-43zM141 0q-17 0 -28 11t-11 28t11 29t28 12t29 -12t12 -29t-12 -28t-29 -11z" />
    <glyph glyph-name="quotedbl" unicode="&#x22;" horiz-adv-x="1228" 
d="M475 1071l-8 365h70l-15 -365h-47zM684 1071l-8 365h69l-14 -365h-47z" />
    <glyph glyph-name="dollar" unicode="$" horiz-adv-x="1402" 
d="M672 -123v123q-111 1 -207.5 33.5t-161.5 86.5t-102 125.5t-37 149.5h43q0 -100 64 -182t170.5 -127t230.5 -45q122 0 230 43t176.5 125.5t68.5 185.5q0 161 -132.5 262t-348.5 101q-229 0 -359.5 106t-130.5 285q0 111 67 199t179.5 136.5t249.5 51.5v121h41v-121
q211 -6 348 -118.5t137 -272.5h-39q0 149 -133.5 249.5t-337.5 100.5q-124 0 -230.5 -42.5t-172.5 -123.5t-66 -182q0 -157 120 -252.5t327 -95.5q129 0 231.5 -34t165 -91.5t95 -129.5t32.5 -151q0 -109 -67.5 -197.5t-175.5 -138.5t-234 -57v-123h-41z" />
    <glyph glyph-name="percent" unicode="%" horiz-adv-x="956" 
d="M102 0l709 1536h43l-709 -1536h-43zM141 1456q-17 0 -28 11t-11 28t11 29t28 12t29 -12t12 -29t-12 -28t-29 -11zM813 0q-17 0 -28 11t-11 28t11 29t28 12t29 -12t12 -29t-12 -28t-29 -11z" />
    <glyph glyph-name="ampersand" unicode="&#x26;" horiz-adv-x="1224" 
d="M612 0q-195 0 -333 138t-138 333q0 98 38.5 186t107.5 154l293 272q73 70 73 172q0 103 -74.5 177.5t-177.5 74.5q-102 0 -174.5 -74.5t-72.5 -177.5q0 -78 41 -137l-23 -20q-49 71 -49 157q0 117 80.5 199t197.5 82t199 -82t82 -199q0 -110 -78 -188l-295 -283
q-63 -58 -97 -140.5t-34 -174.5q0 -180 125 -305t305 -125q86 0 164.5 32.5t136.5 90.5l-213 217l29 29l377 -379l-29 -29l-133 131q-65 -62 -150 -96.5t-178 -34.5z" />
    <glyph glyph-name="parenleft" unicode="(" horiz-adv-x="851" 
d="M811 0q-209 0 -386 103t-280.5 280t-103.5 385t103.5 385t280.5 280t386 103v-43q-149 0 -283.5 -57t-231.5 -154t-154.5 -231.5t-57.5 -282.5t57.5 -282.5t154.5 -231.5t231.5 -154t283.5 -57v-43z" />
    <glyph glyph-name="parenright" unicode=")" horiz-adv-x="851" 
d="M41 0v43q149 0 283.5 57t231.5 154t154.5 231.5t57.5 282.5t-57.5 282.5t-154.5 231.5t-231.5 154t-283.5 57v43q209 0 386 -103t280.5 -280t103.5 -385t-103.5 -385t-280.5 -280t-386 -103z" />
    <glyph glyph-name="plus" unicode="+" horiz-adv-x="1175" 
d="M567 223v465h-465v41h465v465h41v-465h465v-41h-465v-465h-41z" />
    <glyph glyph-name="comma" unicode="," horiz-adv-x="245" 
d="M115 -70v70q-14 2 -23.5 13t-9.5 28q0 16 11.5 27.5t29.5 11.5q16 0 28.5 -13t12.5 -38q0 -29 -12 -54t-24 -35z" />
    <glyph glyph-name="hyphen" unicode="-" horiz-adv-x="1011" 
d="M102 688v37h807v-37h-807z" />
    <glyph glyph-name="period" unicode="." horiz-adv-x="243" 
d="M121 0q-17 0 -28 11t-11 28t11 29t28 12t29 -12t12 -29t-12 -28t-29 -11z" />
    <glyph glyph-name="slash" unicode="/" horiz-adv-x="831" 
d="M41 0l707 1536h43l-707 -1536h-43z" />
    <glyph glyph-name="zero" unicode="0" horiz-adv-x="968" 
d="M483 0q-167 0 -284 117t-117 284v748q6 162 121.5 274.5t279.5 112.5q163 0 280.5 -113t123.5 -274v-748q0 -167 -118 -284t-286 -117zM483 41q151 0 256 104.5t105 255.5v732q0 151 -105 256.5t-256 105.5q-150 0 -254 -105.5t-104 -256.5v-732q0 -151 103.5 -255.5
t254.5 -104.5z" />
    <glyph glyph-name="one" unicode="1" horiz-adv-x="473" 
d="M205 0v1536h43v-1536h-43z" />
    <glyph glyph-name="two" unicode="2" horiz-adv-x="1015" 
d="M156 0l639 911q75 97 75 222q0 151 -105.5 256.5t-256.5 105.5t-257 -105.5t-106 -256.5h-43q0 167 119 285t287 118q167 0 285 -118t118 -285q0 -131 -82 -242l-598 -852h682v-39h-757z" />
    <glyph glyph-name="three" unicode="3" horiz-adv-x="884" 
d="M379 0q-162 0 -277 109l31 28q100 -94 246 -94q151 0 255.5 103.5t104.5 254.5t-104.5 256t-255.5 105q-146 0 -246 -94l-29 28l562 799h-551v41h626l-540 -772q80 41 178 41q167 0 285 -118.5t118 -285.5t-118 -284t-285 -117z" />
    <glyph glyph-name="four" unicode="4" horiz-adv-x="1306" 
d="M920 0v324h-859l850 1212h52v-1169h282v-43h-282v-324h-43zM139 367h781v1110z" />
    <glyph glyph-name="five" unicode="5" horiz-adv-x="970" 
d="M485 0q-167 0 -285 118t-118 285h41q0 -151 105.5 -255.5t256.5 -104.5t256 104.5t105 255.5t-105 257t-256 106h-266v770h649v-41h-606v-688h223q167 0 285.5 -118.5t118.5 -285.5t-118.5 -285t-285.5 -118z" />
    <glyph glyph-name="six" unicode="6" horiz-adv-x="968" 
d="M483 0q-167 0 -284 117t-117 284q0 137 82 246l624 889h48l-551 -782q91 51 198 51q167 0 285.5 -118.5t118.5 -285.5t-118 -284t-286 -117zM483 41q153 0 258 104t105 256t-105.5 257.5t-257.5 105.5t-256 -105t-104 -258q0 -152 104 -256t256 -104z" />
    <glyph glyph-name="seven" unicode="7" horiz-adv-x="1300" 
d="M111 0l1052 1495h-1102v41h1178l-1075 -1536h-53z" />
    <glyph glyph-name="eight" unicode="8" horiz-adv-x="972" 
d="M485 0q-167 0 -285 118t-118 285q0 133 77 239t199 146q-114 39 -185 138t-71 225q0 160 111.5 272.5t271.5 112.5t272.5 -112.5t112.5 -272.5q0 -126 -72.5 -225t-187.5 -138q123 -40 202 -146.5t79 -238.5q0 -167 -119 -285t-287 -118zM485 811q143 0 242.5 99
t99.5 241q0 143 -99.5 242.5t-242.5 99.5q-142 0 -241 -99.5t-99 -242.5q0 -146 96 -243t244 -97zM485 43q151 0 257 105t106 255q0 149 -102.5 253t-260.5 110q-160 -6 -260 -110.5t-100 -252.5q0 -151 104.5 -255.5t255.5 -104.5z" />
    <glyph glyph-name="nine" unicode="9" horiz-adv-x="970" 
d="M135 0l551 782q-91 -51 -199 -51q-167 0 -286 118.5t-119 285.5t118.5 284t286.5 117q167 0 284.5 -117t117.5 -284q0 -137 -82 -246l-625 -889h-47zM487 774q152 0 256.5 104.5t104.5 256.5t-104 255t-257 103t-257.5 -103t-104.5 -255t105 -256.5t257 -104.5z" />
    <glyph glyph-name="colon" unicode=":" horiz-adv-x="247" 
d="M123 725q-17 0 -29 12t-12 29t12 30t29 13t30 -13t13 -30t-13 -29t-30 -12zM123 -2q-17 0 -29 12t-12 29t12 30t29 13t30 -13t13 -30t-13 -29t-30 -12z" />
    <glyph glyph-name="semicolon" unicode=";" horiz-adv-x="247" 
d="M123 727q-17 0 -29 12t-12 29t12 30t29 13t30 -13t13 -30t-13 -29t-30 -12zM117 -70v70q-14 2 -23.5 13t-9.5 28q0 15 11 27t26 12q17 0 30 -12.5t13 -38.5q0 -29 -12 -54t-24 -35z" />
    <glyph glyph-name="equal" unicode="=" horiz-adv-x="1011" 
d="M102 879v41h807v-41h-807zM102 514v39h807v-39h-807z" />
    <glyph glyph-name="question" unicode="?" horiz-adv-x="1015" 
d="M506 164v600q152 0 260 107t108 259t-107 259.5t-259 107.5q-99 0 -183 -48t-133.5 -131.5t-50.5 -182.5h-39q1 109 56 201.5t148 146t202 53.5q167 0 286 -119.5t119 -286.5q0 -156 -105.5 -272t-258.5 -131v-563h-43zM528 0q-17 0 -29 12t-12 29t12 29t29 12t29 -12
t12 -29t-12 -29t-29 -12z" />
    <glyph glyph-name="at" unicode="@" horiz-adv-x="1804" 
d="M903 1120q196 0 361 -95.5t260.5 -260.5t95.5 -361q0 -211 -113 -395l-237 225q-53 -104 -150.5 -168.5t-216.5 -64.5q-167 0 -288 122t-121 290q0 166 121 286.5t288 120.5q119 0 217 -63.5t150 -167.5v211h41v-547l188 -184q80 160 80 335q0 140 -54 266t-144.5 216
t-215.5 143t-262 53q-188 0 -343.5 -89.5t-245 -245t-89.5 -343.5q0 -141 52.5 -266.5t143 -215.5t216 -142.5t266.5 -52.5v-39q-196 0 -361.5 95t-261.5 260t-96 361t96 361t261.5 260.5t361.5 95.5zM903 41q152 0 259.5 108.5t107.5 262.5q0 151 -107.5 259.5
t-259.5 108.5q-153 0 -260.5 -108.5t-107.5 -259.5q0 -154 107.5 -262.5t260.5 -108.5z" />
    <glyph glyph-name="A" unicode="A" horiz-adv-x="1687" 
d="M102 0l717 1536h43l723 -1536h-45l-233 494h-930l-230 -494h-45zM397 535h889l-444 954z" />
    <glyph glyph-name="B" unicode="B" horiz-adv-x="1685" 
d="M307 0v1536h760q154 0 263.5 -109.5t109.5 -263.5q0 -115 -64.5 -208.5t-167.5 -137.5q136 -34 225 -146t89 -255q0 -172 -122 -294t-294 -122h-799zM350 831h717q137 0 234.5 97.5t97.5 234.5t-97.5 234.5t-234.5 97.5h-717v-664zM350 41h756q155 0 265 110t110 265
t-110 265t-265 110h-756v-750z" />
    <glyph glyph-name="C" unicode="C" horiz-adv-x="1662" 
d="M954 0q-209 0 -386 103t-280.5 280t-103.5 385t103.5 385t280.5 280t386 103q156 0 295.5 -58t245.5 -163l-29 -27q-100 98 -232 152.5t-280 54.5t-283 -57.5t-232 -154.5t-154.5 -232t-57.5 -283t57.5 -283t154.5 -232t232 -154.5t283 -57.5q144 0 281 56.5t235 156.5
l29 -29q-106 -106 -250 -165.5t-295 -59.5z" />
    <glyph glyph-name="D" unicode="D" horiz-adv-x="1837" 
d="M307 0v1536h580q155 -1 297 -62t244.5 -164t163.5 -245t61 -297q0 -209 -103 -385.5t-279.5 -279.5t-385.5 -103h-578zM350 41h531q149 0 283.5 57.5t232.5 154.5t155.5 232t57.5 283t-57.5 283t-155.5 232t-232.5 154.5t-283.5 57.5h-531v-1454z" />
    <glyph glyph-name="E" unicode="E" horiz-adv-x="1431" 
d="M307 0v1536h961v-41h-918v-676h875v-41h-875v-737h918v-41h-961z" />
    <glyph glyph-name="F" unicode="F" horiz-adv-x="1431" 
d="M307 0v1536h961v-41h-918v-676h854v-41h-854v-778h-43z" />
    <glyph glyph-name="G" unicode="G" horiz-adv-x="1890" 
d="M954 0q-209 0 -386 103t-280.5 280t-103.5 385t103.5 385t280.5 280t386 103q156 0 295.5 -58t245.5 -163l-29 -27q-100 98 -232 152.5t-280 54.5t-283 -57.5t-232 -154.5t-154.5 -232t-57.5 -283t57.5 -283t154.5 -232t232 -154.5t283 -57.5q149 0 283.5 57t232.5 154
t155.5 232t57.5 284v14h-729v43h772v-57q0 -208 -104 -385t-281.5 -280t-386.5 -103z" />
    <glyph glyph-name="H" unicode="H" horiz-adv-x="1906" 
d="M307 0v1536h43v-717h1206v717h43v-1536h-43v780h-1206v-780h-43z" />
    <glyph glyph-name="I" unicode="I" horiz-adv-x="575" 
d="M266 0v1536h43v-1536h-43z" />
    <glyph glyph-name="J" unicode="J" horiz-adv-x="1245" 
d="M481 0q-63 0 -116 7.5t-90 18.5t-81 34.5t-72.5 42.5t-80.5 57l29 30q101 -81 194 -116t213 -35q78 0 153 16t150 54.5t131.5 96t91.5 149t35 204.5v977h43v-983q0 -257 -165 -405t-435 -148z" />
    <glyph glyph-name="K" unicode="K" horiz-adv-x="1497" 
d="M307 0v1536h43v-870l879 870h59l-704 -702l831 -834h-61l-803 799l-201 -199v-600h-43z" />
    <glyph glyph-name="L" unicode="L" horiz-adv-x="1327" 
d="M266 0v1536h43v-1497h916v-39h-959z" />
    <glyph glyph-name="M" unicode="M" horiz-adv-x="2156" 
d="M266 0v1536h62l749 -752l752 752h61v-1536h-43v1497l-770 -768l-768 768v-1497h-43z" />
    <glyph glyph-name="N" unicode="N" horiz-adv-x="1789" 
d="M246 0v1536h69l1186 -1495v1495h43v-1536h-65l-1190 1495v-1495h-43z" />
    <glyph glyph-name="O" unicode="O" horiz-adv-x="1910" 
d="M1726 768q0 -209 -103.5 -386t-281 -279.5t-387.5 -102.5q-157 0 -299.5 60.5t-245.5 163t-164 245t-61 299.5t61 299.5t164 245t245.5 163t299.5 60.5q210 0 387.5 -102.5t281 -279.5t103.5 -386zM1683 768q0 200 -97 367t-264.5 263.5t-367.5 96.5t-367 -96.5
t-263.5 -263.5t-96.5 -367t96.5 -367t263.5 -263.5t367 -96.5t367.5 96.5t264.5 263.5t97 367z" />
    <glyph glyph-name="P" unicode="P" horiz-adv-x="1406" 
d="M307 0v1536h522q187 0 321 -134t134 -321t-133.5 -319.5t-321.5 -132.5h-479v-629h-43zM350 668h479q170 2 291 122t121 291q0 172 -122 294t-294 122h-475v-829z" />
    <glyph glyph-name="Q" unicode="Q" horiz-adv-x="1910" 
d="M954 0q-157 0 -299.5 60.5t-245.5 163t-164 245t-61 299.5t61 299.5t164 245t245.5 163t299.5 60.5q210 0 387.5 -102.5t281 -279.5t103.5 -386q0 -156 -60 -296t-167 -247l227 -225h-61l-197 195q-103 -92 -236 -143.5t-278 -51.5zM954 41q138 0 264 47.5t224 134.5
l-461 461l31 31l461 -463q100 100 155 233t55 283q0 200 -97 367t-264.5 263.5t-367.5 96.5t-367 -96.5t-263.5 -263.5t-96.5 -367t96.5 -367t263.5 -263.5t367 -96.5z" />
    <glyph glyph-name="R" unicode="R" horiz-adv-x="1406" 
d="M307 0v1536h522q187 0 321 -134t134 -321q0 -186 -131 -317.5t-317 -134.5l362 -629h-47l-363 629h-438v-629h-43zM350 668h479q170 2 291 122t121 291q0 84 -32.5 160.5t-88 132t-131.5 89t-160 34.5h-479v-829z" />
    <glyph glyph-name="S" unicode="S" horiz-adv-x="1402" 
d="M676 0q-224 0 -368 116.5t-144 278.5h43q0 -100 64 -182t170.5 -127t230.5 -45q122 0 230 43t176.5 125.5t68.5 185.5q0 161 -132.5 262t-348.5 101q-229 0 -359.5 106t-130.5 285q0 170 149 278.5t365 108.5q220 0 364 -113t144 -278h-39q0 149 -133.5 249.5
t-337.5 100.5q-124 0 -230.5 -42.5t-172.5 -123.5t-66 -182q0 -157 120 -252.5t327 -95.5q129 0 231.5 -34t165 -91.5t95 -129.5t32.5 -151q0 -114 -73.5 -205.5t-190.5 -139.5t-250 -48z" />
    <glyph glyph-name="T" unicode="T" horiz-adv-x="1417" 
d="M686 0v1497h-584v39h1213v-39h-586v-1497h-43z" />
    <glyph glyph-name="U" unicode="U" horiz-adv-x="1542" 
d="M770 0q-165 0 -304.5 81t-220.5 220.5t-81 304.5v930h43v-930q0 -153 75.5 -282.5t205 -205t282.5 -75.5q152 0 282 75t206 204t77 282v932h43v-930q0 -165 -81.5 -304.5t-221.5 -220.5t-305 -81z" />
    <glyph glyph-name="V" unicode="V" horiz-adv-x="1648" 
d="M805 0l-723 1536h45l700 -1489l695 1489h45l-717 -1536h-45z" />
    <glyph glyph-name="W" unicode="W" horiz-adv-x="2443" 
d="M805 0l-723 1536h45l700 -1489l373 803h45l377 -803l694 1489h45l-716 -1536h-46l-376 801l-373 -801h-45z" />
    <glyph glyph-name="X" unicode="X" horiz-adv-x="1456" 
d="M143 0l559 797l-516 739h52l489 -702l492 702h51l-516 -739l559 -797h-53l-533 760l-530 -760h-54z" />
    <glyph glyph-name="Y" unicode="Y" horiz-adv-x="1337" 
d="M647 0v567l-565 969h49l537 -930l538 930h49l-565 -969v-567h-43z" />
    <glyph glyph-name="Z" unicode="Z" horiz-adv-x="1302" 
d="M184 0l863 1495h-863v41h934l-862 -1495h862v-41h-934z" />
    <glyph glyph-name="bracketleft" unicode="[" horiz-adv-x="305" 
d="M41 0v1536h203v-39h-160v-1456h160v-41h-203z" />
    <glyph glyph-name="backslash" unicode="\" horiz-adv-x="833" 
d="M750 0l-709 1538h43l709 -1538h-43z" />
    <glyph glyph-name="bracketright" unicode="]" horiz-adv-x="284" 
d="M41 0v41h160l-2 1456h-158v39h203v-1536h-203z" />
    <glyph glyph-name="underscore" unicode="_" horiz-adv-x="1011" 
d="M102 -43v43h807v-43h-807z" />
    <glyph glyph-name="grave" unicode="`" horiz-adv-x="258" 
d="M170 1706l-129 283h45l131 -283h-47z" />
    <glyph glyph-name="a" unicode="a" horiz-adv-x="1085" 
d="M879 799h43v-799h-43v227q-52 -103 -150.5 -165t-216.5 -62q-169 0 -289.5 120.5t-120.5 289.5t120.5 289t289.5 120q118 0 216.5 -62t150.5 -165v207zM512 45q152 0 259.5 107.5t107.5 259.5t-107.5 259t-259.5 107t-259.5 -107t-107.5 -259t107.5 -259.5t259.5 -107.5z
" />
    <glyph glyph-name="b" unicode="b" horiz-adv-x="1105" 
d="M594 819q169 0 289.5 -120t120.5 -289t-120.5 -289.5t-289.5 -120.5q-118 0 -216.5 62t-150.5 165v-227h-43v1538h43v-946q52 103 150.5 165t216.5 62zM594 45q152 0 259.5 107.5t107.5 259.5t-107.5 259t-259.5 107t-259.5 -107t-107.5 -259t107.5 -259.5t259.5 -107.5z
" />
    <glyph glyph-name="c" unicode="c" horiz-adv-x="882" 
d="M512 0q-169 0 -289.5 120.5t-120.5 289.5t120.5 289t289.5 120q170 0 289 -119l-29 -28q-109 106 -260 106q-152 0 -259.5 -107t-107.5 -259t107.5 -259.5t259.5 -107.5q145 0 258 105l31 -31q-119 -119 -289 -119z" />
    <glyph glyph-name="d" unicode="d" horiz-adv-x="1105" 
d="M879 1538h43v-1538h-43v227q-52 -103 -150.5 -165t-216.5 -62q-169 0 -289.5 120.5t-120.5 289.5t120.5 289t289.5 120q118 0 216.5 -62t150.5 -165v946zM512 45q152 0 259.5 107.5t107.5 259.5t-107.5 259t-259.5 107t-259.5 -107t-107.5 -259t107.5 -259.5
t259.5 -107.5z" />
    <glyph glyph-name="e" unicode="e" horiz-adv-x="1003" 
d="M512 819q169 0 289.5 -120t120.5 -289h-777q2 -152 108.5 -258.5t258.5 -106.5q154 0 262 111l33 -31q-125 -125 -295 -125q-169 0 -289.5 120.5t-120.5 289.5t120.5 289t289.5 120zM147 453h730q-17 138 -121 231.5t-244 93.5q-141 0 -245.5 -93.5t-119.5 -231.5z" />
    <glyph glyph-name="f" unicode="f" horiz-adv-x="516" 
d="M414 799v-43h-144v-756h-43v756h-145v43h145v442q0 154 123 295l31 -33q-111 -119 -111 -258v-446h144z" />
    <glyph glyph-name="g" unicode="g" horiz-adv-x="1105" 
d="M879 799h43v-1026q0 -103 -28 -184.5t-71.5 -131.5t-100 -83t-109.5 -45.5t-105 -12.5v39q42 0 87 10t97 38t92.5 71t67.5 115.5t27 164.5v473q-52 -103 -150.5 -165t-216.5 -62q-169 0 -289.5 120.5t-120.5 289.5t120.5 289t289.5 120q118 0 216.5 -62t150.5 -165v207z
M512 45q152 0 259.5 107.5t107.5 259.5t-107.5 259t-259.5 107t-259.5 -107t-107.5 -259t107.5 -259.5t259.5 -107.5z" />
    <glyph glyph-name="h" unicode="h" horiz-adv-x="1120" 
d="M184 0v1536h43v-924q54 101 151 154t200 53q155 0 266.5 -110.5t111.5 -278.5v-430h-43v424q0 156 -95.5 254t-235.5 98q-59 0 -120.5 -22.5t-114.5 -63.5t-86.5 -108t-33.5 -148v-434h-43z" />
    <glyph glyph-name="i" unicode="i" horiz-adv-x="411" 
d="M203 991q-17 0 -29 12t-12 29t12 29t29 12t29 -12t12 -29t-12 -29t-29 -12zM184 0v799h43v-799h-43z" />
    <glyph glyph-name="j" unicode="j" horiz-adv-x="411" 
d="M203 987q-17 0 -29 12t-12 29t12 29t29 12t29 -12t12 -29t-12 -29t-29 -12zM111 -643l-29 29q22 25 38.5 49t27.5 43t18.5 43.5t11.5 39t5.5 43.5t1.5 43.5t-0.5 51t-0.5 55.5v1045h43v-1026v-35q0 -52 -0.5 -77t-3.5 -64.5t-10 -63t-19.5 -55t-33 -60.5t-49.5 -61z" />
    <glyph glyph-name="k" unicode="k" horiz-adv-x="1021" 
d="M920 0h-58l-434 434l-201 -201v-233h-43v1538h43v-1241l510 502h58l-338 -336z" />
    <glyph glyph-name="l" unicode="l" horiz-adv-x="411" 
d="M184 0v1538h43v-1538h-43z" />
    <glyph glyph-name="m" unicode="m" horiz-adv-x="1736" 
d="M184 0v799h43v-166q44 84 128.5 135t176.5 51q130 0 218.5 -65.5t123.5 -165.5q43 109 133.5 170t192.5 61q114 0 201 -52.5t129.5 -131t42.5 -164.5v-471h-43v471q0 78 -36.5 146.5t-113 113.5t-178.5 45q-118 0 -210.5 -89t-92.5 -216v-471h-45v471q0 79 -34 146.5
t-108.5 113t-176.5 45.5q-124 0 -216 -88t-92 -231v-457h-43z" />
    <glyph glyph-name="n" unicode="n" horiz-adv-x="1056" 
d="M184 0v799h43v-166q44 84 128.5 135t176.5 51q86 0 156.5 -30.5t114 -80.5t67 -111.5t23.5 -125.5v-471h-43v471q0 124 -82.5 214.5t-232.5 90.5q-124 0 -216 -88t-92 -231v-457h-43z" />
    <glyph glyph-name="o" unicode="o" horiz-adv-x="1024" 
d="M512 0q-169 0 -289.5 120.5t-120.5 289.5t120.5 289t289.5 120t289.5 -120t120.5 -289t-120.5 -289.5t-289.5 -120.5zM512 45q152 0 259.5 107.5t107.5 259.5t-107.5 259t-259.5 107t-259.5 -107t-107.5 -259t107.5 -259.5t259.5 -107.5z" />
    <glyph glyph-name="p" unicode="p" horiz-adv-x="1105" 
d="M184 -719v1538h43v-227q52 103 150.5 165t216.5 62q169 0 289.5 -120t120.5 -289t-120.5 -289.5t-289.5 -120.5q-118 0 -216.5 62t-150.5 165v-946h-43zM594 41q152 0 259.5 107.5t107.5 259.5t-107.5 259t-259.5 107t-259.5 -107t-107.5 -259t107.5 -259.5t259.5 -107.5
z" />
    <glyph glyph-name="q" unicode="q" horiz-adv-x="1064" 
d="M879 -719v946q-52 -103 -150.5 -165t-216.5 -62q-169 0 -289.5 120.5t-120.5 289.5t120.5 289t289.5 120q118 0 216.5 -62t150.5 -165v227h43v-1538h-43zM512 41q152 0 259.5 107.5t107.5 259.5t-107.5 259t-259.5 107t-259.5 -107t-107.5 -259t107.5 -259.5
t259.5 -107.5z" />
    <glyph glyph-name="r" unicode="r" horiz-adv-x="659" 
d="M184 0v799h43v-207q53 104 153 165.5t218 61.5v-43q-147 0 -259 -102.5t-112 -259.5v-414h-43z" />
    <glyph glyph-name="s" unicode="s" horiz-adv-x="753" 
d="M379 0q-117 0 -197 63t-80 152h43q0 -75 68.5 -123.5t165.5 -48.5q92 0 159.5 49t67.5 125q0 74 -67.5 122t-159.5 48q-115 0 -196 60t-81 155q0 89 76.5 153t196.5 64q95 0 172 -45l-29 -31q-59 33 -143 33q-92 0 -162 -47t-70 -123q0 -73 65 -124.5t161 -51.5
q112 0 196 -57.5t84 -151.5q0 -100 -82 -160.5t-188 -60.5z" />
    <glyph glyph-name="t" unicode="t" horiz-adv-x="536" 
d="M393 756h-162v-465q0 -139 111 -258l-31 -33q-123 141 -123 295v461h-127v43h127v325h43v-325h162v-43z" />
    <glyph glyph-name="u" unicode="u" 
d="M518 0q-152 0 -253 108t-101 261v430h43v-430q0 -138 91.5 -232t223.5 -94q127 0 220.5 87t93.5 212v457h43v-799h-43v186q-46 -86 -130.5 -136t-187.5 -50z" />
    <glyph glyph-name="v" unicode="v" horiz-adv-x="849" 
d="M403 0l-372 799h45l350 -746l348 746h45l-373 -799h-43z" />
    <glyph glyph-name="w" unicode="w" horiz-adv-x="1445" 
d="M403 0l-372 799h45l350 -750l299 633l295 -633l350 750h45l-373 -799h-43l-274 584l-279 -584h-43z" />
    <glyph glyph-name="x" unicode="x" horiz-adv-x="686" 
d="M645 799l-278 -400l278 -399h-47l-254 367l-256 -367h-47l278 399l-278 400h47l256 -367l254 367h47z" />
    <glyph glyph-name="y" unicode="y" 
d="M465 -684v39q42 0 87 10t97 38t92.5 71t67.5 115.5t27 164.5v432q-46 -86 -130.5 -136t-187.5 -50q-152 0 -253 108t-101 261v430h43v-430q0 -138 91.5 -232t223.5 -94q127 0 220.5 87t93.5 212v457h43v-1026q0 -103 -28 -184.5t-71.5 -131.5t-100 -83t-109.5 -45.5
t-105 -12.5z" />
    <glyph glyph-name="z" unicode="z" horiz-adv-x="813" 
d="M711 799l-531 -756h531v-43h-609l531 756h-529v43h607z" />
    <glyph glyph-name="exclamdown" unicode="&#xa1;" horiz-adv-x="284" 
d="M141 1456q-17 0 -28 12t-11 29t11 28t28 11t29 -11t12 -28t-12 -29t-29 -12zM123 0v1374h43v-1374h-43z" />
    <glyph glyph-name="dieresis" unicode="&#xa8;" horiz-adv-x="403" 
d="M82 1686q-17 0 -29 11.5t-12 28.5t12 29t29 12t29 -12t12 -29t-12 -28.5t-29 -11.5zM322 1686q-17 0 -29 11.5t-12 28.5t12 29t29 12t28.5 -12t11.5 -29t-11.5 -28.5t-28.5 -11.5z" />
    <glyph glyph-name="macron" unicode="&#xaf;" horiz-adv-x="573" 
d="M41 1708v41h491v-41h-491z" />
    <glyph glyph-name="acute" unicode="&#xb4;" horiz-adv-x="258" 
d="M41 1706l131 283h45l-129 -283h-47z" />
    <glyph glyph-name="cedilla" unicode="&#xb8;" horiz-adv-x="260" 
d="M41 -289l139 295h39l-133 -295h-45z" />
    <glyph glyph-name="questiondown" unicode="&#xbf;" horiz-adv-x="933" 
d="M446 1454q-17 0 -28.5 12t-11.5 29t11.5 29t28.5 12t29 -12t12 -29t-12 -29t-29 -12zM467 0q-167 0 -286.5 119.5t-119.5 286.5q0 156 106 272t259 131v563h43v-600q-153 0 -261 -107t-108 -259t107.5 -259.5t259.5 -107.5q99 0 183 48t133.5 131.5t50.5 182.5h38
q-1 -109 -55.5 -201t-147.5 -146t-202 -54z" />
    <glyph glyph-name="Agrave" unicode="&#xc0;" horiz-adv-x="1687" 
d="M821 1706l-129 283h45l131 -283h-47zM102 0l717 1536h43l723 -1536h-45l-233 494h-930l-230 -494h-45zM397 535h889l-444 954z" />
    <glyph glyph-name="Aacute" unicode="&#xc1;" horiz-adv-x="1687" 
d="M819 1706l131 283h45l-129 -283h-47zM102 0l717 1536h43l723 -1536h-45l-233 494h-930l-230 -494h-45zM397 535h889l-444 954z" />
    <glyph glyph-name="Acircumflex" unicode="&#xc2;" horiz-adv-x="1687" 
d="M684 1706l131 283h45l135 -283h-47l-108 238l-109 -238h-47zM102 0l717 1536h43l723 -1536h-45l-233 494h-930l-230 -494h-45zM397 535h889l-444 954z" />
    <glyph glyph-name="Atilde" unicode="&#xc3;" horiz-adv-x="1687" 
d="M997 1698q-44 0 -103.5 25.5t-114.5 51t-89 25.5q-43 0 -80 -31t-37 -69h-41q0 51 49 96t109 45q48 0 157 -51t150 -51q43 0 77 29t34 71h41q0 -53 -45 -97t-107 -44zM102 0l717 1536h43l723 -1536h-45l-233 494h-930l-230 -494h-45zM397 535h889l-444 954z" />
    <glyph glyph-name="Adieresis" unicode="&#xc4;" horiz-adv-x="1687" 
d="M721 1686q-17 0 -29 11.5t-12 28.5t12 29t29 12t29 -12t12 -29t-12 -28.5t-29 -11.5zM961 1686q-17 0 -29 11.5t-12 28.5t12 29t29 12t28.5 -12t11.5 -29t-11.5 -28.5t-28.5 -11.5zM102 0l717 1536h43l723 -1536h-45l-233 494h-930l-230 -494h-45zM397 535h889l-444 954z
" />
    <glyph glyph-name="Aring" unicode="&#xc5;" horiz-adv-x="1687" 
d="M844 1739q-52 0 -89.5 37.5t-37.5 89.5q0 51 37.5 88t89.5 37q51 0 88 -37t37 -88q0 -52 -37 -89.5t-88 -37.5zM844 1780q35 0 59.5 24.5t24.5 61.5q0 35 -24.5 59.5t-59.5 24.5q-37 0 -61.5 -24.5t-24.5 -59.5q0 -37 24.5 -61.5t61.5 -24.5zM102 0l717 1536h43
l723 -1536h-45l-233 494h-930l-230 -494h-45zM397 535h889l-444 954z" />
    <glyph glyph-name="AE" unicode="&#xc6;" horiz-adv-x="2125" 
d="M102 0l889 1536h971v-41h-918v-676h875v-41h-875v-737h918v-41h-961v494h-567l-287 -494h-45zM459 535h542v933z" />
    <glyph glyph-name="Ccedilla" unicode="&#xc7;" horiz-adv-x="1662" 
d="M1499 225q-104 -104 -244 -163t-288 -62l-131 -289h-45l137 289q-203 7 -374 111t-270.5 278.5t-99.5 378.5q0 208 103.5 385t280.5 280t386 103q156 0 295.5 -58t245.5 -163l-29 -27q-100 98 -232 152.5t-280 54.5t-283 -57.5t-232 -154.5t-154.5 -232t-57.5 -283
t57.5 -283t154.5 -232t232 -154.5t283 -57.5q144 0 281 56.5t235 156.5z" />
    <glyph glyph-name="Egrave" unicode="&#xc8;" horiz-adv-x="1431" 
d="M813 1706l-129 283h45l131 -283h-47zM307 0v1536h961v-41h-918v-676h875v-41h-875v-737h918v-41h-961z" />
    <glyph glyph-name="Eacute" unicode="&#xc9;" horiz-adv-x="1431" 
d="M811 1706l131 283h45l-129 -283h-47zM307 0v1536h961v-41h-918v-676h875v-41h-875v-737h918v-41h-961z" />
    <glyph glyph-name="Ecircumflex" unicode="&#xca;" horiz-adv-x="1431" 
d="M676 1706l131 283h45l135 -283h-47l-109 238l-108 -238h-47zM307 0v1536h961v-41h-918v-676h875v-41h-875v-737h918v-41h-961z" />
    <glyph glyph-name="Edieresis" unicode="&#xcb;" horiz-adv-x="1431" 
d="M713 1686q-17 0 -29 11.5t-12 28.5t12 29t29 12t29 -12t12 -29t-12 -28.5t-29 -11.5zM952 1686q-17 0 -29 11.5t-12 28.5t12 29t29 12t29 -12t12 -29t-12 -28.5t-29 -11.5zM307 0v1536h961v-41h-918v-676h875v-41h-875v-737h918v-41h-961z" />
    <glyph glyph-name="Igrave" unicode="&#xcc;" horiz-adv-x="575" 
d="M270 1706l-129 283h45l131 -283h-47zM266 0v1536h43v-1536h-43z" />
    <glyph glyph-name="Iacute" unicode="&#xcd;" horiz-adv-x="575" 
d="M268 1706l131 283h45l-129 -283h-47zM266 0v1536h43v-1536h-43z" />
    <glyph glyph-name="Icircumflex" unicode="&#xce;" horiz-adv-x="575" 
d="M133 1706l131 283h45l135 -283h-47l-108 238l-109 -238h-47zM266 0v1536h43v-1536h-43z" />
    <glyph glyph-name="Idieresis" unicode="&#xcf;" horiz-adv-x="575" 
d="M170 1686q-17 0 -29 11.5t-12 28.5t12 29t29 12t29 -12t12 -29t-12 -28.5t-29 -11.5zM410 1686q-17 0 -29 11.5t-12 28.5t12 29t29 12t29 -12t12 -29t-12 -28.5t-29 -11.5zM266 0v1536h43v-1536h-43z" />
    <glyph glyph-name="Eth" unicode="&#xd0;" horiz-adv-x="2058" 
d="M1108 1536q155 -1 297 -62t244.5 -164t163.5 -245t61 -297q0 -209 -103 -385.5t-279.5 -279.5t-385.5 -103h-576v756h-223v43h223v737h578zM1102 41q149 0 283.5 57.5t232.5 154.5t155.5 232t57.5 283t-57.5 283t-155.5 232t-232.5 154.5t-283.5 57.5h-531v-696h226v-43
h-226v-715h531z" />
    <glyph glyph-name="Ntilde" unicode="&#xd1;" horiz-adv-x="1789" 
d="M1020 1698q-44 0 -103.5 25.5t-114.5 51t-89 25.5q-43 0 -80 -31t-37 -69h-41q0 51 49 96t109 45q48 0 157 -51t150 -51q43 0 76.5 29t33.5 71h41q0 -53 -44.5 -97t-106.5 -44zM246 0v1536h69l1186 -1495v1495h43v-1536h-65l-1190 1495v-1495h-43z" />
    <glyph glyph-name="Ograve" unicode="&#xd2;" horiz-adv-x="1910" 
d="M934 1706l-129 283h45l131 -283h-47zM1726 768q0 -209 -103.5 -386t-281 -279.5t-387.5 -102.5q-157 0 -299.5 60.5t-245.5 163t-164 245t-61 299.5t61 299.5t164 245t245.5 163t299.5 60.5q210 0 387.5 -102.5t281 -279.5t103.5 -386zM1683 768q0 200 -97 367
t-264.5 263.5t-367.5 96.5t-367 -96.5t-263.5 -263.5t-96.5 -367t96.5 -367t263.5 -263.5t367 -96.5t367.5 96.5t264.5 263.5t97 367z" />
    <glyph glyph-name="Oacute" unicode="&#xd3;" horiz-adv-x="1910" 
d="M932 1706l131 283h45l-129 -283h-47zM1726 768q0 -209 -103.5 -386t-281 -279.5t-387.5 -102.5q-157 0 -299.5 60.5t-245.5 163t-164 245t-61 299.5t61 299.5t164 245t245.5 163t299.5 60.5q210 0 387.5 -102.5t281 -279.5t103.5 -386zM1683 768q0 200 -97 367
t-264.5 263.5t-367.5 96.5t-367 -96.5t-263.5 -263.5t-96.5 -367t96.5 -367t263.5 -263.5t367 -96.5t367.5 96.5t264.5 263.5t97 367z" />
    <glyph glyph-name="Ocircumflex" unicode="&#xd4;" horiz-adv-x="1910" 
d="M797 1706l131 283h45l135 -283h-47l-109 238l-108 -238h-47zM1726 768q0 -209 -103.5 -386t-281 -279.5t-387.5 -102.5q-157 0 -299.5 60.5t-245.5 163t-164 245t-61 299.5t61 299.5t164 245t245.5 163t299.5 60.5q210 0 387.5 -102.5t281 -279.5t103.5 -386zM1683 768
q0 200 -97 367t-264.5 263.5t-367.5 96.5t-367 -96.5t-263.5 -263.5t-96.5 -367t96.5 -367t263.5 -263.5t367 -96.5t367.5 96.5t264.5 263.5t97 367z" />
    <glyph glyph-name="Otilde" unicode="&#xd5;" horiz-adv-x="1910" 
d="M1110 1698q-44 0 -103.5 25.5t-114.5 51t-89 25.5q-43 0 -80 -31t-37 -69h-41q0 51 49 96t109 45q48 0 157 -51t150 -51q43 0 77 29t34 71h41q0 -53 -45 -97t-107 -44zM1726 768q0 -209 -103.5 -386t-281 -279.5t-387.5 -102.5q-157 0 -299.5 60.5t-245.5 163t-164 245
t-61 299.5t61 299.5t164 245t245.5 163t299.5 60.5q210 0 387.5 -102.5t281 -279.5t103.5 -386zM1683 768q0 200 -97 367t-264.5 263.5t-367.5 96.5t-367 -96.5t-263.5 -263.5t-96.5 -367t96.5 -367t263.5 -263.5t367 -96.5t367.5 96.5t264.5 263.5t97 367z" />
    <glyph glyph-name="Odieresis" unicode="&#xd6;" horiz-adv-x="1910" 
d="M834 1686q-17 0 -29 11.5t-12 28.5t12 29t29 12t28.5 -12t11.5 -29t-11.5 -28.5t-28.5 -11.5zM1073 1686q-17 0 -29 11.5t-12 28.5t12 29t29 12t29 -12t12 -29t-12 -28.5t-29 -11.5zM1726 768q0 -209 -103.5 -386t-281 -279.5t-387.5 -102.5q-157 0 -299.5 60.5
t-245.5 163t-164 245t-61 299.5t61 299.5t164 245t245.5 163t299.5 60.5q210 0 387.5 -102.5t281 -279.5t103.5 -386zM1683 768q0 200 -97 367t-264.5 263.5t-367.5 96.5t-367 -96.5t-263.5 -263.5t-96.5 -367t96.5 -367t263.5 -263.5t367 -96.5t367.5 96.5t264.5 263.5
t97 367z" />
    <glyph glyph-name="Oslash" unicode="&#xd8;" horiz-adv-x="1910" 
d="M1532 1278q92 -103 143 -234t51 -276q0 -209 -103.5 -386t-281 -279.5t-387.5 -102.5q-291 0 -510 190l-147 -147l-27 27l148 147q-110 107 -172 249.5t-62 301.5q0 157 61 299.5t164 245t245.5 163t299.5 60.5q160 0 302.5 -61t250.5 -170l183 182l30 -23zM227 768
q0 -152 58 -287t161 -235l1033 1030q-102 103 -237.5 161t-287.5 58q-200 0 -367 -96.5t-263.5 -263.5t-96.5 -367zM954 41q200 0 367.5 96.5t264.5 263.5t97 367q0 136 -47 259.5t-133 221.5l-1030 -1030q207 -178 481 -178z" />
    <glyph glyph-name="Ugrave" unicode="&#xd9;" horiz-adv-x="1542" 
d="M750 1706l-129 283h45l131 -283h-47zM770 0q-165 0 -304.5 81t-220.5 220.5t-81 304.5v930h43v-930q0 -153 75.5 -282.5t205 -205t282.5 -75.5q152 0 282 75t206 204t77 282v932h43v-930q0 -165 -81.5 -304.5t-221.5 -220.5t-305 -81z" />
    <glyph glyph-name="Uacute" unicode="&#xda;" horiz-adv-x="1542" 
d="M748 1706l131 283h45l-129 -283h-47zM770 0q-165 0 -304.5 81t-220.5 220.5t-81 304.5v930h43v-930q0 -153 75.5 -282.5t205 -205t282.5 -75.5q152 0 282 75t206 204t77 282v932h43v-930q0 -165 -81.5 -304.5t-221.5 -220.5t-305 -81z" />
    <glyph glyph-name="Ucircumflex" unicode="&#xdb;" horiz-adv-x="1542" 
d="M612 1706l131 283h45l136 -283h-47l-109 238l-109 -238h-47zM770 0q-165 0 -304.5 81t-220.5 220.5t-81 304.5v930h43v-930q0 -153 75.5 -282.5t205 -205t282.5 -75.5q152 0 282 75t206 204t77 282v932h43v-930q0 -165 -81.5 -304.5t-221.5 -220.5t-305 -81z" />
    <glyph glyph-name="Udieresis" unicode="&#xdc;" horiz-adv-x="1542" 
d="M649 1686q-17 0 -29 11.5t-12 28.5t12 29t29 12t29 -12t12 -29t-12 -28.5t-29 -11.5zM889 1686q-17 0 -29 11.5t-12 28.5t12 29t29 12t29 -12t12 -29t-12 -28.5t-29 -11.5zM770 0q-165 0 -304.5 81t-220.5 220.5t-81 304.5v930h43v-930q0 -153 75.5 -282.5t205 -205
t282.5 -75.5q152 0 282 75t206 204t77 282v932h43v-930q0 -165 -81.5 -304.5t-221.5 -220.5t-305 -81z" />
    <glyph glyph-name="Yacute" unicode="&#xdd;" horiz-adv-x="1337" 
d="M643 1706l131 283h45l-129 -283h-47zM647 0v567l-565 969h49l537 -930l538 930h49l-565 -969v-567h-43z" />
    <glyph glyph-name="agrave" unicode="&#xe0;" horiz-adv-x="1085" 
d="M537 1008h-48l-129 282h46zM879 799h43v-799h-43v227q-52 -103 -150.5 -165t-216.5 -62q-169 0 -289.5 120.5t-120.5 289.5t120.5 289t289.5 120q118 0 216.5 -62t150.5 -165v207zM512 45q152 0 259.5 107.5t107.5 259.5t-107.5 259t-259.5 107t-259.5 -107t-107.5 -259
t107.5 -259.5t259.5 -107.5z" />
    <glyph glyph-name="aacute" unicode="&#xe1;" horiz-adv-x="1085" 
d="M664 1290l-129 -282h-48l131 282h46zM879 799h43v-799h-43v227q-52 -103 -150.5 -165t-216.5 -62q-169 0 -289.5 120.5t-120.5 289.5t120.5 289t289.5 120q118 0 216.5 -62t150.5 -165v207zM512 45q152 0 259.5 107.5t107.5 259.5t-107.5 259t-259.5 107t-259.5 -107
t-107.5 -259t107.5 -259.5t259.5 -107.5z" />
    <glyph glyph-name="acircumflex" unicode="&#xe2;" horiz-adv-x="1085" 
d="M508 1245l-109 -237h-47l131 282h45l136 -282h-48zM879 799h43v-799h-43v227q-52 -103 -150.5 -165t-216.5 -62q-169 0 -289.5 120.5t-120.5 289.5t120.5 289t289.5 120q118 0 216.5 -62t150.5 -165v207zM512 45q152 0 259.5 107.5t107.5 259.5t-107.5 259t-259.5 107
t-259.5 -107t-107.5 -259t107.5 -259.5t259.5 -107.5z" />
    <glyph glyph-name="atilde" unicode="&#xe3;" horiz-adv-x="1085" 
d="M358 1102q-43 0 -79.5 -31.5t-36.5 -69.5h-41q0 51 48.5 96.5t108.5 45.5q48 0 157.5 -51.5t150.5 -51.5q42 0 76 29.5t34 71.5h41q0 -53 -44.5 -97.5t-106.5 -44.5q-44 0 -103.5 25.5t-115 51.5t-89.5 26zM879 799h43v-799h-43v227q-52 -103 -150.5 -165t-216.5 -62
q-169 0 -289.5 120.5t-120.5 289.5t120.5 289t289.5 120q118 0 216.5 -62t150.5 -165v207zM512 45q152 0 259.5 107.5t107.5 259.5t-107.5 259t-259.5 107t-259.5 -107t-107.5 -259t107.5 -259.5t259.5 -107.5z" />
    <glyph glyph-name="adieresis" unicode="&#xe4;" horiz-adv-x="1085" 
d="M389 987q-17 0 -29 12t-12 29t12 29t29 12t29 -12t12 -29t-12 -29t-29 -12zM629 987q-17 0 -29 12t-12 29t12 29t29 12t29 -12t12 -29t-12 -29t-29 -12zM879 799h43v-799h-43v227q-52 -103 -150.5 -165t-216.5 -62q-169 0 -289.5 120.5t-120.5 289.5t120.5 289t289.5 120
q118 0 216.5 -62t150.5 -165v207zM512 45q152 0 259.5 107.5t107.5 259.5t-107.5 259t-259.5 107t-259.5 -107t-107.5 -259t107.5 -259.5t259.5 -107.5z" />
    <glyph glyph-name="aring" unicode="&#xe5;" horiz-adv-x="1085" 
d="M512 1040q-52 0 -89.5 37t-37.5 90q0 51 37.5 88t89.5 37q51 0 88 -37t37 -88q0 -52 -37 -89.5t-88 -37.5zM512 1251q-37 0 -61.5 -24.5t-24.5 -59.5q0 -37 24.5 -61.5t61.5 -24.5q35 0 59.5 24.5t24.5 61.5q0 35 -24.5 59.5t-59.5 24.5zM879 799h43v-799h-43v227
q-52 -103 -150.5 -165t-216.5 -62q-169 0 -289.5 120.5t-120.5 289.5t120.5 289t289.5 120q118 0 216.5 -62t150.5 -165v207zM512 45q152 0 259.5 107.5t107.5 259.5t-107.5 259t-259.5 107t-259.5 -107t-107.5 -259t107.5 -259.5t259.5 -107.5z" />
    <glyph glyph-name="ae" unicode="&#xe6;" horiz-adv-x="1779" 
d="M512 0q-169 0 -289.5 120.5t-120.5 289.5t120.5 289t289.5 120q118 0 216.5 -62t150.5 -165v207h43v-207q52 103 150 165t216 62q169 0 289.5 -120t120.5 -289h-776q2 -153 108 -259t258 -106q154 0 262 111l33 -31q-125 -125 -295 -125q-118 0 -216 62t-150 165v-227
h-43v227q-52 -103 -150.5 -165t-216.5 -62zM512 45q152 0 259.5 107.5t107.5 259.5t-107.5 259t-259.5 107t-259.5 -107t-107.5 -259t107.5 -259.5t259.5 -107.5zM924 453h729q-17 138 -121 231.5t-244 93.5q-141 0 -245 -93.5t-119 -231.5z" />
    <glyph glyph-name="ccedilla" unicode="&#xe7;" horiz-adv-x="882" 
d="M770 150l31 -31q-113 -113 -273 -119l-131 -289h-45l137 289q-161 9 -274 128t-113 282q0 169 120.5 289t289.5 120q170 0 289 -119l-29 -28q-109 106 -260 106q-152 0 -259.5 -107t-107.5 -259t107.5 -259.5t259.5 -107.5q145 0 258 105z" />
    <glyph glyph-name="egrave" unicode="&#xe8;" horiz-adv-x="1003" 
d="M541 1008h-47l-129 282h45zM512 819q169 0 289.5 -120t120.5 -289h-777q2 -152 108.5 -258.5t258.5 -106.5q154 0 262 111l33 -31q-125 -125 -295 -125q-169 0 -289.5 120.5t-120.5 289.5t120.5 289t289.5 120zM147 453h730q-17 138 -121 231.5t-244 93.5
q-141 0 -245.5 -93.5t-119.5 -231.5z" />
    <glyph glyph-name="eacute" unicode="&#xe9;" horiz-adv-x="1003" 
d="M668 1290l-129 -282h-47l131 282h45zM512 819q169 0 289.5 -120t120.5 -289h-777q2 -152 108.5 -258.5t258.5 -106.5q154 0 262 111l33 -31q-125 -125 -295 -125q-169 0 -289.5 120.5t-120.5 289.5t120.5 289t289.5 120zM147 453h730q-17 138 -121 231.5t-244 93.5
q-141 0 -245.5 -93.5t-119.5 -231.5z" />
    <glyph glyph-name="ecircumflex" unicode="&#xea;" horiz-adv-x="1003" 
d="M512 1245l-109 -237h-47l131 282h45l136 -282h-47zM512 819q169 0 289.5 -120t120.5 -289h-777q2 -152 108.5 -258.5t258.5 -106.5q154 0 262 111l33 -31q-125 -125 -295 -125q-169 0 -289.5 120.5t-120.5 289.5t120.5 289t289.5 120zM147 453h730q-17 138 -121 231.5
t-244 93.5q-141 0 -245.5 -93.5t-119.5 -231.5z" />
    <glyph glyph-name="edieresis" unicode="&#xeb;" horiz-adv-x="1003" 
d="M393 987q-17 0 -29 12t-12 29t12 29t29 12t29 -12t12 -29t-12 -29t-29 -12zM633 987q-17 0 -29 12t-12 29t12 29t29 12t29 -12t12 -29t-12 -29t-29 -12zM512 819q169 0 289.5 -120t120.5 -289h-777q2 -152 108.5 -258.5t258.5 -106.5q154 0 262 111l33 -31
q-125 -125 -295 -125q-169 0 -289.5 120.5t-120.5 289.5t120.5 289t289.5 120zM147 453h730q-17 138 -121 231.5t-244 93.5q-141 0 -245.5 -93.5t-119.5 -231.5z" />
    <glyph glyph-name="igrave" unicode="&#xec;" horiz-adv-x="411" 
d="M182 1012l-129 282h45l131 -282h-47zM184 0v799h43v-799h-43z" />
    <glyph glyph-name="iacute" unicode="&#xed;" horiz-adv-x="411" 
d="M180 1012l131 282h45l-129 -282h-47zM184 0v799h43v-799h-43z" />
    <glyph glyph-name="icircumflex" unicode="&#xee;" horiz-adv-x="411" 
d="M45 1012l131 282h45l135 -282h-47l-108 237l-109 -237h-47zM184 0v799h43v-799h-43z" />
    <glyph glyph-name="idieresis" unicode="&#xef;" horiz-adv-x="411" 
d="M82 991q-17 0 -29 12t-12 29t12 29t29 12t29 -12t12 -29t-12 -29t-29 -12zM322 991q-17 0 -29 12t-12 29t12 29t29 12t28.5 -12t11.5 -29t-11.5 -29t-28.5 -12zM184 0v799h43v-799h-43z" />
    <glyph glyph-name="ntilde" unicode="&#xf1;" horiz-adv-x="1056" 
d="M698 999q-44 0 -103.5 25.5t-114.5 51.5t-89 26q-43 0 -80 -31.5t-37 -69.5h-41q0 51 49 96.5t109 45.5q48 0 157 -51.5t150 -51.5q43 0 77 29.5t34 71.5h41q0 -53 -45 -97.5t-107 -44.5zM184 0v799h43v-166q44 84 128.5 135t176.5 51q86 0 156.5 -30.5t114 -80.5
t67 -111.5t23.5 -125.5v-471h-43v471q0 124 -82.5 214.5t-232.5 90.5q-124 0 -216 -88t-92 -231v-457h-43z" />
    <glyph glyph-name="ograve" unicode="&#xf2;" horiz-adv-x="1024" 
d="M489 1008l-129 282h46l131 -282h-48zM512 0q-169 0 -289.5 120.5t-120.5 289.5t120.5 289t289.5 120t289.5 -120t120.5 -289t-120.5 -289.5t-289.5 -120.5zM512 45q152 0 259.5 107.5t107.5 259.5t-107.5 259t-259.5 107t-259.5 -107t-107.5 -259t107.5 -259.5
t259.5 -107.5z" />
    <glyph glyph-name="oacute" unicode="&#xf3;" horiz-adv-x="1024" 
d="M487 1008l131 282h46l-129 -282h-48zM512 0q-169 0 -289.5 120.5t-120.5 289.5t120.5 289t289.5 120t289.5 -120t120.5 -289t-120.5 -289.5t-289.5 -120.5zM512 45q152 0 259.5 107.5t107.5 259.5t-107.5 259t-259.5 107t-259.5 -107t-107.5 -259t107.5 -259.5
t259.5 -107.5z" />
    <glyph glyph-name="ocircumflex" unicode="&#xf4;" horiz-adv-x="1024" 
d="M352 1008l131 282h45l136 -282h-48l-108 237l-109 -237h-47zM512 0q-169 0 -289.5 120.5t-120.5 289.5t120.5 289t289.5 120t289.5 -120t120.5 -289t-120.5 -289.5t-289.5 -120.5zM512 45q152 0 259.5 107.5t107.5 259.5t-107.5 259t-259.5 107t-259.5 -107t-107.5 -259
t107.5 -259.5t259.5 -107.5z" />
    <glyph glyph-name="otilde" unicode="&#xf5;" horiz-adv-x="1024" 
d="M666 999q-44 0 -103.5 25.5t-115 51.5t-89.5 26q-43 0 -79.5 -31.5t-36.5 -69.5h-41q0 51 48.5 96.5t108.5 45.5q48 0 157.5 -51.5t150.5 -51.5q42 0 76 29.5t34 71.5h41q0 -53 -44.5 -97.5t-106.5 -44.5zM512 0q-169 0 -289.5 120.5t-120.5 289.5t120.5 289t289.5 120
t289.5 -120t120.5 -289t-120.5 -289.5t-289.5 -120.5zM512 45q152 0 259.5 107.5t107.5 259.5t-107.5 259t-259.5 107t-259.5 -107t-107.5 -259t107.5 -259.5t259.5 -107.5z" />
    <glyph glyph-name="odieresis" unicode="&#xf6;" horiz-adv-x="1024" 
d="M389 987q-17 0 -29 12t-12 29t12 29t29 12t29 -12t12 -29t-12 -29t-29 -12zM629 987q-17 0 -29 12t-12 29t12 29t29 12t29 -12t12 -29t-12 -29t-29 -12zM512 0q-169 0 -289.5 120.5t-120.5 289.5t120.5 289t289.5 120t289.5 -120t120.5 -289t-120.5 -289.5t-289.5 -120.5
zM512 45q152 0 259.5 107.5t107.5 259.5t-107.5 259t-259.5 107t-259.5 -107t-107.5 -259t107.5 -259.5t259.5 -107.5z" />
    <glyph glyph-name="oslash" unicode="&#xf8;" horiz-adv-x="1024" 
d="M815 684q107 -117 107 -274q0 -169 -120.5 -289.5t-289.5 -120.5q-158 0 -274 106l-95 -94l-26 27l94 94q-109 115 -109 277q0 169 120.5 289t289.5 120q161 0 279 -108l88 88l26 -25zM145 412q0 -139 97 -248l518 518q-103 96 -248 96q-152 0 -259.5 -107t-107.5 -259z
M512 45q152 0 259.5 107.5t107.5 259.5q0 135 -93 243l-518 -518q107 -92 244 -92z" />
    <glyph glyph-name="ugrave" unicode="&#xf9;" 
d="M500 1008l-129 282h45l131 -282h-47zM518 0q-152 0 -253 108t-101 261v430h43v-430q0 -138 91.5 -232t223.5 -94q127 0 220.5 87t93.5 212v457h43v-799h-43v186q-46 -86 -130.5 -136t-187.5 -50z" />
    <glyph glyph-name="uacute" unicode="&#xfa;" 
d="M498 1008l131 282h45l-129 -282h-47zM518 0q-152 0 -253 108t-101 261v430h43v-430q0 -138 91.5 -232t223.5 -94q127 0 220.5 87t93.5 212v457h43v-799h-43v186q-46 -86 -130.5 -136t-187.5 -50z" />
    <glyph glyph-name="ucircumflex" unicode="&#xfb;" 
d="M362 1008l132 282h45l135 -282h-47l-109 237l-108 -237h-48zM518 0q-152 0 -253 108t-101 261v430h43v-430q0 -138 91.5 -232t223.5 -94q127 0 220.5 87t93.5 212v457h43v-799h-43v186q-46 -86 -130.5 -136t-187.5 -50z" />
    <glyph glyph-name="udieresis" unicode="&#xfc;" 
d="M399 987q-17 0 -29 12t-12 29t12 29t29 12t29 -12t12 -29t-12 -29t-29 -12zM639 987q-17 0 -29 12t-12 29t12 29t29 12t29 -12t12 -29t-12 -29t-29 -12zM518 0q-152 0 -253 108t-101 261v430h43v-430q0 -138 91.5 -232t223.5 -94q127 0 220.5 87t93.5 212v457h43v-799
h-43v186q-46 -86 -130.5 -136t-187.5 -50z" />
    <glyph glyph-name="yacute" unicode="&#xfd;" 
d="M496 1008l131 282h45l-129 -282h-47zM465 -684v39q42 0 87 10t97 38t92.5 71t67.5 115.5t27 164.5v432q-46 -86 -130.5 -136t-187.5 -50q-152 0 -253 108t-101 261v430h43v-430q0 -138 91.5 -232t223.5 -94q127 0 220.5 87t93.5 212v457h43v-1026q0 -103 -28 -184.5
t-71.5 -131.5t-100 -83t-109.5 -45.5t-105 -12.5z" />
    <glyph glyph-name="thorn" unicode="&#xfe;" horiz-adv-x="1228" 
d="M561 819q169 0 289.5 -120t120.5 -289t-120.5 -289.5t-289.5 -120.5q-118 0 -216 62t-150 165v-946h-43v1843h43v-532q52 103 150 165t216 62zM561 41q152 0 259.5 107.5t107.5 259.5t-107.5 259t-259.5 107t-259 -107t-107 -259t107 -259.5t259 -107.5z" />
    <glyph glyph-name="ydieresis" unicode="&#xff;" 
d="M397 987q-17 0 -29 12t-12 29t12 29t29 12t29 -12t12 -29t-12 -29t-29 -12zM637 987q-17 0 -29 12t-12 29t12 29t29 12t29 -12t12 -29t-12 -29t-29 -12zM465 -684v39q42 0 87 10t97 38t92.5 71t67.5 115.5t27 164.5v432q-46 -86 -130.5 -136t-187.5 -50q-152 0 -253 108
t-101 261v430h43v-430q0 -138 91.5 -232t223.5 -94q127 0 220.5 87t93.5 212v457h43v-1026q0 -103 -28 -184.5t-71.5 -131.5t-100 -83t-109.5 -45.5t-105 -12.5z" />
    <glyph glyph-name="Amacron" unicode="&#x100;" horiz-adv-x="1687" 
d="M594 1708v41h491v-41h-491zM102 0l717 1536h43l723 -1536h-45l-233 494h-930l-230 -494h-45zM397 535h889l-444 954z" />
    <glyph glyph-name="amacron" unicode="&#x101;" horiz-adv-x="1085" 
d="M754 1051v-41h-492v41h492zM879 799h43v-799h-43v227q-52 -103 -150.5 -165t-216.5 -62q-169 0 -289.5 120.5t-120.5 289.5t120.5 289t289.5 120q118 0 216.5 -62t150.5 -165v207zM512 45q152 0 259.5 107.5t107.5 259.5t-107.5 259t-259.5 107t-259.5 -107t-107.5 -259
t107.5 -259.5t259.5 -107.5z" />
    <glyph glyph-name="Abreve" unicode="&#x102;" horiz-adv-x="1687" 
d="M844 1704q-94 0 -159.5 64.5t-68.5 158.5h43q2 -75 56 -128.5t129 -53.5q74 0 127 53.5t55 128.5h43q-3 -94 -68 -158.5t-157 -64.5zM102 0l717 1536h43l723 -1536h-45l-233 494h-930l-230 -494h-45zM397 535h889l-444 954z" />
    <glyph glyph-name="abreve" unicode="&#x103;" horiz-adv-x="1085" 
d="M512 1006q-93 0 -158.5 64.5t-68.5 158.5h43q2 -75 55.5 -128.5t128.5 -53.5q74 0 127 53.5t55 128.5h43q-3 -94 -68 -158.5t-157 -64.5zM879 799h43v-799h-43v227q-52 -103 -150.5 -165t-216.5 -62q-169 0 -289.5 120.5t-120.5 289.5t120.5 289t289.5 120
q118 0 216.5 -62t150.5 -165v207zM512 45q152 0 259.5 107.5t107.5 259.5t-107.5 259t-259.5 107t-259.5 -107t-107.5 -259t107.5 -259.5t259.5 -107.5z" />
    <glyph glyph-name="Aogonek" unicode="&#x104;" horiz-adv-x="1687" 
d="M1542 0q-120 -57 -61 -188l26 -58l-37 -16l-34 78q-29 65 -4.5 122.5t92.5 88.5h4l-221 467h-930l-230 -494h-45l717 1536h43l723 -1536h-43zM397 535h889l-444 954z" />
    <glyph glyph-name="aogonek" unicode="&#x105;" horiz-adv-x="1085" 
d="M915 0q-120 -57 -61 -188l27 -58l-37 -16l-35 78q-27 61 -7.5 114t77.5 86v211q-52 -103 -150.5 -165t-216.5 -62q-169 0 -289.5 120.5t-120.5 289.5t120.5 289t289.5 120q118 0 216.5 -62t150.5 -165v207h43v-791l2 -4h-2v-4h-7zM512 45q152 0 259.5 107.5t107.5 259.5
t-107.5 259t-259.5 107t-259.5 -107t-107.5 -259t107.5 -259.5t259.5 -107.5z" />
    <glyph glyph-name="Cacute" unicode="&#x106;" horiz-adv-x="1662" 
d="M930 1706l131 283h45l-129 -283h-47zM954 0q-209 0 -386 103t-280.5 280t-103.5 385t103.5 385t280.5 280t386 103q156 0 295.5 -58t245.5 -163l-29 -27q-100 98 -232 152.5t-280 54.5t-283 -57.5t-232 -154.5t-154.5 -232t-57.5 -283t57.5 -283t154.5 -232t232 -154.5
t283 -57.5q144 0 281 56.5t235 156.5l29 -29q-106 -106 -250 -165.5t-295 -59.5z" />
    <glyph glyph-name="cacute" unicode="&#x107;" horiz-adv-x="882" 
d="M487 1008l131 282h46l-129 -282h-48zM512 0q-169 0 -289.5 120.5t-120.5 289.5t120.5 289t289.5 120q170 0 289 -119l-29 -28q-109 106 -260 106q-152 0 -259.5 -107t-107.5 -259t107.5 -259.5t259.5 -107.5q145 0 258 105l31 -31q-119 -119 -289 -119z" />
    <glyph glyph-name="Cdotaccent" unicode="&#x10a;" horiz-adv-x="1662" 
d="M952 1686q-17 0 -29 11.5t-12 28.5t12 29t29 12t29 -12t12 -29t-12 -28.5t-29 -11.5zM954 0q-209 0 -386 103t-280.5 280t-103.5 385t103.5 385t280.5 280t386 103q156 0 295.5 -58t245.5 -163l-29 -27q-100 98 -232 152.5t-280 54.5t-283 -57.5t-232 -154.5t-154.5 -232
t-57.5 -283t57.5 -283t154.5 -232t232 -154.5t283 -57.5q144 0 281 56.5t235 156.5l29 -29q-106 -106 -250 -165.5t-295 -59.5z" />
    <glyph glyph-name="cdotaccent" unicode="&#x10b;" horiz-adv-x="882" 
d="M510 987q-17 0 -29 12t-12 29t12 29t29 12t29 -12t12 -29t-12 -29t-29 -12zM512 0q-169 0 -289.5 120.5t-120.5 289.5t120.5 289t289.5 120q170 0 289 -119l-29 -28q-109 106 -260 106q-152 0 -259.5 -107t-107.5 -259t107.5 -259.5t259.5 -107.5q145 0 258 105l31 -31
q-119 -119 -289 -119z" />
    <glyph glyph-name="Ccaron" unicode="&#x10c;" horiz-adv-x="1662" 
d="M930 1706l-135 283h47l108 -238l109 238h47l-131 -283h-45zM954 0q-209 0 -386 103t-280.5 280t-103.5 385t103.5 385t280.5 280t386 103q156 0 295.5 -58t245.5 -163l-29 -27q-100 98 -232 152.5t-280 54.5t-283 -57.5t-232 -154.5t-154.5 -232t-57.5 -283t57.5 -283
t154.5 -232t232 -154.5t283 -57.5q144 0 281 56.5t235 156.5l29 -29q-106 -106 -250 -165.5t-295 -59.5z" />
    <glyph glyph-name="ccaron" unicode="&#x10d;" horiz-adv-x="882" 
d="M487 1008l-135 282h47l109 -237l108 237h48l-132 -282h-45zM512 0q-169 0 -289.5 120.5t-120.5 289.5t120.5 289t289.5 120q170 0 289 -119l-29 -28q-109 106 -260 106q-152 0 -259.5 -107t-107.5 -259t107.5 -259.5t259.5 -107.5q145 0 258 105l31 -31
q-119 -119 -289 -119z" />
    <glyph glyph-name="Dcaron" unicode="&#x10e;" horiz-adv-x="1837" 
d="M743 1706l-135 283h47l109 -238l108 238h48l-132 -283h-45zM307 0v1536h580q155 -1 297 -62t244.5 -164t163.5 -245t61 -297q0 -209 -103 -385.5t-279.5 -279.5t-385.5 -103h-578zM350 41h531q149 0 283.5 57.5t232.5 154.5t155.5 232t57.5 283t-57.5 283t-155.5 232
t-232.5 154.5t-283.5 57.5h-531v-1454z" />
    <glyph glyph-name="dcaron" unicode="&#x10f;" horiz-adv-x="1228" 
d="M879 592v946h43v-1538h-43v227q-52 -103 -150.5 -165t-216.5 -62q-169 0 -289.5 120.5t-120.5 289.5t120.5 289t289.5 120q118 0 216.5 -62t150.5 -165zM1006 1538h45l-15 -283h-30v283zM512 45q152 0 259.5 107.5t107.5 259.5t-107.5 259t-259.5 107t-259.5 -107
t-107.5 -259t107.5 -259.5t259.5 -107.5z" />
    <glyph glyph-name="dcroat" unicode="&#x111;" horiz-adv-x="1228" 
d="M1161 1227v-39h-190v-1188h-43v227q-52 -103 -150.5 -165t-216.5 -62q-169 0 -289 120.5t-120 289.5t120 289t289 120q118 0 216.5 -62t150.5 -165v596h-402v39h402v311h43v-311h190zM561 45q152 0 259.5 107.5t107.5 259.5t-107.5 259t-259.5 107t-259 -107t-107 -259
t107 -259.5t259 -107.5z" />
    <glyph glyph-name="Emacron" unicode="&#x112;" horiz-adv-x="1431" 
d="M586 1708v41h491v-41h-491zM307 0v1536h961v-41h-918v-676h875v-41h-875v-737h918v-41h-961z" />
    <glyph glyph-name="emacron" unicode="&#x113;" horiz-adv-x="1003" 
d="M758 1051v-41h-492v41h492zM512 819q169 0 289.5 -120t120.5 -289h-777q2 -152 108.5 -258.5t258.5 -106.5q154 0 262 111l33 -31q-125 -125 -295 -125q-169 0 -289.5 120.5t-120.5 289.5t120.5 289t289.5 120zM147 453h730q-17 138 -121 231.5t-244 93.5
q-141 0 -245.5 -93.5t-119.5 -231.5z" />
    <glyph glyph-name="Ebreve" unicode="&#x114;" horiz-adv-x="1431" 
d="M836 1704q-94 0 -159.5 64.5t-68.5 158.5h43q2 -75 56 -128.5t129 -53.5q74 0 127 53.5t55 128.5h43q-3 -94 -68 -158.5t-157 -64.5zM307 0v1536h961v-41h-918v-676h875v-41h-875v-737h918v-41h-961z" />
    <glyph glyph-name="ebreve" unicode="&#x115;" horiz-adv-x="1003" 
d="M516 1006q-93 0 -158.5 64.5t-68.5 158.5h43q2 -75 55.5 -128.5t128.5 -53.5q74 0 127 53.5t55 128.5h43q-3 -94 -68 -158.5t-157 -64.5zM512 819q169 0 289.5 -120t120.5 -289h-777q2 -152 108.5 -258.5t258.5 -106.5q154 0 262 111l33 -31q-125 -125 -295 -125
q-169 0 -289.5 120.5t-120.5 289.5t120.5 289t289.5 120zM147 453h730q-17 138 -121 231.5t-244 93.5q-141 0 -245.5 -93.5t-119.5 -231.5z" />
    <glyph glyph-name="Edotaccent" unicode="&#x116;" horiz-adv-x="1431" 
d="M834 1686q-17 0 -29 11.5t-12 28.5t12 29t29 12t28.5 -12t11.5 -29t-11.5 -28.5t-28.5 -11.5zM307 0v1536h961v-41h-918v-676h875v-41h-875v-737h918v-41h-961z" />
    <glyph glyph-name="edotaccent" unicode="&#x117;" horiz-adv-x="1003" 
d="M514 987q-17 0 -29 12t-12 29t12 29t29 12t29 -12t12 -29t-12 -29t-29 -12zM512 819q169 0 289.5 -120t120.5 -289h-777q2 -152 108.5 -258.5t258.5 -106.5q154 0 262 111l33 -31q-125 -125 -295 -125q-169 0 -289.5 120.5t-120.5 289.5t120.5 289t289.5 120zM147 453
h730q-17 138 -121 231.5t-244 93.5q-141 0 -245.5 -93.5t-119.5 -231.5z" />
    <glyph glyph-name="Eogonek" unicode="&#x118;" horiz-adv-x="1431" 
d="M1268 1495h-918v-676h875v-41h-875v-737h918v-41h-49q-121 -57 -62 -188l27 -58l-37 -16l-35 78q-24 53 -11.5 101t54.5 83h-848v1536h961v-41z" />
    <glyph glyph-name="eogonek" unicode="&#x119;" horiz-adv-x="1003" 
d="M512 819q169 0 289.5 -120t120.5 -289h-777q2 -152 108.5 -258.5t258.5 -106.5q154 0 262 111l33 -31q-119 -119 -283 -125q-120 -57 -61 -188l26 -58l-36 -16l-35 78q-24 55 -11 103.5t58 82.5q-153 19 -258 135.5t-105 272.5q0 169 120.5 289t289.5 120zM147 453h730
q-17 138 -121 231.5t-244 93.5q-141 0 -245.5 -93.5t-119.5 -231.5z" />
    <glyph glyph-name="Ecaron" unicode="&#x11a;" horiz-adv-x="1431" 
d="M811 1706l-135 283h47l108 -238l109 238h47l-131 -283h-45zM307 0v1536h961v-41h-918v-676h875v-41h-875v-737h918v-41h-961z" />
    <glyph glyph-name="ecaron" unicode="&#x11b;" horiz-adv-x="1003" 
d="M537 1008h-45l-136 282h47l109 -237l109 237h47zM512 819q169 0 289.5 -120t120.5 -289h-777q2 -152 108.5 -258.5t258.5 -106.5q154 0 262 111l33 -31q-125 -125 -295 -125q-169 0 -289.5 120.5t-120.5 289.5t120.5 289t289.5 120zM147 453h730q-17 138 -121 231.5
t-244 93.5q-141 0 -245.5 -93.5t-119.5 -231.5z" />
    <glyph glyph-name="Gbreve" unicode="&#x11e;" horiz-adv-x="1890" 
d="M963 1704q-94 0 -159.5 64.5t-68.5 158.5h43q2 -75 56 -128.5t129 -53.5q73 0 127 53.5t55 128.5h43q-3 -94 -68 -158.5t-157 -64.5zM954 0q-209 0 -386 103t-280.5 280t-103.5 385t103.5 385t280.5 280t386 103q156 0 295.5 -58t245.5 -163l-29 -27q-100 98 -232 152.5
t-280 54.5t-283 -57.5t-232 -154.5t-154.5 -232t-57.5 -283t57.5 -283t154.5 -232t232 -154.5t283 -57.5q149 0 283.5 57t232.5 154t155.5 232t57.5 284v14h-729v43h772v-57q0 -208 -104 -385t-281.5 -280t-386.5 -103z" />
    <glyph glyph-name="gbreve" unicode="&#x11f;" horiz-adv-x="1105" 
d="M512 1006q-93 0 -158.5 64.5t-68.5 158.5h43q2 -75 55.5 -128.5t128.5 -53.5q74 0 127 53.5t55 128.5h43q-3 -94 -68 -158.5t-157 -64.5zM879 799h43v-1026q0 -103 -28 -184.5t-71.5 -131.5t-100 -83t-109.5 -45.5t-105 -12.5v39q42 0 87 10t97 38t92.5 71t67.5 115.5
t27 164.5v473q-52 -103 -150.5 -165t-216.5 -62q-169 0 -289.5 120.5t-120.5 289.5t120.5 289t289.5 120q118 0 216.5 -62t150.5 -165v207zM512 45q152 0 259.5 107.5t107.5 259.5t-107.5 259t-259.5 107t-259.5 -107t-107.5 -259t107.5 -259.5t259.5 -107.5z" />
    <glyph glyph-name="Gdotaccent" unicode="&#x120;" horiz-adv-x="1890" 
d="M961 1686q-17 0 -29 11.5t-12 28.5t12 29t29 12t28.5 -12t11.5 -29t-11.5 -28.5t-28.5 -11.5zM954 0q-209 0 -386 103t-280.5 280t-103.5 385t103.5 385t280.5 280t386 103q156 0 295.5 -58t245.5 -163l-29 -27q-100 98 -232 152.5t-280 54.5t-283 -57.5t-232 -154.5
t-154.5 -232t-57.5 -283t57.5 -283t154.5 -232t232 -154.5t283 -57.5q149 0 283.5 57t232.5 154t155.5 232t57.5 284v14h-729v43h772v-57q0 -208 -104 -385t-281.5 -280t-386.5 -103z" />
    <glyph glyph-name="gdotaccent" unicode="&#x121;" horiz-adv-x="1105" 
d="M510 987q-17 0 -29 12t-12 29t12 29t29 12t29 -12t12 -29t-12 -29t-29 -12zM879 799h43v-1026q0 -103 -28 -184.5t-71.5 -131.5t-100 -83t-109.5 -45.5t-105 -12.5v39q42 0 87 10t97 38t92.5 71t67.5 115.5t27 164.5v473q-52 -103 -150.5 -165t-216.5 -62
q-169 0 -289.5 120.5t-120.5 289.5t120.5 289t289.5 120q118 0 216.5 -62t150.5 -165v207zM512 45q152 0 259.5 107.5t107.5 259.5t-107.5 259t-259.5 107t-259.5 -107t-107.5 -259t107.5 -259.5t259.5 -107.5z" />
    <glyph glyph-name="Gcommaaccent" unicode="&#x122;" horiz-adv-x="1890" 
d="M954 825h772v-57q0 -208 -104 -385t-281.5 -280t-386.5 -103t-386 103t-280.5 280t-103.5 385t103.5 385t280.5 280t386 103q156 0 295.5 -58t245.5 -163l-29 -27q-100 98 -232 152.5t-280 54.5t-283 -57.5t-232 -154.5t-154.5 -232t-57.5 -283t57.5 -283t154.5 -232
t232 -154.5t283 -57.5q149 0 283.5 57t232.5 154t155.5 232t57.5 284v14h-729v43zM963 -158q17 0 29 -12t12 -29q0 -52 -43 -86v45q-18 2 -29.5 13t-11.5 28t12 29t31 12z" />
    <glyph glyph-name="gcommaaccent" unicode="&#x123;" horiz-adv-x="1105" 
d="M512 918q-17 0 -29 11.5t-12 28.5q0 52 43 86v-45q18 -2 29.5 -13t11.5 -28t-12 -28.5t-31 -11.5zM879 799h43v-1026q0 -103 -28 -184.5t-71.5 -131.5t-100 -83t-109.5 -45.5t-105 -12.5v39q42 0 87 10t97 38t92.5 71t67.5 115.5t27 164.5v473q-52 -103 -150.5 -165
t-216.5 -62q-169 0 -289.5 120.5t-120.5 289.5t120.5 289t289.5 120q118 0 216.5 -62t150.5 -165v207zM512 45q152 0 259.5 107.5t107.5 259.5t-107.5 259t-259.5 107t-259.5 -107t-107.5 -259t107.5 -259.5t259.5 -107.5z" />
    <glyph glyph-name="Hbar" unicode="&#x126;" horiz-adv-x="1865" 
d="M287 0v1149h-185v39h185v348h43v-348h1206v348h43v-348h184v-39h-184v-1149h-43v780h-1206v-780h-43zM330 819h1206v330h-1206v-330z" />
    <glyph glyph-name="hbar" unicode="&#x127;" horiz-adv-x="1312" 
d="M770 819q155 0 267 -110.5t112 -278.5v-430h-43v424q0 156 -96 254t-236 98q-59 0 -120.5 -22.5t-114 -63.5t-86 -108t-33.5 -148v-434h-43v1188h-193v39h193v309h43v-309h399v-39h-399v-576q54 101 150.5 154t199.5 53z" />
    <glyph glyph-name="Imacron" unicode="&#x12a;" horiz-adv-x="575" 
d="M43 1708v41h492v-41h-492zM266 0v1536h43v-1536h-43z" />
    <glyph glyph-name="imacron" unicode="&#x12b;" horiz-adv-x="411" 
d="M-45 1014v41h491v-41h-491zM184 0v799h43v-799h-43z" />
    <glyph glyph-name="Ibreve" unicode="&#x12c;" horiz-adv-x="575" 
d="M293 1704q-93 0 -158.5 64.5t-68.5 158.5h43q2 -75 55.5 -128.5t128.5 -53.5q73 0 127 53.5t55 128.5h43q-3 -94 -68 -158.5t-157 -64.5zM266 0v1536h43v-1536h-43z" />
    <glyph glyph-name="ibreve" unicode="&#x12d;" horiz-adv-x="411" 
d="M205 1010q-94 0 -159.5 64.5t-68.5 158.5h43q2 -75 56 -128.5t129 -53.5q73 0 127 53.5t55 128.5h43q-3 -94 -68 -158.5t-157 -64.5zM184 0v799h43v-799h-43z" />
    <glyph glyph-name="Iogonek" unicode="&#x12e;" horiz-adv-x="575" 
d="M297 0q-120 -57 -61 -188l26 -58l-37 -16l-35 78q-27 62 -6.5 117t82.5 87v1516h43v-1536h-12z" />
    <glyph glyph-name="iogonek" unicode="&#x12f;" horiz-adv-x="411" 
d="M203 1073q17 0 29 -12t12 -29t-12 -29t-29 -12t-29 12t-12 29t12 29t29 12zM184 23v776h43v-799h-16q-111 -62 -53 -184l26 -58l-37 -16l-34 78q-27 60 -7.5 115.5t78.5 87.5z" />
    <glyph glyph-name="Idotaccent" unicode="&#x130;" horiz-adv-x="575" 
d="M291 1686q-17 0 -29 11.5t-12 28.5t12 29t29 12t29 -12t12 -29t-12 -28.5t-29 -11.5zM266 0v1536h43v-1536h-43z" />
    <glyph glyph-name="dotlessi" unicode="&#x131;" horiz-adv-x="411" 
d="M184 0v799h43v-799h-43z" />
    <glyph glyph-name="Kcommaaccent" unicode="&#x136;" horiz-adv-x="1497" 
d="M584 834l831 -834h-61l-803 799l-201 -199v-600h-43v1536h43v-870l879 870h59zM350 -158q17 0 29 -12t12 -29q0 -52 -43 -86v45q-18 2 -29.5 13t-11.5 28t12 29t31 12z" />
    <glyph glyph-name="kcommaaccent" unicode="&#x137;" horiz-adv-x="1021" 
d="M457 463l463 -463h-58l-434 434l-201 -201v-233h-43v1538h43v-1241l510 502h58zM518 -182q17 0 29 -12t12 -29q0 -52 -43 -86v45q-18 2 -29.5 13t-11.5 28t12 29t31 12z" />
    <glyph glyph-name="Lacute" unicode="&#x139;" horiz-adv-x="1327" 
d="M268 1706l131 283h45l-129 -283h-47zM266 0v1536h43v-1497h916v-39h-959z" />
    <glyph glyph-name="lacute" unicode="&#x13a;" horiz-adv-x="411" 
d="M184 1706l131 283h45l-129 -283h-47zM184 0v1538h43v-1538h-43z" />
    <glyph glyph-name="Lcommaaccent" unicode="&#x13b;" horiz-adv-x="1327" 
d="M309 39h916v-39h-959v1536h43v-1497zM737 -182q17 0 29 -12t12 -29q0 -52 -43 -86v45q-18 2 -29.5 13t-11.5 28t12 29t31 12z" />
    <glyph glyph-name="lcommaaccent" unicode="&#x13c;" horiz-adv-x="411" 
d="M227 1538v-1538h-43v1538h43zM201 -182q17 0 29 -12t12 -29q0 -52 -43 -86v45q-18 2 -29.5 13t-11.5 28t12 29t31 12z" />
    <glyph glyph-name="Lcaron" unicode="&#x13d;" horiz-adv-x="1327" 
d="M676 1255v283h45l-14 -283h-31zM266 0v1536h39v-1497h920v-39h-959z" />
    <glyph glyph-name="lcaron" unicode="&#x13e;" horiz-adv-x="311" 
d="M184 0v1538h43v-1538h-43zM311 1255v283h45l-14 -283h-31z" />
    <glyph glyph-name="Ldot" unicode="&#x13f;" horiz-adv-x="1327" 
d="M266 0v1536h39v-1497h920v-39h-959zM815 770q-17 0 -29 12t-12 29t12 29t29 12t29 -12t12 -29t-12 -29t-29 -12z" />
    <glyph glyph-name="ldot" unicode="&#x140;" horiz-adv-x="411" 
d="M184 0v1538h43v-1538h-43zM426 754q-17 0 -29 12t-12 29t12 29t29 12t29 -12t12 -29t-12 -29t-29 -12z" />
    <glyph glyph-name="Lslash" unicode="&#x141;" horiz-adv-x="1271" 
d="M211 0v911l-274 -229v53l274 230v571h39v-539l260 220v-54l-260 -219v-905h919v-39h-958z" />
    <glyph glyph-name="lslash" unicode="&#x142;" horiz-adv-x="184" 
d="M283 1145v-53l-177 -148v-944h-38v911l-172 -145v53l172 146v571h38v-539z" />
    <glyph glyph-name="Nacute" unicode="&#x143;" horiz-adv-x="1789" 
d="M842 1706l131 283h45l-129 -283h-47zM246 0v1536h69l1186 -1495v1495h43v-1536h-65l-1190 1495v-1495h-43z" />
    <glyph glyph-name="nacute" unicode="&#x144;" horiz-adv-x="1056" 
d="M520 1008l131 282h45l-129 -282h-47zM184 0v799h43v-166q44 84 128.5 135t176.5 51q86 0 156.5 -30.5t114 -80.5t67 -111.5t23.5 -125.5v-471h-43v471q0 124 -82.5 214.5t-232.5 90.5q-124 0 -216 -88t-92 -231v-457h-43z" />
    <glyph glyph-name="Ncommaaccent" unicode="&#x145;" horiz-adv-x="1789" 
d="M1501 1536h43v-1536h-65l-1190 1495v-1495h-43v1536h69l1186 -1495v1495zM897 -182q17 0 29 -12t12 -29q0 -52 -43 -86v45q-18 2 -29.5 13t-11.5 28t12 29t31 12z" />
    <glyph glyph-name="ncommaaccent" unicode="&#x146;" horiz-adv-x="1056" 
d="M532 819q86 0 156.5 -30.5t114 -80.5t67 -111.5t23.5 -125.5v-471h-43v471q0 124 -82.5 214.5t-232.5 90.5q-124 0 -216 -88t-92 -231v-457h-43v799h43v-166q44 84 128.5 135t176.5 51zM528 -182q17 0 29 -12t12 -29q0 -52 -43 -86v45q-18 2 -29.5 13t-11.5 28t12 29
t31 12z" />
    <glyph glyph-name="Ncaron" unicode="&#x147;" horiz-adv-x="1789" 
d="M842 1706l-135 283h47l108 -238l109 238h47l-131 -283h-45zM246 0v1536h69l1186 -1495v1495h43v-1536h-65l-1190 1495v-1495h-43z" />
    <glyph glyph-name="ncaron" unicode="&#x148;" horiz-adv-x="1056" 
d="M520 1008l-135 282h47l109 -237l108 237h47l-131 -282h-45zM184 0v799h43v-166q44 84 128.5 135t176.5 51q86 0 156.5 -30.5t114 -80.5t67 -111.5t23.5 -125.5v-471h-43v471q0 124 -82.5 214.5t-232.5 90.5q-124 0 -216 -88t-92 -231v-457h-43z" />
    <glyph glyph-name="Omacron" unicode="&#x14c;" horiz-adv-x="1910" 
d="M707 1708v41h491v-41h-491zM1726 768q0 -209 -103.5 -386t-281 -279.5t-387.5 -102.5q-157 0 -299.5 60.5t-245.5 163t-164 245t-61 299.5t61 299.5t164 245t245.5 163t299.5 60.5q210 0 387.5 -102.5t281 -279.5t103.5 -386zM1683 768q0 200 -97 367t-264.5 263.5
t-367.5 96.5t-367 -96.5t-263.5 -263.5t-96.5 -367t96.5 -367t263.5 -263.5t367 -96.5t367.5 96.5t264.5 263.5t97 367z" />
    <glyph glyph-name="omacron" unicode="&#x14d;" horiz-adv-x="1024" 
d="M262 1010v41h492v-41h-492zM512 0q-169 0 -289.5 120.5t-120.5 289.5t120.5 289t289.5 120t289.5 -120t120.5 -289t-120.5 -289.5t-289.5 -120.5zM512 45q152 0 259.5 107.5t107.5 259.5t-107.5 259t-259.5 107t-259.5 -107t-107.5 -259t107.5 -259.5t259.5 -107.5z" />
    <glyph glyph-name="Obreve" unicode="&#x14e;" horiz-adv-x="1910" 
d="M956 1704q-93 0 -158.5 64.5t-68.5 158.5h43q2 -75 55.5 -128.5t128.5 -53.5q74 0 128 53.5t55 128.5h43q-3 -94 -68.5 -158.5t-157.5 -64.5zM1726 768q0 -209 -103.5 -386t-281 -279.5t-387.5 -102.5q-157 0 -299.5 60.5t-245.5 163t-164 245t-61 299.5t61 299.5
t164 245t245.5 163t299.5 60.5q210 0 387.5 -102.5t281 -279.5t103.5 -386zM1683 768q0 200 -97 367t-264.5 263.5t-367.5 96.5t-367 -96.5t-263.5 -263.5t-96.5 -367t96.5 -367t263.5 -263.5t367 -96.5t367.5 96.5t264.5 263.5t97 367z" />
    <glyph glyph-name="obreve" unicode="&#x14f;" horiz-adv-x="1024" 
d="M512 1006q-93 0 -158.5 64.5t-68.5 158.5h43q2 -75 55.5 -128.5t128.5 -53.5q74 0 127 53.5t55 128.5h43q-3 -94 -68 -158.5t-157 -64.5zM512 0q-169 0 -289.5 120.5t-120.5 289.5t120.5 289t289.5 120t289.5 -120t120.5 -289t-120.5 -289.5t-289.5 -120.5zM512 45
q152 0 259.5 107.5t107.5 259.5t-107.5 259t-259.5 107t-259.5 -107t-107.5 -259t107.5 -259.5t259.5 -107.5z" />
    <glyph glyph-name="Ohungarumlaut" unicode="&#x150;" horiz-adv-x="1910" 
d="M825 1706l131 283h45l-129 -283h-47zM1036 1706l131 283h45l-129 -283h-47zM1726 768q0 -209 -103.5 -386t-281 -279.5t-387.5 -102.5q-157 0 -299.5 60.5t-245.5 163t-164 245t-61 299.5t61 299.5t164 245t245.5 163t299.5 60.5q210 0 387.5 -102.5t281 -279.5
t103.5 -386zM1683 768q0 200 -97 367t-264.5 263.5t-367.5 96.5t-367 -96.5t-263.5 -263.5t-96.5 -367t96.5 -367t263.5 -263.5t367 -96.5t367.5 96.5t264.5 263.5t97 367z" />
    <glyph glyph-name="ohungarumlaut" unicode="&#x151;" horiz-adv-x="1024" 
d="M381 1008l131 282h45l-129 -282h-47zM592 1008l131 282h45l-129 -282h-47zM512 0q-169 0 -289.5 120.5t-120.5 289.5t120.5 289t289.5 120t289.5 -120t120.5 -289t-120.5 -289.5t-289.5 -120.5zM512 45q152 0 259.5 107.5t107.5 259.5t-107.5 259t-259.5 107t-259.5 -107
t-107.5 -259t107.5 -259.5t259.5 -107.5z" />
    <glyph glyph-name="OE" unicode="&#x152;" horiz-adv-x="2193" 
d="M2030 1495h-918v-688h875v-41h-875v-725h918v-41h-1078q-157 0 -299.5 60.5t-245 163t-163 245t-60.5 299.5t60.5 299.5t163 245t245 163t299.5 60.5h1078v-41zM952 41h121v1454h-121q-200 0 -367.5 -96.5t-264.5 -263.5t-97 -367t97 -367t264.5 -263.5t367.5 -96.5z" />
    <glyph glyph-name="oe" unicode="&#x153;" horiz-adv-x="1779" 
d="M512 0q-169 0 -289.5 120.5t-120.5 289.5t120.5 289t289.5 120q134 0 240.5 -77.5t148.5 -200.5q40 123 146.5 200.5t240.5 77.5q169 0 289.5 -120t120.5 -289h-776q2 -153 108 -259t258 -106q154 0 262 111l33 -31q-125 -125 -295 -125q-133 0 -240 78t-149 201
q-40 -123 -146.5 -201t-240.5 -78zM512 45q152 0 259.5 107.5t107.5 259.5t-107.5 259t-259.5 107t-259.5 -107t-107.5 -259t107.5 -259.5t259.5 -107.5zM924 453h729q-17 138 -121 231.5t-244 93.5q-141 0 -245 -93.5t-119 -231.5z" />
    <glyph glyph-name="Racute" unicode="&#x154;" horiz-adv-x="1406" 
d="M684 1706l131 283h45l-129 -283h-47zM307 0v1536h522q187 0 321 -134t134 -321q0 -186 -131 -317.5t-317 -134.5l362 -629h-47l-363 629h-438v-629h-43zM350 668h479q170 2 291 122t121 291q0 84 -32.5 160.5t-88 132t-131.5 89t-160 34.5h-479v-829z" />
    <glyph glyph-name="racute" unicode="&#x155;" horiz-adv-x="659" 
d="M416 1008l131 282h45l-129 -282h-47zM184 0v799h43v-207q53 104 153 165.5t218 61.5v-43q-147 0 -259 -102.5t-112 -259.5v-414h-43z" />
    <glyph glyph-name="Rcommaaccent" unicode="&#x156;" horiz-adv-x="1406" 
d="M1284 1081q0 -186 -131 -317.5t-317 -134.5l362 -629h-47l-363 629h-438v-629h-43v1536h522q187 0 321 -134t134 -321zM350 668h479q170 2 291 122t121 291q0 84 -32.5 160.5t-88 132t-131.5 89t-160 34.5h-479v-829zM723 -182q17 0 29 -12t12 -29q0 -52 -43 -86v45
q-18 2 -29.5 13t-11.5 28t12 29t31 12z" />
    <glyph glyph-name="rcommaaccent" unicode="&#x157;" horiz-adv-x="659" 
d="M227 592q53 104 153 165.5t218 61.5v-43q-147 0 -259 -102.5t-112 -259.5v-414h-43v799h43v-207zM209 -182q17 0 29 -12t12 -29q0 -52 -43 -86v45q-18 2 -29.5 13t-11.5 28t12 29t31 12z" />
    <glyph glyph-name="Rcaron" unicode="&#x158;" horiz-adv-x="1406" 
d="M684 1706l-135 283h47l109 -238l108 238h47l-131 -283h-45zM307 0v1536h522q187 0 321 -134t134 -321q0 -186 -131 -317.5t-317 -134.5l362 -629h-47l-363 629h-438v-629h-43zM350 668h479q170 2 291 122t121 291q0 84 -32.5 160.5t-88 132t-131.5 89t-160 34.5h-479
v-829z" />
    <glyph glyph-name="rcaron" unicode="&#x159;" horiz-adv-x="659" 
d="M416 1008l-135 282h47l108 -237l109 237h47l-131 -282h-45zM184 0v799h43v-207q53 104 153 165.5t218 61.5v-43q-147 0 -259 -102.5t-112 -259.5v-414h-43z" />
    <glyph glyph-name="Sacute" unicode="&#x15a;" horiz-adv-x="1402" 
d="M664 1706l131 283h45l-129 -283h-47zM676 0q-224 0 -368 116.5t-144 278.5h43q0 -100 64 -182t170.5 -127t230.5 -45q122 0 230 43t176.5 125.5t68.5 185.5q0 161 -132.5 262t-348.5 101q-229 0 -359.5 106t-130.5 285q0 170 149 278.5t365 108.5q220 0 364 -113
t144 -278h-39q0 149 -133.5 249.5t-337.5 100.5q-124 0 -230.5 -42.5t-172.5 -123.5t-66 -182q0 -157 120 -252.5t327 -95.5q129 0 231.5 -34t165 -91.5t95 -129.5t32.5 -151q0 -114 -73.5 -205.5t-190.5 -139.5t-250 -48z" />
    <glyph glyph-name="sacute" unicode="&#x15b;" horiz-adv-x="753" 
d="M299 1010l131 282h45l-129 -282h-47zM379 0q-117 0 -197 63t-80 152h43q0 -75 68.5 -123.5t165.5 -48.5q92 0 159.5 49t67.5 125q0 74 -67.5 122t-159.5 48q-115 0 -196 60t-81 155q0 89 76.5 153t196.5 64q95 0 172 -45l-29 -31q-59 33 -143 33q-92 0 -162 -47t-70 -123
q0 -73 65 -124.5t161 -51.5q112 0 196 -57.5t84 -151.5q0 -100 -82 -160.5t-188 -60.5z" />
    <glyph glyph-name="Scedilla" unicode="&#x15e;" horiz-adv-x="1402" 
d="M666 799q129 0 231.5 -34t165 -91.5t95 -129.5t32.5 -151q0 -112 -71.5 -202.5t-185.5 -139.5t-245 -51l-131 -289h-45l137 289q-107 4 -199 37.5t-154 87.5t-97 124t-35 146h43q0 -100 64 -182t170.5 -127t230.5 -45q122 0 230 43t176.5 125.5t68.5 185.5
q0 161 -132.5 262t-348.5 101q-229 0 -359.5 106t-130.5 285q0 170 149 278.5t365 108.5q220 0 364 -113t144 -278h-39q0 149 -133.5 249.5t-337.5 100.5q-124 0 -230.5 -42.5t-172.5 -123.5t-66 -182q0 -157 120 -252.5t327 -95.5z" />
    <glyph glyph-name="scedilla" unicode="&#x15f;" horiz-adv-x="753" 
d="M649 221q0 -97 -78 -157.5t-180 -63.5l-131 -289h-45l137 289q-108 9 -179 70t-71 145h43q0 -75 68.5 -123.5t165.5 -48.5q92 0 159.5 49t67.5 125q0 74 -67.5 122t-159.5 48q-115 0 -196 60t-81 155q0 89 76.5 153t196.5 64q95 0 172 -45l-29 -31q-59 33 -143 33
q-92 0 -162 -47t-70 -123q0 -73 65 -124.5t161 -51.5q112 0 196 -57.5t84 -151.5z" />
    <glyph glyph-name="Scaron" unicode="&#x160;" horiz-adv-x="1402" 
d="M664 1706l-136 283h47l109 -238l109 238h47l-131 -283h-45zM676 0q-224 0 -368 116.5t-144 278.5h43q0 -100 64 -182t170.5 -127t230.5 -45q122 0 230 43t176.5 125.5t68.5 185.5q0 161 -132.5 262t-348.5 101q-229 0 -359.5 106t-130.5 285q0 170 149 278.5t365 108.5
q220 0 364 -113t144 -278h-39q0 149 -133.5 249.5t-337.5 100.5q-124 0 -230.5 -42.5t-172.5 -123.5t-66 -182q0 -157 120 -252.5t327 -95.5q129 0 231.5 -34t165 -91.5t95 -129.5t32.5 -151q0 -114 -73.5 -205.5t-190.5 -139.5t-250 -48z" />
    <glyph glyph-name="scaron" unicode="&#x161;" horiz-adv-x="753" 
d="M299 1010l-135 282h47l108 -237l109 237h47l-131 -282h-45zM379 0q-117 0 -197 63t-80 152h43q0 -75 68.5 -123.5t165.5 -48.5q92 0 159.5 49t67.5 125q0 74 -67.5 122t-159.5 48q-115 0 -196 60t-81 155q0 89 76.5 153t196.5 64q95 0 172 -45l-29 -31q-59 33 -143 33
q-92 0 -162 -47t-70 -123q0 -73 65 -124.5t161 -51.5q112 0 196 -57.5t84 -151.5q0 -100 -82 -160.5t-188 -60.5z" />
    <glyph glyph-name="uni0162" unicode="&#x162;" horiz-adv-x="1417" 
d="M102 1536h1213v-39h-586v-1497h-4l-131 -289h-45l137 291v1495h-584v39z" />
    <glyph glyph-name="uni0163" unicode="&#x163;" horiz-adv-x="536" 
d="M393 756h-141v-465q0 -140 110 -258l-149 -322h-45l147 307q-106 126 -106 277v461h-148v43h148v325h43v-325h141v-43z" />
    <glyph glyph-name="Tcaron" unicode="&#x164;" horiz-adv-x="1417" 
d="M684 1706l-135 283h47l109 -238l108 238h47l-131 -283h-45zM686 0v1497h-584v39h1213v-39h-586v-1497h-43z" />
    <glyph glyph-name="tcaron" unicode="&#x165;" horiz-adv-x="536" 
d="M381 1210l-14 -282h-31v282h45zM393 756h-162v-465q0 -139 111 -258l-31 -33q-123 141 -123 295v461h-127v43h127v325h43v-325h162v-43z" />
    <glyph glyph-name="Umacron" unicode="&#x16a;" horiz-adv-x="1542" 
d="M522 1708v41h492v-41h-492zM770 0q-165 0 -304.5 81t-220.5 220.5t-81 304.5v930h43v-930q0 -153 75.5 -282.5t205 -205t282.5 -75.5q152 0 282 75t206 204t77 282v932h43v-930q0 -165 -81.5 -304.5t-221.5 -220.5t-305 -81z" />
    <glyph glyph-name="umacron" unicode="&#x16b;" 
d="M272 1010v41h492v-41h-492zM518 0q-152 0 -253 108t-101 261v430h43v-430q0 -138 91.5 -232t223.5 -94q127 0 220.5 87t93.5 212v457h43v-799h-43v186q-46 -86 -130.5 -136t-187.5 -50z" />
    <glyph glyph-name="Ubreve" unicode="&#x16c;" horiz-adv-x="1542" 
d="M772 1704q-93 0 -158.5 64.5t-68.5 158.5h43q2 -75 55.5 -128.5t128.5 -53.5q74 0 127 53.5t55 128.5h43q-3 -94 -68 -158.5t-157 -64.5zM770 0q-165 0 -304.5 81t-220.5 220.5t-81 304.5v930h43v-930q0 -153 75.5 -282.5t205 -205t282.5 -75.5q152 0 282 75t206 204
t77 282v932h43v-930q0 -165 -81.5 -304.5t-221.5 -220.5t-305 -81z" />
    <glyph glyph-name="ubreve" unicode="&#x16d;" 
d="M522 1006q-93 0 -158.5 64.5t-68.5 158.5h43q2 -75 55.5 -128.5t128.5 -53.5q74 0 128 53.5t55 128.5h43q-3 -94 -68.5 -158.5t-157.5 -64.5zM518 0q-152 0 -253 108t-101 261v430h43v-430q0 -138 91.5 -232t223.5 -94q127 0 220.5 87t93.5 212v457h43v-799h-43v186
q-46 -86 -130.5 -136t-187.5 -50z" />
    <glyph glyph-name="Uring" unicode="&#x16e;" horiz-adv-x="1542" 
d="M772 1739q-52 0 -89.5 37.5t-37.5 89.5q0 51 37.5 88t89.5 37q51 0 88 -37t37 -88q0 -52 -37 -89.5t-88 -37.5zM772 1780q35 0 59.5 24.5t24.5 61.5q0 35 -24.5 59.5t-59.5 24.5q-37 0 -61.5 -24.5t-24.5 -59.5q0 -37 24.5 -61.5t61.5 -24.5zM770 0q-165 0 -304.5 81
t-220.5 220.5t-81 304.5v930h43v-930q0 -153 75.5 -282.5t205 -205t282.5 -75.5q152 0 282 75t206 204t77 282v932h43v-930q0 -165 -81.5 -304.5t-221.5 -220.5t-305 -81z" />
    <glyph glyph-name="uring" unicode="&#x16f;" 
d="M522 1040q-52 0 -89.5 37t-37.5 90q0 51 37.5 88t89.5 37q51 0 88 -37t37 -88q0 -52 -37 -89.5t-88 -37.5zM522 1081q35 0 59.5 24.5t24.5 61.5q0 35 -24.5 59.5t-59.5 24.5q-37 0 -61.5 -24.5t-24.5 -59.5q0 -37 24.5 -61.5t61.5 -24.5zM518 0q-152 0 -253 108t-101 261
v430h43v-430q0 -138 91.5 -232t223.5 -94q127 0 220.5 87t93.5 212v457h43v-799h-43v186q-46 -86 -130.5 -136t-187.5 -50z" />
    <glyph glyph-name="Uhungarumlaut" unicode="&#x170;" horiz-adv-x="1542" 
d="M641 1706l131 283h45l-129 -283h-47zM852 1706l131 283h45l-129 -283h-47zM770 0q-165 0 -304.5 81t-220.5 220.5t-81 304.5v930h43v-930q0 -153 75.5 -282.5t205 -205t282.5 -75.5q152 0 282 75t206 204t77 282v932h43v-930q0 -165 -81.5 -304.5t-221.5 -220.5t-305 -81
z" />
    <glyph glyph-name="uhungarumlaut" unicode="&#x171;" 
d="M391 1008l131 282h45l-129 -282h-47zM602 1008l131 282h45l-129 -282h-47zM518 0q-152 0 -253 108t-101 261v430h43v-430q0 -138 91.5 -232t223.5 -94q127 0 220.5 87t93.5 212v457h43v-799h-43v186q-46 -86 -130.5 -136t-187.5 -50z" />
    <glyph glyph-name="Uogonek" unicode="&#x172;" horiz-adv-x="1542" 
d="M1335 1536h43v-930q0 -164 -81 -303.5t-220 -220.5t-303 -82q-111 -62 -53 -184l27 -58l-37 -16l-35 78q-23 53 -12 100.5t53 81.5q-154 13 -280.5 96.5t-199.5 217.5t-73 290v930h43v-930q0 -153 75.5 -282.5t205 -205t282.5 -75.5q152 0 282 75t206 204t77 282v932z
" />
    <glyph glyph-name="uogonek" unicode="&#x173;" 
d="M836 799h43v-799h-43v186q-43 -80 -119.5 -129.5t-171.5 -56.5q-123 -57 -64 -188l27 -58l-37 -16l-35 78q-24 55 -11 103.5t58 82.5q-138 13 -228.5 119t-90.5 248v430h43v-430q0 -138 91.5 -232t223.5 -94q127 0 220.5 87t93.5 212v457z" />
    <glyph glyph-name="Wcircumflex" unicode="&#x174;" horiz-adv-x="2443" 
d="M1077 1706l131 283h45l136 -283h-48l-108 238l-109 -238h-47zM805 0l-723 1536h45l700 -1489l373 803h45l377 -803l694 1489h45l-716 -1536h-46l-376 801l-373 -801h-45z" />
    <glyph glyph-name="wcircumflex" unicode="&#x175;" horiz-adv-x="1445" 
d="M565 1008l131 282h45l136 -282h-48l-108 237l-109 -237h-47zM403 0l-372 799h45l350 -750l299 633l295 -633l350 750h45l-373 -799h-43l-274 584l-279 -584h-43z" />
    <glyph glyph-name="Ycircumflex" unicode="&#x176;" horiz-adv-x="1337" 
d="M508 1706l131 283h45l135 -283h-47l-108 238l-109 -238h-47zM647 0v567l-565 969h49l537 -930l538 930h49l-565 -969v-567h-43z" />
    <glyph glyph-name="ycircumflex" unicode="&#x177;" 
d="M360 1008l132 282h45l135 -282h-47l-109 237l-108 -237h-48zM465 -684v39q42 0 87 10t97 38t92.5 71t67.5 115.5t27 164.5v432q-46 -86 -130.5 -136t-187.5 -50q-152 0 -253 108t-101 261v430h43v-430q0 -138 91.5 -232t223.5 -94q127 0 220.5 87t93.5 212v457h43v-1026
q0 -103 -28 -184.5t-71.5 -131.5t-100 -83t-109.5 -45.5t-105 -12.5z" />
    <glyph glyph-name="Ydieresis" unicode="&#x178;" horiz-adv-x="1337" 
d="M545 1686q-17 0 -29 11.5t-12 28.5t12 29t29 12t29 -12t12 -29t-12 -28.5t-29 -11.5zM784 1686q-17 0 -29 11.5t-12 28.5t12 29t29 12t29 -12t12 -29t-12 -28.5t-29 -11.5zM647 0v567l-565 969h49l537 -930l538 930h49l-565 -969v-567h-43z" />
    <glyph glyph-name="Zacute" unicode="&#x179;" horiz-adv-x="1302" 
d="M596 1706l131 283h45l-129 -283h-47zM184 0l863 1495h-863v41h934l-862 -1495h862v-41h-934z" />
    <glyph glyph-name="zacute" unicode="&#x17a;" horiz-adv-x="813" 
d="M537 1290l-129 -282h-48l132 282h45zM711 799l-531 -756h531v-43h-609l531 756h-529v43h607z" />
    <glyph glyph-name="Zdotaccent" unicode="&#x17b;" horiz-adv-x="1302" 
d="M618 1686q-17 0 -28.5 11.5t-11.5 28.5t11.5 29t28.5 12t29 -12t12 -29t-12 -28.5t-29 -11.5zM184 0l863 1495h-863v41h934l-862 -1495h862v-41h-934z" />
    <glyph glyph-name="zdotaccent" unicode="&#x17c;" horiz-adv-x="813" 
d="M383 987q-17 0 -29 12t-12 29t12 29t29 12t29 -12t12 -29t-12 -29t-29 -12zM711 799l-531 -756h531v-43h-609l531 756h-529v43h607z" />
    <glyph glyph-name="Zcaron" unicode="&#x17d;" horiz-adv-x="1302" 
d="M596 1706l-135 283h47l108 -238l109 238h47l-131 -283h-45zM184 0l863 1495h-863v41h934l-862 -1495h862v-41h-934z" />
    <glyph glyph-name="zcaron" unicode="&#x17e;" horiz-adv-x="813" 
d="M406 1008h-46l-135 282h47l109 -237l108 237h48zM711 799l-531 -756h531v-43h-609l531 756h-529v43h607z" />
    <glyph glyph-name="uni01CD" unicode="&#x1cd;" horiz-adv-x="1687" 
d="M819 1706l-135 283h47l109 -238l108 238h47l-131 -283h-45zM102 0l717 1536h43l723 -1536h-45l-233 494h-930l-230 -494h-45zM397 535h889l-444 954z" />
    <glyph glyph-name="uni01CE" unicode="&#x1ce;" horiz-adv-x="1085" 
d="M532 1008h-45l-135 282h47l109 -237l108 237h48zM879 799h43v-799h-43v227q-52 -103 -150.5 -165t-216.5 -62q-169 0 -289.5 120.5t-120.5 289.5t120.5 289t289.5 120q118 0 216.5 -62t150.5 -165v207zM512 45q152 0 259.5 107.5t107.5 259.5t-107.5 259t-259.5 107
t-259.5 -107t-107.5 -259t107.5 -259.5t259.5 -107.5z" />
    <glyph glyph-name="uni01CF" unicode="&#x1cf;" horiz-adv-x="575" 
d="M268 1706l-135 283h47l109 -238l108 238h47l-131 -283h-45zM266 0v1536h43v-1536h-43z" />
    <glyph glyph-name="uni01D0" unicode="&#x1d0;" horiz-adv-x="411" 
d="M180 1012l-135 282h47l109 -237l108 237h47l-131 -282h-45zM184 0v799h43v-799h-43z" />
    <glyph glyph-name="uni01D1" unicode="&#x1d1;" horiz-adv-x="1910" 
d="M932 1706l-135 283h47l108 -238l109 238h47l-131 -283h-45zM1726 768q0 -209 -103.5 -386t-281 -279.5t-387.5 -102.5q-157 0 -299.5 60.5t-245.5 163t-164 245t-61 299.5t61 299.5t164 245t245.5 163t299.5 60.5q210 0 387.5 -102.5t281 -279.5t103.5 -386zM1683 768
q0 200 -97 367t-264.5 263.5t-367.5 96.5t-367 -96.5t-263.5 -263.5t-96.5 -367t96.5 -367t263.5 -263.5t367 -96.5t367.5 96.5t264.5 263.5t97 367z" />
    <glyph glyph-name="uni01D2" unicode="&#x1d2;" horiz-adv-x="1024" 
d="M487 1008l-135 282h47l109 -237l108 237h48l-132 -282h-45zM512 0q-169 0 -289.5 120.5t-120.5 289.5t120.5 289t289.5 120t289.5 -120t120.5 -289t-120.5 -289.5t-289.5 -120.5zM512 45q152 0 259.5 107.5t107.5 259.5t-107.5 259t-259.5 107t-259.5 -107t-107.5 -259
t107.5 -259.5t259.5 -107.5z" />
    <glyph glyph-name="uni01D3" unicode="&#x1d3;" horiz-adv-x="1542" 
d="M748 1706l-136 283h47l109 -238l109 238h47l-131 -283h-45zM770 0q-165 0 -304.5 81t-220.5 220.5t-81 304.5v930h43v-930q0 -153 75.5 -282.5t205 -205t282.5 -75.5q152 0 282 75t206 204t77 282v932h43v-930q0 -165 -81.5 -304.5t-221.5 -220.5t-305 -81z" />
    <glyph glyph-name="uni01D4" unicode="&#x1d4;" 
d="M498 1008l-136 282h48l108 -237l109 237h47l-131 -282h-45zM518 0q-152 0 -253 108t-101 261v430h43v-430q0 -138 91.5 -232t223.5 -94q127 0 220.5 87t93.5 212v457h43v-799h-43v186q-46 -86 -130.5 -136t-187.5 -50z" />
    <glyph glyph-name="Aringacute" unicode="&#x1fa;" horiz-adv-x="1687" 
d="M864 1530l721 -1530h-45l-233 494h-930l-230 -494h-45l715 1534q-43 11 -71.5 47.5t-28.5 83.5q0 53 39 92t94 39q16 0 24 -2l99 197h39l-105 -209q33 -18 53.5 -49.5t20.5 -67.5q0 -51 -34 -90t-83 -45zM760 1665q0 -40 26 -66t64 -26q37 0 62.5 26.5t25.5 65.5
q0 37 -25.5 62.5t-62.5 25.5q-38 0 -64 -25.5t-26 -62.5zM397 535h889l-444 954z" />
    <glyph glyph-name="aringacute" unicode="&#x1fb;" horiz-adv-x="1085" 
d="M879 799h43v-799h-43v227q-52 -103 -150.5 -165t-216.5 -62q-169 0 -289.5 120.5t-120.5 289.5q0 146 92 258t232 143q-49 40 -49 102q0 53 37.5 92t91.5 42l112 243h46l-113 -250q40 -11 68 -47t28 -80q0 -61 -49 -104q92 -20 166 -77.5t115 -139.5v207zM514 1004
q-40 0 -66 -26t-26 -65t26.5 -65.5t65.5 -26.5q37 0 62.5 27t25.5 65t-25.5 64.5t-62.5 26.5zM512 45q152 0 259.5 107.5t107.5 259.5t-107.5 259t-259.5 107t-259.5 -107t-107.5 -259t107.5 -259.5t259.5 -107.5z" />
    <glyph glyph-name="AEacute" unicode="&#x1fc;" horiz-adv-x="2125" 
d="M1331 1706l131 283h45l-129 -283h-47zM102 0l889 1536h971v-41h-918v-676h875v-41h-875v-737h918v-41h-961v494h-567l-287 -494h-45zM459 535h542v933z" />
    <glyph glyph-name="aeacute" unicode="&#x1fd;" horiz-adv-x="1779" 
d="M877 1008l131 282h45l-129 -282h-47zM512 0q-169 0 -289.5 120.5t-120.5 289.5t120.5 289t289.5 120q118 0 216.5 -62t150.5 -165v207h43v-207q52 103 150 165t216 62q169 0 289.5 -120t120.5 -289h-776q2 -153 108 -259t258 -106q154 0 262 111l33 -31
q-125 -125 -295 -125q-118 0 -216 62t-150 165v-227h-43v227q-52 -103 -150.5 -165t-216.5 -62zM512 45q152 0 259.5 107.5t107.5 259.5t-107.5 259t-259.5 107t-259.5 -107t-107.5 -259t107.5 -259.5t259.5 -107.5zM924 453h729q-17 138 -121 231.5t-244 93.5
q-141 0 -245 -93.5t-119 -231.5z" />
    <glyph glyph-name="Oslashacute" unicode="&#x1fe;" horiz-adv-x="1910" 
d="M1108 1989l-129 -283h-47l131 283h45zM1532 1278q92 -103 143 -234t51 -276q0 -209 -103.5 -386t-281 -279.5t-387.5 -102.5q-291 0 -510 190l-147 -147l-27 27l148 147q-110 107 -172 249.5t-62 301.5q0 157 61 299.5t164 245t245.5 163t299.5 60.5q160 0 302.5 -61
t250.5 -170l183 182l30 -23zM227 768q0 -152 58 -287t161 -235l1033 1030q-102 103 -237.5 161t-287.5 58q-200 0 -367 -96.5t-263.5 -263.5t-96.5 -367zM954 41q200 0 367.5 96.5t264.5 263.5t97 367q0 136 -47 259.5t-133 221.5l-1030 -1030q207 -178 481 -178z" />
    <glyph glyph-name="oslashacute" unicode="&#x1ff;" horiz-adv-x="1024" 
d="M279 1989l-129 -283h-48l131 283h46zM815 684q107 -117 107 -274q0 -169 -120.5 -289.5t-289.5 -120.5q-158 0 -274 106l-95 -94l-26 27l94 94q-109 115 -109 277q0 169 120.5 289t289.5 120q161 0 279 -108l88 88l26 -25zM145 412q0 -139 97 -248l518 518
q-103 96 -248 96q-152 0 -259.5 -107t-107.5 -259zM512 45q152 0 259.5 107.5t107.5 259.5q0 135 -93 243l-518 -518q107 -92 244 -92z" />
    <glyph glyph-name="Scommaaccent" unicode="&#x218;" horiz-adv-x="1402" 
d="M666 799q129 0 231.5 -34t165 -91.5t95 -129.5t32.5 -151q0 -114 -73.5 -205.5t-190.5 -139.5t-250 -48q-224 0 -368 116.5t-144 278.5h43q0 -100 64 -182t170.5 -127t230.5 -45q122 0 230 43t176.5 125.5t68.5 185.5q0 161 -132.5 262t-348.5 101q-229 0 -359.5 106
t-130.5 285q0 170 149 278.5t365 108.5q220 0 364 -113t144 -278h-39q0 149 -133.5 249.5t-337.5 100.5q-124 0 -230.5 -42.5t-172.5 -123.5t-66 -182q0 -157 120 -252.5t327 -95.5zM676 -158q17 0 29 -12t12 -29q0 -52 -43 -86v45q-18 2 -29.5 13t-11.5 28t12 29t31 12z
" />
    <glyph glyph-name="scommaaccent" unicode="&#x219;" horiz-adv-x="753" 
d="M369 430q112 0 196 -57.5t84 -151.5q0 -100 -82 -160.5t-188 -60.5q-117 0 -197 63t-80 152h43q0 -75 68.5 -123.5t165.5 -48.5q92 0 159.5 49t67.5 125q0 74 -67.5 122t-159.5 48q-115 0 -196 60t-81 155q0 89 76.5 153t196.5 64q95 0 172 -45l-29 -31q-59 33 -143 33
q-92 0 -162 -47t-70 -123q0 -73 65 -124.5t161 -51.5zM379 -158q17 0 29 -12t12 -29q0 -52 -43 -86v45q-18 2 -29.5 13t-11.5 28t12 29t31 12z" />
    <glyph glyph-name="uni021A" unicode="&#x21a;" horiz-adv-x="1417" 
d="M102 1536h1213v-39h-586v-1497h-43v1497h-584v39zM713 -158q17 0 29 -12t12 -29q0 -52 -43 -86v45q-18 2 -29.5 13t-11.5 28t12 29t31 12z" />
    <glyph glyph-name="uni021B" unicode="&#x21b;" horiz-adv-x="536" 
d="M231 799h162v-43h-162v-465q0 -139 111 -258l-31 -33q-123 141 -123 295v461h-127v43h127v325h43v-325zM311 -158q17 0 29 -12t12 -29q0 -52 -43 -86v45q-18 2 -29.5 13t-11.5 28t12 29t31 12z" />
    <glyph glyph-name="uni0259" unicode="&#x259;" horiz-adv-x="1228" 
d="M717 819q169 0 289 -120t120 -289t-120 -289.5t-289 -120.5t-289.5 120.5t-120.5 289.5h776q-2 152 -108 258t-258 106q-155 0 -262 -110l-33 30q125 125 295 125zM717 41q141 0 245 94t119 232h-729q17 -138 121 -232t244 -94z" />
    <glyph glyph-name="circumflex" unicode="&#x2c6;" horiz-adv-x="393" 
d="M41 1706l131 283h45l135 -283h-47l-108 238l-109 -238h-47z" />
    <glyph glyph-name="caron" unicode="&#x2c7;" horiz-adv-x="393" 
d="M176 1706l-135 283h47l109 -238l108 238h47l-131 -283h-45z" />
    <glyph glyph-name="breve" unicode="&#x2d8;" horiz-adv-x="534" 
d="M268 1704q-93 0 -158.5 64.5t-68.5 158.5h43q2 -75 55.5 -128.5t128.5 -53.5q74 0 128 53.5t55 128.5h43q-3 -94 -68.5 -158.5t-157.5 -64.5z" />
    <glyph glyph-name="dotaccent" unicode="&#x2d9;" horiz-adv-x="163" 
d="M82 1686q-17 0 -29 11.5t-12 28.5t12 29t29 12t29 -12t12 -29t-12 -28.5t-29 -11.5z" />
    <glyph glyph-name="ring" unicode="&#x2da;" horiz-adv-x="333" 
d="M168 1739q-52 0 -89.5 37.5t-37.5 89.5q0 51 37.5 88t89.5 37q51 0 88 -37t37 -88q0 -52 -37 -89.5t-88 -37.5zM168 1780q35 0 59.5 24.5t24.5 61.5q0 35 -24.5 59.5t-59.5 24.5q-37 0 -61.5 -24.5t-24.5 -59.5q0 -37 24.5 -61.5t61.5 -24.5z" />
    <glyph glyph-name="ogonek" unicode="&#x2db;" horiz-adv-x="212" 
d="M92 -258l-35 78q-29 65 -4.5 122.5t92.5 88.5l15 4l12 -27q-65 -29 -82.5 -79t12.5 -113l27 -58z" />
    <glyph glyph-name="tilde" unicode="&#x2dc;" horiz-adv-x="698" 
d="M506 1698q-44 0 -103.5 25.5t-114.5 51t-89 25.5q-43 0 -80 -31t-37 -69h-41q0 51 49 96t109 45q48 0 157 -51t150 -51q43 0 76.5 29t33.5 71h41q0 -53 -44.5 -97t-106.5 -44z" />
    <glyph glyph-name="hungarumlaut" unicode="&#x2dd;" horiz-adv-x="468" 
d="M41 1706l131 283h45l-129 -283h-47zM252 1706l131 283h45l-129 -283h-47z" />
    <glyph glyph-name="uni0326" unicode="&#x326;" horiz-adv-x="0" 
d="M-82 -158q17 0 29 -12t12 -29q0 -52 -43 -86v45q-18 2 -29.5 13t-11.5 28t12 29t31 12z" />
    <glyph glyph-name="Wgrave" unicode="&#x1e80;" horiz-adv-x="2443" 
d="M1214 1706l-129 283h45l132 -283h-48zM805 0l-723 1536h45l700 -1489l373 803h45l377 -803l694 1489h45l-716 -1536h-46l-376 801l-373 -801h-45z" />
    <glyph glyph-name="wgrave" unicode="&#x1e81;" horiz-adv-x="1445" 
d="M702 1008l-129 282h45l132 -282h-48zM403 0l-372 799h45l350 -750l299 633l295 -633l350 750h45l-373 -799h-43l-274 584l-279 -584h-43z" />
    <glyph glyph-name="Wacute" unicode="&#x1e82;" horiz-adv-x="2443" 
d="M1212 1706l131 283h46l-129 -283h-48zM805 0l-723 1536h45l700 -1489l373 803h45l377 -803l694 1489h45l-716 -1536h-46l-376 801l-373 -801h-45z" />
    <glyph glyph-name="wacute" unicode="&#x1e83;" horiz-adv-x="1445" 
d="M700 1008l131 282h46l-129 -282h-48zM403 0l-372 799h45l350 -750l299 633l295 -633l350 750h45l-373 -799h-43l-274 584l-279 -584h-43z" />
    <glyph glyph-name="Wdieresis" unicode="&#x1e84;" horiz-adv-x="2443" 
d="M1114 1686q-17 0 -29 11.5t-12 28.5t12 29t29 12t29 -12t12 -29t-12 -28.5t-29 -11.5zM1354 1686q-17 0 -29 11.5t-12 28.5t12 29t29 12t29 -12t12 -29t-12 -28.5t-29 -11.5zM805 0l-723 1536h45l700 -1489l373 803h45l377 -803l694 1489h45l-716 -1536h-46l-376 801
l-373 -801h-45z" />
    <glyph glyph-name="wdieresis" unicode="&#x1e85;" horiz-adv-x="1445" 
d="M602 987q-17 0 -29 12t-12 29t12 29t29 12t29 -12t12 -29t-12 -29t-29 -12zM842 987q-17 0 -29 12t-12 29t12 29t29 12t29 -12t12 -29t-12 -29t-29 -12zM403 0l-372 799h45l350 -750l299 633l295 -633l350 750h45l-373 -799h-43l-274 584l-279 -584h-43z" />
    <glyph glyph-name="Ygrave" unicode="&#x1ef2;" horiz-adv-x="1337" 
d="M645 1706l-129 283h45l131 -283h-47zM647 0v567l-565 969h49l537 -930l538 930h49l-565 -969v-567h-43z" />
    <glyph glyph-name="ygrave" unicode="&#x1ef3;" 
d="M498 1008l-129 282h45l131 -282h-47zM465 -684v39q42 0 87 10t97 38t92.5 71t67.5 115.5t27 164.5v432q-46 -86 -130.5 -136t-187.5 -50q-152 0 -253 108t-101 261v430h43v-430q0 -138 91.5 -232t223.5 -94q127 0 220.5 87t93.5 212v457h43v-1026q0 -103 -28 -184.5
t-71.5 -131.5t-100 -83t-109.5 -45.5t-105 -12.5z" />
    <glyph glyph-name="quoteleft" unicode="&#x2018;" horiz-adv-x="163" 
d="M82 1386q-16 0 -28.5 13.5t-12.5 38.5q0 29 12.5 53.5t24.5 34.5l12 10v-70q14 -2 23.5 -13t9.5 -28q0 -16 -11.5 -27.5t-29.5 -11.5z" />
    <glyph glyph-name="quoteright" unicode="&#x2019;" horiz-adv-x="163" 
d="M74 1386v70q-14 2 -23.5 13t-9.5 28q0 16 11.5 27.5t29.5 11.5q16 0 28.5 -13t12.5 -38q0 -29 -12.5 -54t-24.5 -35z" />
    <glyph glyph-name="quotedblleft" unicode="&#x201c;" horiz-adv-x="262" 
d="M82 1386q-16 0 -28.5 13.5t-12.5 38.5q0 29 12.5 53.5t24.5 34.5l12 10v-70q14 -2 23.5 -13t9.5 -28q0 -16 -11.5 -27.5t-29.5 -11.5zM180 1386q-16 0 -28.5 13.5t-12.5 38.5q0 29 12.5 53.5t24.5 34.5l12 10v-70q14 -2 23.5 -13t9.5 -28q0 -16 -11.5 -27.5t-29.5 -11.5z
" />
    <glyph glyph-name="quotedblright" unicode="&#x201d;" horiz-adv-x="262" 
d="M74 1386v70q-14 2 -23.5 13t-9.5 28q0 16 11.5 27.5t29.5 11.5q16 0 28.5 -13t12.5 -38q0 -29 -12.5 -54t-24.5 -35zM172 1386v70q-14 2 -23.5 13t-9.5 28q0 16 11.5 27.5t29.5 11.5q16 0 28.5 -13t12.5 -38q0 -29 -12.5 -54t-24.5 -35z" />
    <glyph glyph-name="fraction" unicode="&#x2044;" horiz-adv-x="833" 
d="M41 0l709 1536h43l-709 -1536h-43z" />
    <glyph glyph-name="minus" unicode="&#x2212;" horiz-adv-x="1175" 
d="M102 688v41h971v-41h-971z" />
    <glyph glyph-name="i.loclTRK" horiz-adv-x="411" 
d="M203 991q-17 0 -29 12t-12 29t12 29t29 12t29 -12t12 -29t-12 -29t-29 -12zM184 0v799h43v-799h-43z" />
    <glyph glyph-name="NULL" horiz-adv-x="0" 
 />
    </font>
</defs>
</svg>
