<svg xmlns="http://www.w3.org/2000/svg" id="Type2" width="2560" height="2560" viewBox="0 0 2560 2560"><defs><style>.cls-1,.cls-2{fill:#fdf3d1;stroke:#202a33;stroke-width:26px}.cls-2{fill:#202a33}</style></defs><rect width="1744" height="2327" x="408" y="116" class="cls-1"/><rect width="1488" height="25" x="542" y="1946" class="cls-2"/><rect width="1488" height="25" x="536" y="2066" class="cls-2"/><rect width="1488" height="25" x="536" y="2186" class="cls-2"/><rect width="1488" height="25" x="536" y="1826" class="cls-2"/><rect width="1488" height="25" x="536" y="1466" class="cls-2"/><rect width="1488" height="25" x="536" y="1586" class="cls-2"/><rect width="1488" height="25" x="536" y="1706" class="cls-2"/><rect width="1488" height="25" x="542" y="1346" class="cls-2"/><rect width="1488" height="25" x="542" y="266" class="cls-2"/><rect width="1488" height="25" x="542" y="386" class="cls-2"/><rect width="1488" height="25" x="542" y="506" class="cls-2"/><rect width="1488" height="25" x="542" y="626" class="cls-2"/><rect width="1488" height="25" x="542" y="746" class="cls-2"/><rect width="1488" height="25" x="542" y="866" class="cls-2"/><rect width="1488" height="25" x="536" y="986" class="cls-2"/><rect width="1488" height="25" x="536" y="1106" class="cls-2"/><rect width="1488" height="25" x="542" y="1226" class="cls-2"/></svg>