<svg xmlns="http://www.w3.org/2000/svg" id="Writing" width="2560" height="2560" viewBox="0 0 2560 2560"><defs><style>.cls-1,.cls-2{fill-rule:evenodd}.cls-1{fill:#fdf3d1;stroke:#202a33;stroke-linejoin:round;stroke-width:32px}.cls-2{fill:#202a33}</style></defs><path id="Color_Fill_2" d="M394.853,1217.17C-28.064,1538.81-25.2,2189.78,262.7,2211.03c59.1,4.36,2182.561-6.57,2230.441-24.27,82.08-30.34-731.43-259.4-342.52-957.46,177.45-318.5,100.68-879.793,75.52-880.584-44.52-1.4-1706.326-1.731-1773.3,8.092C412.039,362.791,596.193,1064.04,394.853,1217.17Z" class="cls-1" data-name="Color Fill 2"/><path d="M599.827,447.159H2088.59v43.153H599.827V447.159Z" class="cls-2"/><path d="M203.364,1935.93H1946.99v43.15H203.364v-43.15Z" class="cls-2"/><path d="M203.364,1791.64H1882.27v43.15H203.364v-43.15Z" class="cls-2"/><path d="M304.5,1503.05H1882.27v43.16H304.5v-43.16Z" class="cls-2"/><path d="M247.865,1647.35H1849.9v43.15H247.865v-43.15Zm0,0H1849.9v43.15H247.865v-43.15Zm0,0H1849.9v43.15H247.865v-43.15Z" class="cls-2"/><path d="M510.825,1214.47H2023.86v43.15H510.825v-43.15Z" class="cls-2"/><path d="M344.958,1358.76H1882.27v43.16H344.958v-43.16Z" class="cls-2"/><path d="M563.417,1047.25H2023.86v43.16H563.417v-43.16Z" class="cls-2"/><path d="M599.827,880.036H2088.59v43.152H599.827V880.036Z" class="cls-2"/><path d="M599.827,735.743H2088.59V778.9H599.827V735.743Zm0,0H2088.59V778.9H599.827V735.743Zm0,0H2088.59V778.9H599.827V735.743Zm0,0H2088.59V778.9H599.827V735.743Z" class="cls-2"/><path d="M599.827,591.451H2088.59V634.6H599.827V591.451Zm0,0H2088.59V634.6H599.827V591.451Zm0,0H2088.59V634.6H599.827V591.451Z" class="cls-2"/></svg>